<?xml version="1.0" encoding="utf-8"?>
<!-- Generator: Adobe Illustrator 17.0.0, SVG Export Plug-In . SVG Version: 6.00 Build 0)  -->
<!DOCTYPE svg PUBLIC "-//W3C//DTD SVG 1.1//EN" "http://www.w3.org/Graphics/SVG/1.1/DTD/svg11.dtd">
<svg version="1.1" id="图层_1" xmlns="http://www.w3.org/2000/svg" xmlns:xlink="http://www.w3.org/1999/xlink" x="0px" y="0px"
	 width="1000px" height="1957.051px" viewBox="0 0 1000 1957.051" enable-background="new 0 0 1000 1957.051" xml:space="preserve">
<g>
	<path fill="none" stroke="#666666" stroke-miterlimit="10" d="M38.992,1071.52l-6.776,9.547"/>
	<path fill="none" stroke="#666666" stroke-miterlimit="10" d="M25.643,1071.042l6.733,9.593"/>
	<path fill="none" stroke="#666666" stroke-width="1.0363" stroke-miterlimit="10" d="M32.375,1080.098v14.379"/>
	<path fill="none" stroke="#666666" stroke-miterlimit="10" d="M22.12,1086.098h19.869"/>
	<path fill="none" stroke="#666666" stroke-miterlimit="10" d="M22.113,1080.243H41.99"/>
	<path fill="none" stroke="#666666" stroke-miterlimit="10" d="M32.064,1050.104c17.38,0,31.469,14.236,31.469,31.797
		s-14.089,31.797-31.469,31.797s-31.469-14.236-31.469-31.797C0.596,1064.34,14.685,1050.104,32.064,1050.104z"/>
	<path fill="none" stroke="#666666" stroke-miterlimit="10" d="M32.064,1059.323c12.34,0,22.344,10.115,22.344,22.594
		c0,12.478-10.004,22.594-22.344,22.594S9.72,1094.395,9.72,1081.917C9.721,1069.438,19.724,1059.323,32.064,1059.323z"/>
	<path fill="#FFFFFF" stroke="#666666" stroke-miterlimit="10" d="M17.58,1050.104c2.511,0,4.547,2.064,4.547,4.609
		c0,2.545-2.036,4.61-4.547,4.61s-4.547-2.064-4.547-4.61C13.033,1052.167,15.069,1050.104,17.58,1050.104z"/>
	<path fill="#FFFFFF" stroke="#666666" stroke-miterlimit="10" d="M16.33,1103.667c3.201,0,5.797,2.63,5.797,5.875
		c0,3.245-2.595,5.875-5.797,5.875s-5.797-2.63-5.797-5.875C10.533,1106.297,13.129,1103.667,16.33,1103.667z"/>
	<path fill="#FFFFFF" stroke="#666666" stroke-miterlimit="10" d="M49.861,1091.135c2.511,0,4.547,2.057,4.547,4.594
		c0,2.537-2.036,4.594-4.547,4.594s-4.547-2.057-4.547-4.594C45.314,1093.192,47.35,1091.135,49.861,1091.135z"/>
	<path fill="#FFFFFF" stroke="#666666" stroke-miterlimit="10" d="M46.955,1060.979c2.287,0,4.141,1.875,4.141,4.188
		s-1.854,4.188-4.141,4.188s-4.14-1.875-4.14-4.188C42.815,1062.854,44.668,1060.979,46.955,1060.979z"/>
	<path fill="#FFFFFF" stroke="#666666" stroke-miterlimit="10" d="M9.721,1078.573c1.829,0,3.312,1.504,3.312,3.359
		s-1.483,3.359-3.312,3.359s-3.312-1.504-3.312-3.359C6.408,1080.077,7.891,1078.573,9.721,1078.573z"/>
</g>
<g>
	<path fill="none" stroke="#0099FF" stroke-miterlimit="10" d="M38.951,1140.878l-6.776,9.547"/>
	<path fill="none" stroke="#0099FF" stroke-miterlimit="10" d="M25.602,1140.4l6.733,9.593"/>
	<path fill="none" stroke="#0099FF" stroke-width="1.0383" stroke-miterlimit="10" d="M32.333,1149.399v14.436"/>
	<path fill="none" stroke="#0099FF" stroke-miterlimit="10" d="M22.12,1155.456h19.869"/>
	<path fill="none" stroke="#0099FF" stroke-miterlimit="10" d="M22.113,1149.601H41.99"/>
	<path fill="none" stroke="#666666" stroke-miterlimit="10" d="M32.064,1119.462c17.38,0,31.469,14.236,31.469,31.797
		s-14.089,31.797-31.469,31.797s-31.469-14.236-31.469-31.797C0.596,1133.698,14.685,1119.462,32.064,1119.462z"/>
	<path fill="none" stroke="#666666" stroke-miterlimit="10" d="M32.064,1128.681c12.34,0,22.344,10.115,22.344,22.594
		c0,12.478-10.004,22.594-22.344,22.594S9.72,1163.753,9.72,1151.275C9.721,1138.796,19.724,1128.681,32.064,1128.681z"/>
	<path fill="#FFFFFF" stroke="#666666" stroke-miterlimit="10" d="M17.58,1119.462c2.511,0,4.547,2.064,4.547,4.609
		c0,2.546-2.036,4.61-4.547,4.61s-4.547-2.064-4.547-4.61C13.033,1121.526,15.069,1119.462,17.58,1119.462z"/>
	<path fill="#FFFFFF" stroke="#666666" stroke-miterlimit="10" d="M16.33,1173.024c3.201,0,5.797,2.63,5.797,5.875
		c0,3.245-2.595,5.875-5.797,5.875s-5.797-2.63-5.797-5.875C10.533,1175.655,13.129,1173.024,16.33,1173.024z"/>
	<path fill="#0099FF" d="M49.861,1160.493c2.511,0,4.547,2.057,4.547,4.594c0,2.537-2.036,4.594-4.547,4.594
		s-4.547-2.057-4.547-4.594C45.314,1162.55,47.35,1160.493,49.861,1160.493z"/>
	<path fill="#0099FF" d="M46.955,1130.337c2.287,0,4.141,1.875,4.141,4.188s-1.854,4.188-4.141,4.188s-4.14-1.875-4.14-4.188
		C42.815,1132.212,44.668,1130.337,46.955,1130.337z"/>
	<path fill="#0099FF" d="M9.721,1147.931c1.829,0,3.312,1.504,3.312,3.359s-1.483,3.359-3.312,3.359s-3.312-1.504-3.312-3.359
		C6.408,1149.435,7.891,1147.931,9.721,1147.931z"/>
</g>
<g>
	<path fill="#666666" d="M28.376,1220.036h1v11.312h-1V1220.036z"/>
	<path fill="none" stroke="#666666" stroke-miterlimit="10" d="M34.892,1220.036h9.312v9.313h-9.312V1220.036z"/>
	<path fill="none" stroke="#666666" stroke-miterlimit="10" d="M10.923,1220.036h11.969v11.969H10.923V1220.036z"/>
	<path fill="#666666" d="M28.376,1205.411h1v5.969h-1V1205.411z"/>
	<path fill="#666666" d="M28.376,1199.443h1v3.313h-1V1199.443z"/>
	<path fill="none" stroke="#666666" stroke-miterlimit="10" d="M34.892,1199.443h11.969v11.938H34.892V1199.443z"/>
	<path fill="none" stroke="#666666" stroke-miterlimit="10" d="M10.923,1199.443h11.969v11.938H10.923V1199.443z"/>
	<path fill="none" stroke="#666666" stroke-miterlimit="10" d="M0,1214.728h57.089"/>
	<path fill="none" stroke="#666666" stroke-miterlimit="10" d="M54.845,1224.017c0,6.383,0,11.273,0,11.273c0,3.314-2.657,6-5.934,6
		c0,0-4.862,0-11.128,0 M20.018,1241.29c-6.32,0-11.166,0-11.166,0c-3.278,0-5.934-2.686-5.934-6c0,0,0-4.891,0-11.273
		 M2.918,1206.04c0-6.392,0-11.251,0-11.251c0-3.314,2.657-6,5.934-6c0,0,4.818,0,11.111,0 M37.783,1188.789
		c6.263,0,11.128,0,11.128,0c3.278,0,5.934,2.687,5.934,6c0,0,0,4.996,0,11.251"/>
</g>
<g>
	<path fill="#666666" d="M28.376,1276.559h1v11.312h-1V1276.559z"/>
	<path fill="#0099FF" d="M34.892,1276.559h9.312v9.313h-9.312V1276.559z"/>
	<path fill="none" stroke="#666666" stroke-miterlimit="10" d="M10.923,1276.559h11.969v11.969H10.923V1276.559z"/>
	<path fill="#666666" d="M28.376,1261.935h1v5.969h-1V1261.935z"/>
	<path fill="#666666" d="M28.376,1255.966h1v3.313h-1V1255.966z"/>
	<path fill="none" stroke="#666666" stroke-miterlimit="10" d="M34.892,1255.966h11.969v11.938H34.892V1255.966z"/>
	<path fill="#0099FF" d="M10.923,1255.966h11.969v11.938H10.923V1255.966z"/>
	<path fill="none" stroke="#0099FF" stroke-miterlimit="10" d="M0,1271.251h57.089"/>
	<path fill="none" stroke="#666666" stroke-miterlimit="10" d="M54.845,1280.54c0,6.383,0,11.273,0,11.273c0,3.314-2.657,6-5.934,6
		c0,0-4.862,0-11.128,0 M20.018,1297.814c-6.32,0-11.166,0-11.166,0c-3.278,0-5.934-2.686-5.934-6c0,0,0-4.891,0-11.273
		 M2.918,1262.563c0-6.391,0-11.251,0-11.251c0-3.314,2.657-6,5.934-6c0,0,4.818,0,11.111,0 M37.783,1245.312
		c6.263,0,11.128,0,11.128,0c3.278,0,5.934,2.687,5.934,6c0,0,0,4.996,0,11.251"/>
</g>
<g>
	<path fill="#666666" d="M56,1334.394h10v1H56V1334.394z"/>
	<path fill="#666666" d="M0,1334.394h10v1H0V1334.394z"/>
	<path fill="#666666" d="M33,1357.394h1v10h-1V1357.394z"/>
	<path fill="#666666" d="M33,1301.394h1v10h-1V1301.394z"/>
	<path fill="none" stroke="#666666" stroke-width="0.9898" stroke-miterlimit="10" d="M35.279,1306.406
		c13.977,1.012,25.138,12.185,26.129,26.169 M61.415,1336.529c-0.945,14.053-12.16,25.292-26.202,26.275 M31.17,1362.802
		c-14.013-0.998-25.202-12.209-26.166-26.232 M5.001,1332.679c0.945-14.062,12.172-25.306,26.226-26.279"/>
</g>
<g>
	<g>
		<path fill="#666666" d="M32.788,1318.572v3.071c-5.993,0.614-10.804,5.295-11.674,11.37h-2.891l0.074-0.503
			c1.075-7.272,6.823-12.939,13.977-13.782l0.443-0.052L32.788,1318.572 M33.767,1315.398l-1.608,2.358l0,0
			c-7.614,0.896-13.695,6.924-14.831,14.61l-0.046-0.016l-2.311,1.64h2.192h4.825h0.002c0.483-6.281,5.54-11.248,11.776-11.433
			v-4.914v-2.245H33.767L33.767,1315.398z"/>
	</g>
	<g>
		<path fill="#666666" d="M50.024,1332.519c0.028,0.24,0.055,0.521,0.078,0.841c0.023,0.317,0.035,1.26,0.038,1.603v0.015
			c0,8.156-5.958,15.125-13.86,16.21l-0.478,0.084v-2.997c5.514-0.716,10.05-4.936,11.2-10.544l0.189-0.923l-0.915-0.225
			l-7.406-1.819L50.024,1332.519 M50.837,1331.357l-16.458,3.311l11.664,2.865c-1.109,5.412-5.666,9.531-11.22,9.85v0.023
			l-0.003-0.009v7.161l1.607-2.358l-0.014-0.043c8.303-1.14,14.706-8.393,14.706-17.18c0-0.007,0-0.012,0-0.018v-0.001
			c0,0-0.01-1.25-0.04-1.669C50.991,1332.061,50.837,1331.357,50.837,1331.357L50.837,1331.357z"/>
	</g>
	<g>
		<path fill="#666666" d="M34.379,1328.343l3.861,3.941l-2.206,0.504l-0.956-0.975l-0.699-0.714l-0.699,0.714l-2.127,2.171
			l-0.671,0.685l0.671,0.685l2.127,2.171l0.699,0.714l0.699-0.714l0.878-0.896l2.126,0.585l-3.703,3.779l-6.198-6.325
			L34.379,1328.343 M34.379,1326.944l-7.568,7.724l7.45,7.602l0.119,0.121l5.566-5.681l-4.285-1.179l-1.281,1.308l-2.127-2.171
			l2.127-2.171l1.339,1.367l4.447-1.015L34.379,1326.944L34.379,1326.944z"/>
	</g>
</g>
<g>
	<path fill="#666666" d="M56,1403.394h10v1H56V1403.394z"/>
	<path fill="#666666" d="M0,1403.394h10v1H0V1403.394z"/>
	<path fill="#666666" d="M33,1426.394h1v10h-1V1426.394z"/>
	<path fill="#666666" d="M33,1370.394h1v10h-1V1370.394z"/>
	<path fill="none" stroke="#666666" stroke-width="0.9898" stroke-miterlimit="10" d="M35.279,1375.406
		c13.977,1.012,25.138,12.185,26.129,26.169 M61.415,1405.529c-0.945,14.053-12.16,25.292-26.202,26.275 M31.17,1431.802
		c-14.013-0.998-25.202-12.209-26.166-26.231 M5.001,1401.679c0.945-14.062,12.172-25.306,26.226-26.279"/>
</g>
<g>
	<g>
		<g>
			<path fill="#0099FF" d="M33.767,1386.645v-2.247l-1.608,2.358l0,0c-7.614,0.896-13.695,6.924-14.831,14.61l-0.046-0.016
				l-2.311,1.64h2.192h4.825h0.002c0.483-6.281,5.54-11.248,11.776-11.433v-4.912H33.767L33.767,1386.645z"/>
		</g>
	</g>
	<g>
		<g>
			<path fill="#0099FF" d="M51.119,1403.958c0,0-0.01-1.25-0.04-1.669c-0.088-1.228-0.242-1.932-0.242-1.932l-16.458,3.311
				l11.664,2.865c-1.109,5.412-5.666,9.531-11.22,9.85v0.023l-0.003-0.009v7.161l1.607-2.358l-0.014-0.043
				c8.303-1.14,14.706-8.394,14.706-17.18C51.119,1403.97,51.119,1403.965,51.119,1403.958L51.119,1403.958z"/>
		</g>
	</g>
	<g>
		<path fill="#0099FF" d="M34.379,1397.343l3.861,3.941l-2.206,0.504l-0.956-0.975l-0.699-0.714l-0.699,0.714l-2.127,2.171
			l-0.671,0.685l0.671,0.685l2.127,2.171l0.699,0.714l0.699-0.714l0.878-0.896l2.126,0.585l-3.703,3.779l-6.198-6.325
			L34.379,1397.343 M34.379,1395.944l-7.568,7.724l7.45,7.603l0.119,0.121l5.566-5.681l-4.285-1.179l-1.281,1.307l-2.127-2.171
			l2.127-2.171l1.339,1.367l4.447-1.015L34.379,1395.944L34.379,1395.944z"/>
	</g>
</g>
<g>
	<path fill="#666666" d="M38.451,1449.871h1v11.55h-1V1449.871z"/>
	<path fill="#666666" d="M28.451,1452.871h1v3h-1V1452.871z"/>
	<path fill="#666666" d="M18.451,1447.871h1v8.42h-1V1447.871z"/>
	<path fill="#666666" d="M8.451,1455.871h1v6.175h-1V1455.871z"/>
	<path fill="none" stroke="#666666" stroke-miterlimit="10" d="M38.451,1439.871v4"/>
	<path fill="none" stroke="#666666" stroke-miterlimit="10" d="M38.451,1439.871h-4"/>
	<path fill="none" stroke="#666666" stroke-linecap="round" stroke-miterlimit="10" d="M9.451,1448.871
		c-0.122,0.012,10.062-8,10.062-8l8.938,9l10-10"/>
	<path fill="none" stroke="#666666" stroke-miterlimit="10" d="M24.485,1478.274v16.825"/>
	<path fill="none" stroke="#666666" stroke-miterlimit="10" d="M9.753,1470.572l14.8,8.011l15.362-8.011"/>
	<path fill="none" stroke="#666666" stroke-miterlimit="10" d="M24.459,1505.859l-23.997-13.146v-26.294l23.997-13.147
		l23.997,13.147v26.294L24.459,1505.859z"/>
	<path fill="#FFFFFF" stroke="#666666" stroke-miterlimit="10" d="M9.529,1468.871c1.7,0,3.078,1.378,3.078,3.078
		s-1.378,3.078-3.078,3.078s-3.078-1.378-3.078-3.078S7.829,1468.871,9.529,1468.871z"/>
	<path fill="#FFFFFF" stroke="#666666" stroke-miterlimit="10" d="M39.372,1468.871c1.7,0,3.078,1.378,3.078,3.078
		s-1.378,3.078-3.078,3.078s-3.078-1.378-3.078-3.078S37.673,1468.871,39.372,1468.871z"/>
	<path fill="#FFFFFF" stroke="#666666" stroke-miterlimit="10" d="M24.451,1491.715c1.691,0,3.062,1.378,3.062,3.078
		s-1.371,3.078-3.062,3.078s-3.062-1.378-3.062-3.078S22.759,1491.715,24.451,1491.715z"/>
</g>
<g>
	<path fill="#666666" d="M38.451,1519.875h1v11.55h-1V1519.875z"/>
	<path fill="#666666" d="M28.451,1522.875h1v3h-1V1522.875z"/>
	<path fill="#666666" d="M18.451,1517.875h1v8.42h-1V1517.875z"/>
	<path fill="#666666" d="M8.451,1525.875h1v6.175h-1V1525.875z"/>
	<path fill="none" stroke="#666666" stroke-miterlimit="10" d="M38.451,1509.875v4"/>
	<path fill="none" stroke="#666666" stroke-miterlimit="10" d="M38.451,1509.875h-4"/>
	<path fill="none" stroke="#666666" stroke-linecap="round" stroke-miterlimit="10" d="M9.451,1518.875
		c-0.122,0.012,10.062-8,10.062-8l8.938,9l10-10"/>
	<path fill="none" stroke="#0099FF" stroke-miterlimit="10" d="M24.485,1548.278v16.825"/>
	<path fill="none" stroke="#0099FF" stroke-miterlimit="10" d="M9.753,1540.576l14.8,8.011l15.362-8.011"/>
	<path fill="none" stroke="#666666" stroke-miterlimit="10" d="M24.459,1575.864l-23.997-13.146v-26.294l23.997-13.147
		l23.997,13.147v26.294L24.459,1575.864z"/>
	<path fill="#0099FF" d="M9.529,1538.875c1.7,0,3.078,1.378,3.078,3.078s-1.378,3.078-3.078,3.078s-3.078-1.378-3.078-3.078
		S7.829,1538.875,9.529,1538.875z"/>
	<path fill="#0099FF" d="M39.372,1538.875c1.7,0,3.078,1.378,3.078,3.078s-1.378,3.078-3.078,3.078s-3.078-1.378-3.078-3.078
		S37.673,1538.875,39.372,1538.875z"/>
	<path fill="#0099FF" d="M24.451,1561.719c1.691,0,3.062,1.378,3.062,3.078s-1.371,3.078-3.062,3.078s-3.062-1.378-3.062-3.078
		C21.388,1563.097,22.759,1561.719,24.451,1561.719z"/>
</g>
<g>
	<path fill="#0099FF" d="M11.009,1593.983v-4.223H8.741c-0.076-2.054,0.831-3.613,2.722-4.679v-1.598
		c-3.175,1.218-4.763,3.463-4.763,6.734v3.766H11.009z M4.772,1593.983v-4.223H2.39c-0.076-1.978,0.868-3.538,2.835-4.679v-1.598
		c-3.175,1.218-4.763,3.463-4.763,6.734v3.766H4.772z"/>
</g>
<g>
	<path fill="none" stroke="#BFBFBF" stroke-miterlimit="10" d="M2.5,1597.517h24c1.105,0,2,0.896,2,2v36c0,1.104-0.896,2-2,2h-24
		c-1.105,0-2-0.896-2-2v-36C0.5,1598.412,1.395,1597.517,2.5,1597.517z"/>
</g>
<g>
	<path fill="none" stroke="#BFBFBF" stroke-miterlimit="10" d="M2.5,1641.538h24c1.105,0,2,0.896,2,2v36c0,1.104-0.896,2-2,2h-24
		c-1.105,0-2-0.896-2-2v-36C0.5,1642.434,1.395,1641.538,2.5,1641.538z"/>
</g>
<g>
	<path fill="none" stroke="#BFBFBF" stroke-miterlimit="10" d="M41.667,1641.538h24c1.105,0,2,0.896,2,2v36c0,1.104-0.896,2-2,2h-24
		c-1.105,0-2-0.896-2-2v-36C39.667,1642.434,40.562,1641.538,41.667,1641.538z"/>
</g>
<g>
	<path fill="none" stroke="#BFBFBF" stroke-miterlimit="10" d="M133.833,1641.538h24c1.105,0,2,0.896,2,2v36c0,1.104-0.896,2-2,2
		h-24c-1.105,0-2-0.896-2-2v-36C131.833,1642.434,132.728,1641.538,133.833,1641.538z"/>
</g>
<g>
	<path fill="none" stroke="#BFBFBF" stroke-miterlimit="10" d="M173,1641.538h24c1.105,0,2,0.896,2,2v36c0,1.104-0.896,2-2,2h-24
		c-1.105,0-2-0.896-2-2v-36C171,1642.434,171.895,1641.538,173,1641.538z"/>
</g>
<g>
	<path fill="none" stroke="#BFBFBF" stroke-miterlimit="10" d="M212.094,1641.538h24c1.105,0,2,0.896,2,2v36c0,1.104-0.896,2-2,2
		h-24c-1.105,0-2-0.896-2-2v-36C210.094,1642.434,210.989,1641.538,212.094,1641.538z"/>
</g>
<g>
	<path fill="none" stroke="#BFBFBF" stroke-miterlimit="10" d="M94.75,1641.538h24c1.105,0,2,0.896,2,2v36c0,1.104-0.896,2-2,2h-24
		c-1.105,0-2-0.896-2-2v-36C92.75,1642.434,93.645,1641.538,94.75,1641.538z"/>
</g>
<linearGradient id="SVGID_1_" gradientUnits="userSpaceOnUse" x1="-2134" y1="-1760.644" x2="-1134" y2="-1760.644" gradientTransform="matrix(1 0 0 1 2134 3340.626)">
	<stop  offset="4.982462e-04" style="stop-color:#FFFFFF"/>
	<stop  offset="0.5218" style="stop-color:#0199FF"/>
	<stop  offset="0.9866" style="stop-color:#FFFFFF"/>
</linearGradient>
<rect y="1579.482" fill="url(#SVGID_1_)" width="1000" height="1"/>
<g>
	<path fill="#333333" d="M1.266,1693.101h-1.312l2.531-8.016h1.719L1.266,1693.101z"/>
</g>
<g>
	<path fill="#333333" d="M79.187,1678.538h-1.312l2.531-8.016h1.719L79.187,1678.538z"/>
</g>
<g>
	<g>
		<path fill="none" stroke="#666666" stroke-miterlimit="10" d="M7.267,164.502c0.598,0,1.296,0.498,1.296,1.195v0.099
			c0,0.598-0.498,1.195-1.296,1.195s-1.296-0.498-1.296-1.195v-0.099C5.973,165,6.471,164.502,7.267,164.502z"/>
		<path fill="none" stroke="#666666" stroke-miterlimit="10" d="M12.45,164.502c0.598,0,1.296,0.498,1.296,1.195v0.099
			c0,0.598-0.498,1.195-1.296,1.195s-1.296-0.498-1.296-1.195v-0.099C11.253,165,11.851,164.502,12.45,164.502z"/>
		<path fill="none" stroke="#666666" stroke-miterlimit="10" d="M7.267,169.782c0.598,0,1.296,0.498,1.296,1.195v0.298
			c0,0.598-0.498,1.195-1.296,1.195s-1.296-0.498-1.296-1.195v-0.298C5.973,170.282,6.471,169.782,7.267,169.782z"/>
		<path fill="none" stroke="#666666" stroke-miterlimit="10" d="M12.45,169.782c0.598,0,1.296,0.498,1.296,1.195v0.298
			c0,0.598-0.498,1.195-1.296,1.195s-1.296-0.498-1.296-1.195v-0.298C11.253,170.282,11.851,169.782,12.45,169.782z"/>
		<path fill="none" stroke="#666666" stroke-miterlimit="10" d="M17.431,170.78h8.37c0.897,0,1.794,1.096,1.794,1.993v15.844"/>
		
			<line fill="none" stroke="#666666" stroke-width="1.0115" stroke-miterlimit="10" x1="0.093" y1="188.317" x2="29.987" y2="188.317"/>
		<path fill="none" stroke="#666666" stroke-miterlimit="10" d="M4.975,159.419h9.964c1.395,0,2.491,1.195,2.491,2.59v26.306H2.385
			v-26.207C2.484,160.715,3.58,159.419,4.975,159.419z"/>
	</g>
	<g>
		<path fill="none" stroke="#0099FF" stroke-miterlimit="10" d="M7.267,197.461c0.598,0,1.296,0.498,1.296,1.195v0.099
			c0,0.598-0.498,1.195-1.296,1.195s-1.296-0.498-1.296-1.195v-0.099C5.973,197.959,6.471,197.461,7.267,197.461z"/>
		<path fill="none" stroke="#0099FF" stroke-miterlimit="10" d="M12.45,197.461c0.598,0,1.296,0.498,1.296,1.195v0.099
			c0,0.598-0.498,1.195-1.296,1.195s-1.296-0.498-1.296-1.195v-0.099C11.253,197.959,11.851,197.461,12.45,197.461z"/>
		<path fill="none" stroke="#0099FF" stroke-miterlimit="10" d="M7.267,202.74c0.598,0,1.296,0.498,1.296,1.195v0.298
			c0,0.598-0.498,1.195-1.296,1.195s-1.296-0.498-1.296-1.195v-0.298C5.973,203.24,6.471,202.74,7.267,202.74z"/>
		<path fill="none" stroke="#0099FF" stroke-miterlimit="10" d="M12.45,202.74c0.598,0,1.296,0.498,1.296,1.195v0.298
			c0,0.598-0.498,1.195-1.296,1.195s-1.296-0.498-1.296-1.195v-0.298C11.253,203.24,11.851,202.74,12.45,202.74z"/>
		<path fill="none" stroke="#0099FF" stroke-miterlimit="10" d="M17.431,203.738h8.37c0.897,0,1.794,1.096,1.794,1.993v15.844"/>
		
			<line fill="none" stroke="#0099FF" stroke-width="1.0115" stroke-miterlimit="10" x1="0.093" y1="221.275" x2="29.987" y2="221.275"/>
		<path fill="none" stroke="#0099FF" stroke-miterlimit="10" d="M4.975,192.377h9.964c1.395,0,2.491,1.195,2.491,2.59v26.306H2.385
			v-26.207C2.484,193.673,3.58,192.377,4.975,192.377z"/>
	</g>
	<g>
		<path fill="none" stroke="#666666" stroke-width="1.0082" stroke-miterlimit="10" d="M9.445,236.081
			c5.005,0,8.945,4.153,8.945,9.052s-4.046,9.052-8.945,9.052S0.5,250.032,0.5,245.133C0.287,240.129,4.44,236.081,9.445,236.081z"
			/>
		<path fill="none" stroke="#666666" stroke-width="1.0082" stroke-miterlimit="10" d="M22.437,236.081
			c5.005,0,8.945,4.153,8.945,9.052s-4.046,9.052-8.945,9.052s-8.945-4.153-8.945-9.052
			C13.492,240.234,17.432,236.081,22.437,236.081z"/>
		<path fill="none" stroke="#666666" stroke-width="1.0082" stroke-miterlimit="10" d="M15.942,225.326
			c5.005,0,8.945,4.153,8.945,9.052s-4.046,9.052-8.945,9.052s-8.945-4.153-8.945-9.052C6.889,229.48,10.937,225.326,15.942,225.326
			z"/>
	</g>
	<g>
		<path fill="none" stroke="#0099FF" stroke-width="1.0082" stroke-miterlimit="10" d="M9.445,269.074
			c5.005,0,8.945,4.153,8.945,9.052s-4.046,9.052-8.945,9.052S0.5,283.025,0.5,278.127C0.287,273.122,4.44,269.074,9.445,269.074z"
			/>
		<path fill="none" stroke="#0099FF" stroke-width="1.0082" stroke-miterlimit="10" d="M22.437,269.074
			c5.005,0,8.945,4.153,8.945,9.052s-4.046,9.052-8.945,9.052s-8.945-4.153-8.945-9.052
			C13.492,273.227,17.432,269.074,22.437,269.074z"/>
		<path fill="none" stroke="#0099FF" stroke-width="1.0082" stroke-miterlimit="10" d="M15.942,258.32
			c5.005,0,8.945,4.153,8.945,9.052s-4.046,9.052-8.945,9.052s-8.945-4.153-8.945-9.052C6.889,262.473,10.937,258.32,15.942,258.32z
			"/>
	</g>
	<g>
		<polyline fill="none" stroke="#666666" stroke-miterlimit="10" points="24.513,304.849 24.513,307.729 26.001,309.813 		"/>
		<path fill="none" stroke="#666666" stroke-miterlimit="10" d="M24.214,302.765c2.779,0,5.161,2.283,5.161,5.161
			c0,2.878-2.283,5.161-5.161,5.161s-5.161-2.283-5.161-5.161C19.152,305.048,21.435,302.765,24.214,302.765z"/>
		<line fill="none" stroke="#666666" stroke-miterlimit="10" x1="15.977" y1="299.192" x2="19.351" y2="295.122"/>
		<line fill="none" stroke="#666666" stroke-miterlimit="10" x1="12.999" y1="299.192" x2="16.373" y2="295.221"/>
		<line fill="none" stroke="#666666" stroke-miterlimit="10" x1="2.974" y1="304.255" x2="6.944" y2="304.155"/>
		<line fill="none" stroke="#666666" stroke-miterlimit="10" x1="2.974" y1="301.277" x2="9.921" y2="301.277"/>
		<rect x="0.492" y="295.122" fill="none" stroke="#666666" stroke-miterlimit="10" width="23.921" height="4.07"/>
		<path fill="none" stroke="#666666" stroke-miterlimit="10" d="M16.969,309.217H2.974c-1.291,0-2.482-0.992-2.482-2.382V294.13
			c0-1.291,1.092-2.978,2.283-2.978h19.256c1.291,0,2.382,1.588,2.382,2.978v6.55"/>
	</g>
	<g>
		<polyline fill="none" stroke="#0099FF" stroke-miterlimit="10" points="24.498,330.848 24.498,333.727 25.986,335.811 		"/>
		<path fill="none" stroke="#0099FF" stroke-miterlimit="10" d="M24.199,328.764c2.779,0,5.161,2.283,5.161,5.161
			c0,2.878-2.283,5.161-5.161,5.161s-5.161-2.283-5.161-5.161C19.137,331.047,21.42,328.764,24.199,328.764z"/>
		<line fill="none" stroke="#0099FF" stroke-miterlimit="10" x1="15.962" y1="325.191" x2="19.335" y2="321.121"/>
		<line fill="none" stroke="#0099FF" stroke-miterlimit="10" x1="12.984" y1="325.191" x2="16.357" y2="321.22"/>
		<line fill="none" stroke="#0099FF" stroke-miterlimit="10" x1="2.958" y1="330.253" x2="6.928" y2="330.153"/>
		<line fill="none" stroke="#0099FF" stroke-miterlimit="10" x1="2.958" y1="327.275" x2="9.906" y2="327.275"/>
		<rect x="0.476" y="321.121" fill="none" stroke="#0099FF" stroke-miterlimit="10" width="23.921" height="4.07"/>
		<path fill="none" stroke="#0099FF" stroke-miterlimit="10" d="M16.954,335.215H2.958c-1.291,0-2.482-0.992-2.482-2.382v-12.705
			c0-1.291,1.092-2.978,2.283-2.978h19.256c1.291,0,2.382,1.588,2.382,2.978v6.55"/>
	</g>
	<g>
		<circle fill="none" stroke="#666666" stroke-miterlimit="10" cx="12.482" cy="-187.357" r="12"/>
		<path fill="none" stroke="#666666" stroke-miterlimit="10" d="M5.352-191.941L5.352-191.941c0-1.406,1.14-2.546,2.546-2.546
			s2.547,1.14,2.547,2.547c0,1.062-0.651,1.971-1.575,2.353c0.106,0.324,0.233,0.639,0.374,0.946
			c0.912,1.993,2.518,3.597,4.506,4.515c0.313,0.144,0.633,0.274,0.964,0.383c0.382-0.924,1.291-1.576,2.353-1.576
			c1.406,0,2.547,1.141,2.547,2.547c0,1.407-1.14,2.547-2.547,2.547c-0.962,0-1.891-0.129-2.785-0.347
			c0.002,0.002,0.003,0.004,0.005,0.007c-0.033-0.008-0.063-0.022-0.096-0.031c-0.485-0.122-0.959-0.272-1.419-0.453
			c-0.012-0.005-0.025-0.009-0.037-0.014c-0.977-0.389-1.885-0.908-2.712-1.532c-0.022-0.017-0.045-0.033-0.067-0.05
			c-0.825-0.632-1.562-1.371-2.193-2.196c-0.005-0.007-0.01-0.014-0.015-0.02c-0.956-1.256-1.662-2.709-2.049-4.291l0,0l0,0
			C5.481-190.049,5.352-190.978,5.352-191.941L5.352-191.941L5.352-191.941L5.352-191.941L5.352-191.941L5.352-191.941z"/>
	</g>
	<g>
		<circle fill="none" stroke="#666666" stroke-miterlimit="10" cx="15.668" cy="-156.115" r="15"/>
		<g>
			<rect x="8.981" y="-158.084" fill="#666666" width="13.374" height="1"/>
			<rect x="8.981" y="-154.208" fill="#666666" width="13.374" height="1"/>
			<rect x="15.117" y="-158.334" fill="#666666" width="1" height="10.139"/>
			
				<rect x="10.054" y="-161.36" transform="matrix(-0.5883 -0.8086 0.8086 -0.5883 151.6935 -244.3797)" fill="#666666" width="7.169" height="1.111"/>
			
				<rect x="13.993" y="-161.371" transform="matrix(0.5883 -0.8086 0.8086 0.5883 137.2764 -51.9909)" fill="#666666" width="7.169" height="1.111"/>
		</g>
	</g>
	<g>
		<circle fill="none" stroke="#0099FF" stroke-miterlimit="10" cx="15.668" cy="-121.864" r="15"/>
		<g>
			<rect x="8.981" y="-123.832" fill="#0099FF" width="13.374" height="1"/>
			<rect x="8.981" y="-119.956" fill="#0099FF" width="13.374" height="1"/>
			<rect x="15.117" y="-124.082" fill="#0099FF" width="1" height="10.139"/>
			
				<rect x="10.055" y="-127.109" transform="matrix(-0.5883 -0.8086 0.8086 -0.5883 123.998 -189.9787)" fill="#0099FF" width="7.169" height="1.111"/>
			
				<rect x="13.993" y="-127.118" transform="matrix(0.5883 -0.8086 0.8086 0.5883 109.578 -37.8895)" fill="#0099FF" width="7.169" height="1.111"/>
		</g>
	</g>
	<g>
		<g>
			<path fill="#666666" d="M0-99.641v6.85h1v-6.85c0-1.461,1.154-2.65,2.573-2.65H10.5v-1H3.573C1.603-103.291,0-101.653,0-99.641z"
				/>
			<path fill="#666666" d="M1-77.941v-6.85H0v6.85c0,2.013,1.603,3.65,3.573,3.65H10.5v-1H3.573C2.154-75.291,1-76.48,1-77.941z"/>
			<path fill="#666666" d="M25.427-103.291H18.5v1h6.927c1.419,0,2.573,1.189,2.573,2.65v6.85h1v-6.85
				C29-101.653,27.397-103.291,25.427-103.291z"/>
			<path fill="#666666" d="M28-77.941c0,1.461-1.154,2.65-2.573,2.65H18.5v1h6.927c1.97,0,3.573-1.637,3.573-3.65v-6.85h-1V-77.941z
				"/>
		</g>
		<rect y="-89.249" fill="#666666" width="29" height="1.042"/>
	</g>
	<g>
		<g>
			<path fill="#0099FF" d="M0-67.641v6.85h1v-6.85c0-1.461,1.154-2.65,2.573-2.65H10.5v-1H3.573C1.603-71.291,0-69.653,0-67.641z"/>
			<path fill="#0099FF" d="M1-45.941v-6.85H0v6.85c0,2.013,1.603,3.65,3.573,3.65H10.5v-1H3.573C2.154-43.291,1-44.48,1-45.941z"/>
			<path fill="#0099FF" d="M25.427-71.291H18.5v1h6.927c1.419,0,2.573,1.189,2.573,2.65v6.85h1v-6.85
				C29-69.653,27.397-71.291,25.427-71.291z"/>
			<path fill="#0099FF" d="M28-45.941c0,1.461-1.154,2.65-2.573,2.65H18.5v1h6.927c1.97,0,3.573-1.637,3.573-3.65v-6.85h-1V-45.941z
				"/>
		</g>
		<rect y="-57.249" fill="#0099FF" width="29" height="1.042"/>
	</g>
	<g>
		<g>
			<path fill="#666666" d="M13.521-36.508v1.766c-4.52,0.565-8.138,4.088-8.888,8.664H2.931l0.014-0.096
				C3.75-31.62,8.054-35.865,13.41-36.496L13.521-36.508 M14.521-39.291l-1.229,1.803l0,0C7.471-36.803,2.824-32.195,1.955-26.32
				L1.92-26.332l-1.766,1.254H1.83h3.689H5.52c0.369-4.802,4.235-8.598,9.002-8.739v-3.756L14.521-39.291L14.521-39.291z"/>
		</g>
		<g>
			<path fill="#666666" d="M26.727-25.902c0.011,0.111,0.021,0.231,0.03,0.36c0.018,0.253,0.027,1.078,0.028,1.205l0,0v0.013
				c0,6.109-4.461,11.329-10.377,12.142l-0.079,0.013v-1.772c4.221-0.643,7.671-3.91,8.556-8.228l0.193-0.942l-0.934-0.229
				l-4.567-1.122L26.727-25.902 M27.57-27.092l-12.581,2.531l8.916,2.19c-0.848,4.137-4.331,7.285-8.576,7.529v0.018l-0.002-0.007
				v5.474l1.229-1.803l-0.011-0.033c6.347-0.871,11.241-6.416,11.241-13.132c0-0.005,0-0.009,0-0.013v-0.001
				c0,0-0.007-0.956-0.031-1.276C27.687-26.554,27.57-27.092,27.57-27.092L27.57-27.092z"/>
		</g>
		<g>
			<path fill="#666666" d="M14.989-29.036l2.457,2.508l-1.111,0.254l-0.632-0.645l-0.714-0.729l-0.714,0.729l-1.626,1.659
				l-0.686,0.7l0.686,0.7l1.626,1.66l0.714,0.729l0.714-0.729l0.567-0.579l1.07,0.295l-2.352,2.4l-4.385-4.475L14.989-29.036
				 M14.989-30.465l-5.785,5.904l5.695,5.811l0.091,0.093l4.255-4.342L15.969-23.9l-0.979,0.999l-1.626-1.66l1.626-1.659
				l1.023,1.045l3.399-0.776L14.989-30.465L14.989-30.465z"/>
		</g>
	</g>
	<g>
		<g>
			<path fill="#0099FF" d="M13.521-3.508v1.766c-4.52,0.565-8.138,4.088-8.888,8.664H2.931l0.014-0.096
				C3.75,1.38,8.054-2.865,13.41-3.496L13.521-3.508 M14.521-6.291l-1.229,1.803l0,0C7.471-3.803,2.824,0.805,1.955,6.68L1.92,6.668
				L0.154,7.922H1.83h3.689H5.52c0.369-4.802,4.235-8.598,9.002-8.739v-3.756L14.521-6.291L14.521-6.291z"/>
		</g>
		<g>
			<path fill="#0099FF" d="M26.727,7.098c0.011,0.111,0.021,0.231,0.03,0.36c0.018,0.253,0.027,1.078,0.028,1.205l0,0v0.013
				c0,6.109-4.461,11.329-10.377,12.142l-0.079,0.013v-1.772c4.221-0.643,7.671-3.91,8.556-8.228l0.193-0.942L24.144,9.66
				l-4.567-1.122L26.727,7.098 M27.57,5.908L14.989,8.439l8.916,2.19c-0.848,4.137-4.331,7.285-8.576,7.529v0.018l-0.002-0.007
				v5.474l1.229-1.803l-0.011-0.033c6.347-0.871,11.241-6.416,11.241-13.132c0-0.005,0-0.009,0-0.013V8.661
				c0,0-0.007-0.956-0.031-1.276C27.687,6.446,27.57,5.908,27.57,5.908L27.57,5.908z"/>
		</g>
		<g>
			<path fill="#0099FF" d="M14.989,3.964l2.457,2.508l-1.111,0.254l-0.632-0.645l-0.714-0.729l-0.714,0.729L12.649,7.74l-0.686,0.7
				l0.686,0.7l1.626,1.66l0.714,0.729l0.714-0.729l0.567-0.579l1.07,0.295l-2.352,2.4l-4.385-4.475L14.989,3.964 M14.989,2.535
				L9.204,8.439l5.695,5.811l0.091,0.093l4.255-4.342L15.969,9.1l-0.979,0.999l-1.626-1.66L14.99,6.78l1.023,1.045l3.399-0.776
				L14.989,2.535L14.989,2.535z"/>
		</g>
	</g>
	<g>
		<polygon fill="none" stroke="#666666" stroke-miterlimit="10" points="0.492,34.482 12.999,27.26 25.507,34.482 25.507,48.924 
			12.999,56.146 0.492,48.924 		"/>
		<polygon fill="#666666" points="23.658,36.174 23.137,35.32 13.025,41.489 2.933,35.32 2.412,36.174 12.549,42.359 12.549,53.626 
			13.549,53.626 13.549,42.341 		"/>
	</g>
	<g>
		<polygon fill="none" stroke="#0099FF" stroke-miterlimit="10" points="0.492,67.418 12.999,60.197 25.507,67.418 25.507,81.861 
			12.999,89.082 0.492,81.861 		"/>
		<polygon fill="#0099FF" points="23.658,69.11 23.137,68.257 13.025,74.426 2.933,68.257 2.412,69.11 12.549,75.295 12.549,86.563 
			13.549,86.563 13.549,75.277 		"/>
	</g>
	<g>
		<path fill="none" stroke="#666666" stroke-linecap="round" stroke-miterlimit="10" d="M26.364,116.812
			c-2.708,3.309-6.818,5.415-11.332,5.415c-7.52,0-13.738-5.717-14.541-13.037 M1.797,101.468c2.307-4.914,7.32-8.324,13.237-8.324
			c8.023,0,14.541,6.519,14.541,14.542c0,0.702,0,1.404-0.1,2.006"/>
		<polyline fill="none" stroke="#666666" stroke-linecap="round" stroke-linejoin="round" stroke-miterlimit="10" points="
			0.493,109.19 6.309,109.19 9.218,115.609 12.426,100.064 16.639,116.812 20.248,104.276 22.554,109.892 29.218,109.792 		"/>
	</g>
	<g>
		<path fill="none" stroke="#0099FF" stroke-linecap="round" stroke-miterlimit="10" d="M26.364,149.877
			c-2.708,3.309-6.818,5.415-11.332,5.415c-7.52,0-13.738-5.717-14.541-13.037 M1.797,134.533c2.307-4.914,7.32-8.324,13.237-8.324
			c8.023,0,14.541,6.519,14.541,14.542c0,0.702,0,1.404-0.1,2.006"/>
		<polyline fill="none" stroke="#0099FF" stroke-linecap="round" stroke-linejoin="round" stroke-miterlimit="10" points="
			0.493,142.255 6.309,142.255 9.218,148.674 12.426,133.129 16.639,149.877 20.248,137.341 22.554,142.957 29.218,142.857 		"/>
	</g>
</g>
<g>
	<path fill="#333333" d="M54.9,557.583L54.9,557.583L54.9,557.583z"/>
	<path fill="#333333" d="M51.4,557.583L51.4,557.583L51.4,557.583z"/>
	<rect x="41" y="551.083" fill="#333333" width="5.3" height="17.199"/>
	<polygon fill="#333333" points="38.7,556.584 42.4,546.783 46.5,546.783 42.8,556.584 	"/>
	<path fill="#333333" d="M61.499,551.083h-1.1v-4.301h-5.3v4.301h-8.001v1.699h8.001v13.1c0,0.4-0.3,0.7-0.7,0.7h-2.1v1.699H55.2
		h2.3h0.4c1.4,0,2.6-1.1,2.6-2.5v-13h1.1v-1.699L61.499,551.083L61.499,551.083z"/>
	<path fill="#0099FF" d="M54.299,558.783L54.299,558.783c-1.499-0.7-2.8-1.9-3.601-3.4l0,0l0,0l0,0l0,0l0,0l0,0
		c-0.799,1.499-2.001,2.7-3.5,3.4l0,0l0,0l0,0c1.499,0.7,2.8,1.9,3.601,3.4l0,0C51.499,560.683,52.8,559.483,54.299,558.783
		L54.299,558.783z"/>
	<g>
		<path fill="#333333" d="M81.3,566.984L81.3,566.984L81.3,566.984z"/>
		<path fill="#333333" d="M81.1,565.483l-0.099-0.3C81,565.283,81,565.383,81.1,565.483z"/>
		<polygon fill="#333333" points="87.899,550.483 84.399,550.784 83.499,547.383 87,547.084 		"/>
		<rect x="69.3" y="548.783" fill="#333333" width="5.3" height="1.699"/>
		<rect x="65.899" y="553.183" fill="#333333" width="8.6" height="1.699"/>
		<rect x="65.899" y="557.682" fill="#333333" width="8.6" height="1.699"/>
		<polygon fill="#333333" points="66,552.683 68.6,546.783 72.5,546.783 69.9,552.683 		"/>
		<path fill="#333333" d="M72.5,554.183v7.6v3.7c0,0.5,0.5,0.999,1,0.999h1.4v1.9h-3.7c0,0-0.099,0-0.2,0c-1.9,0-3.5-1.501-3.5-3.4
			v-10.699h5C72.5,554.283,72.5,554.183,72.5,554.183z"/>
		<polygon fill="#333333" points="88.4,558.184 75.399,559.584 75.399,557.682 88.4,556.283 		"/>
		<polygon fill="#333333" points="88.4,553.483 75.399,554.883 75.399,553.084 88.4,551.682 		"/>
		<polygon fill="#333333" points="88.4,562.883 75.799,568.383 75.799,566.482 88.4,560.983 		"/>
		<path fill="#333333" d="M87.7,566.482h-0.3l0,0c-0.4,0-0.799-0.3-0.799-0.7l-0.9-3.9l-3.601-15.2h-5.3l4.499,18.899l0.099,0.3
			c0.4,1.4,1.7,2.5,3.3,2.5h2.5H88.5v-1.9L87.7,566.482L87.7,566.482z"/>
	</g>
	<g>
		<rect x="102.199" y="566.183" fill="#333333" width="13.299" height="2.199"/>
		<polygon fill="#333333" points="109.899,567.182 111.9,552.483 116,552.683 113.999,567.483 		"/>
		<rect x="92.9" y="551.183" fill="#333333" width="9.401" height="1.699"/>
		<rect x="102.899" y="549.584" fill="#333333" width="13.101" height="2.199"/>
		<polygon fill="#333333" points="102.199,559.183 93.199,562.584 92.9,560.883 101.999,557.484 		"/>
		<path fill="#333333" d="M95.499,546.783v16.9v2.3c0,0.4-0.5,0.7-1,0.7h-1.301v1.699h3.7c0,0,0.099,0,0.2,0
			c2.001,0,3.5-1.1,3.5-2.5v-19.099H95.499z"/>
		<polygon fill="#333333" points="103,553.483 106.7,552.083 108.999,564.382 105.299,565.683 		"/>
		<rect x="107" y="546.683" fill="#333333" width="5.199" height="4.1"/>
	</g>
	<g>
		<path fill="#0099FF" d="M20.699,542.583L20.699,542.583l-5.6,4.8l0,0l0,0l0,0l0,0l0,0c2.201,4.4,5.8,8,10.299,10.2l0,0l4.8-5.5
			l0,0C26.2,549.884,22.799,546.584,20.699,542.583z"/>
		<path fill="#0099FF" d="M9.5,542.583c-2.1,3.999-5.5,7.3-9.5,9.5l0,0l4.8,5.5l0,0c4.4-2.199,8.1-5.8,10.299-10.2l0,0L9.5,542.583z
			"/>
		<path fill="#0099FF" d="M15.1,567.783L15.1,567.783c-2.201-4.4-5.8-8-10.299-10.2l0,0l-4.8,5.5l0,0c4.1,2.1,7.4,5.399,9.599,9.5
			L15.1,567.783L15.1,567.783L15.1,567.783L15.1,567.783L15.1,567.783z"/>
		<path fill="#0099FF" d="M20.699,572.583c2.1-3.999,5.5-7.4,9.5-9.5l0,0l-4.8-5.5l0,0c-4.4,2.199-8.1,5.8-10.299,10.2l0,0
			L20.699,572.583L20.699,572.583z"/>
	</g>
</g>
<g>
	<path fill="#EDF7FF" d="M38,575.583c20.987,0,38,17.013,38,38s-17.013,38-38,38s-38-17.013-38-38S17.013,575.583,38,575.583z"/>
	<path fill="none" stroke="#008CFF" stroke-miterlimit="10" d="M52.158,633.584c0-3.776-3.013-6.836-6.729-6.836"/>
	<path fill="none" stroke="#008CFF" stroke-miterlimit="10" d="M22.998,633.219c0-3.709,3.069-6.715,6.854-6.715"/>
	<path fill="none" stroke="#008CFF" stroke-miterlimit="10" d="M30.724,633.219c0-3.709,3.069-6.715,6.854-6.715
		c3.785,0,6.854,3.006,6.854,6.715"/>
	<path fill="none" stroke="#008CFF" stroke-miterlimit="10" d="M37.703,616.981v9.522"/>
	<path fill="none" stroke="#008CFF" stroke-miterlimit="10" d="M43.186,619.179v4.151"/>
	<path fill="none" stroke="#008CFF" stroke-miterlimit="10" d="M31.97,619.423v4.151"/>
	<path fill="none" stroke="#008CFF" stroke-linecap="round" stroke-miterlimit="10" d="M37.703,591.1l5.732,7.325v11.965
		l3.489,5.372v3.418H41.69"/>
	<path fill="none" stroke="#008CFF" stroke-linecap="round" stroke-miterlimit="10" d="M37.703,591.1l-5.732,7.325v11.965
		l-3.489,5.372v3.418h5.234"/>
</g>
<g>
	<path fill="#EDF7FF" d="M38.063,654.583c20.987,0,38,17.013,38,38s-17.013,38-38,38s-38-17.013-38-38
		C0.063,671.596,17.076,654.583,38.063,654.583z"/>
	<g>
		<path fill="none" stroke="#008CFF" stroke-linecap="square" stroke-miterlimit="10" d="M53.504,690.508c1.771,0,2.624,0,2.624,0
			c3.004,0,5.439,2.406,5.439,5.375c0,2.968-2.435,5.375-5.439,5.375c0,0-0.841,0-2.624,0"/>
		<path fill="none" stroke="#008CFF" stroke-linecap="square" stroke-miterlimit="10" d="M18.584,690.508c1.771,0,3.144,0,3.144,0
			c3.004,0,5.439,2.406,5.439,5.375c0,2.968-2.435,5.375-5.439,5.375c0,0-1.386,0-3.169,0"/>
		<path fill="none" stroke="#008CFF" stroke-linecap="square" stroke-miterlimit="10" d="M30.929,712.966c0-1.75,0-3.107,0-3.107
			c0-2.968,2.406-5.375,5.375-5.375s5.375,2.407,5.375,5.375c0,0,0,1.37,0,3.132"/>
		<path fill="none" stroke="#008CFF" stroke-linecap="square" stroke-miterlimit="10" d="M30.929,678.146c0-1.75,0-2.688,0-2.688
			c0-2.969,2.406-5.375,5.375-5.375s5.375,2.407,5.375,5.375c0,0,0,0.926,0,2.688"/>
		<path fill="none" stroke="#008CFF" stroke-linecap="square" stroke-miterlimit="10" d="M53.504,701.334c0,6.461,0,11.749,0,11.749
			s-5.35,0-11.825,0 M30.929,713.083c-0.214,0-0.071,0-0.283,0c-6.611,0-12.08,0-12.08,0s0-5.261,0-11.7 M18.567,690.447
			C18.567,690.238,18.567,690.654,18.567,690.447c0-6.709,0-12.301,0-12.301s5.723,0,12.363,0 M41.805,678.146
			c0.162,0-0.162,0-0.162,0c6.512,0,11.862,0,11.862,0s0,5.62,0,12.352c0,0,0-0.207,0,0"/>
	</g>
</g>
<g>
	<path fill="#EDF7FF" d="M38,733.583c20.987,0,38,17.013,38,38s-17.013,38-38,38s-38-17.013-38-38S17.013,733.583,38,733.583z"/>
	<path fill="#008CFF" d="M51.438,756.364h1.094v19.25h-1.094V756.364z"/>
	<path fill="#008CFF" d="M22.469,767.677h1.094v19.25h-1.094V767.677z"/>
	<path fill="#008CFF" d="M36.938,749.583h1.125v43h-1.125V749.583z"/>
	<circle fill="none" stroke="#008CFF" stroke-width="0.9816" stroke-miterlimit="10" cx="51.984" cy="780.708" r="5"/>
	<circle fill="none" stroke="#008CFF" stroke-width="0.9816" stroke-miterlimit="10" cx="23.016" cy="762.677" r="5"/>
</g>
<g>
	<path fill="#EDF7FF" d="M38,812.583c20.987,0,38,17.013,38,38s-17.013,38-38,38s-38-17.013-38-38S17.013,812.583,38,812.583z"/>
	<path fill="none" stroke="#008CFF" stroke-miterlimit="10" d="M34.155,851.911c0-1.065,0-1.945,0-1.945
		c0-2.154,1.722-3.9,3.845-3.9s3.845,1.746,3.845,3.9c0,0,0,0.877,0,1.94"/>
	<path fill="none" stroke="#008CFF" stroke-miterlimit="10" d="M32.563,851.958h11.406v7.281H32.563V851.958z"/>
	<path fill="none" stroke="#008CFF" stroke-miterlimit="10" d="M58.422,860.333c1.976,0,3.578,1.623,3.578,3.625
		s-1.602,3.625-3.578,3.625c-1.976,0-3.578-1.623-3.578-3.625S56.446,860.333,58.422,860.333z"/>
	<path fill="none" stroke="#008CFF" stroke-miterlimit="10" d="M17.578,860.333c1.976,0,3.578,1.623,3.578,3.625
		s-1.602,3.625-3.578,3.625S14,865.96,14,863.958S15.602,860.333,17.578,860.333z"/>
	<path fill="none" stroke="#008CFF" stroke-miterlimit="10" d="M38,828.583c1.985,0,3.594,1.623,3.594,3.625
		s-1.609,3.625-3.594,3.625s-3.594-1.623-3.594-3.625S36.015,828.583,38,828.583z"/>
	<path fill="none" stroke="#008CFF" stroke-miterlimit="10" d="M23.282,863.818h29.171"/>
	<path fill="none" stroke="#008CFF" stroke-miterlimit="10" d="M41.315,837.065l13.831,21.911"/>
	<path fill="none" stroke="#008CFF" stroke-miterlimit="10" d="M34.685,837.19l-13.79,21.786"/>
</g>
<g>
	<path fill="#EDF7FF" d="M38,891.583c20.987,0,38,17.013,38,38s-17.013,38-38,38s-38-17.013-38-38S17.013,891.583,38,891.583z"/>
	<path fill="none" stroke="#008CFF" stroke-miterlimit="10" d="M28.839,930.083l7.347,7.414l11.021-11.12"/>
	<path fill="none" stroke="#008CFF" stroke-miterlimit="10" d="M55.98,914.684c-0.005-0.267-0.118-0.521-0.314-0.702
		c-0.196-0.182-0.458-0.274-0.723-0.259c-8.354,0.518-16.054-4.751-16.378-4.975c-0.334-0.232-0.777-0.232-1.111,0
		c-0.324,0.224-8.026,5.492-16.378,4.975c-0.266-0.017-0.527,0.077-0.723,0.259c-0.196,0.181-0.309,0.435-0.314,0.702
		c-0.074,4.339-0.001,18.046,0,18.18c0,2.278,0.67,4.46,2.049,6.671c0.191,0.306,0.629,0.902,2.23,2.544
		c1.585,1.627,6.628,5.684,6.841,5.856c0.012,0.01,0.025,0.019,0.038,0.029l3.299,2.398c0.997,0.781,2.243,1.214,3.517,1.218
		c1.266-0.004,2.512-0.437,3.51-1.218l3.299-2.398c0.013-0.009,0.025-0.019,0.038-0.029c0.214-0.172,5.256-4.229,6.841-5.856
		c1.601-1.642,2.039-2.239,2.23-2.544c1.379-2.211,2.049-4.393,2.049-6.666C55.981,932.73,56.054,919.023,55.98,914.684
		L55.98,914.684z"/>
</g>
<g>
	<path fill="#EDF7FF" d="M38,970.583c20.987,0,38,17.013,38,38c0,20.987-17.013,38-38,38s-38-17.013-38-38
		C0,987.596,17.013,970.583,38,970.583z"/>
	<path fill="#008CFF" d="M52.906,1026.114h0.813v7.469h-0.813V1026.114z"/>
	<path fill="#008CFF" d="M49.594,1029.427h7.438v0.844h-7.438V1029.427z"/>
	<path fill="none" stroke="#008CFF" stroke-miterlimit="10" d="M28.302,1002.946l9.187,27.759l10.354-28.142"/>
	<path fill="none" stroke="#008CFF" stroke-miterlimit="10" d="M23.199,989.581l5.104,13.365l9.166-12.926l10.228,12.926
		l5.104-13.365"/>
	<path fill="none" stroke="#008CFF" stroke-miterlimit="10" d="M14.012,1002.946h47.976"/>
	<path fill="none" stroke="#008CFF" stroke-miterlimit="10" d="M14.012,1002.946l8.166-13.365h30.623l9.187,13.365l-24.499,29.814
		L14.012,1002.946z"/>
</g>
<path fill="none" stroke="#666666" stroke-miterlimit="10" d="M8.975,426.117l6.273,7.188h0.653l6.273-7.188"/>
<line fill="none" stroke="#666666" stroke-miterlimit="10" x1="15.639" y1="416.185" x2="15.639" y2="428.731"/>
<g>
	<circle fill="none" stroke="#666666" stroke-miterlimit="10" cx="15.574" cy="358.131" r="15"/>
	<rect x="15.074" y="343.131" fill="#666666" width="1" height="3.664"/>
	<rect x="15.074" y="369.467" fill="#666666" width="1" height="3.664"/>
	<rect x="26.91" y="358.148" fill="#666666" width="3.664" height="1"/>
	<rect x="0.574" y="358.148" fill="#666666" width="3.664" height="1"/>
	<polygon fill="none" stroke="#666666" stroke-miterlimit="10" points="7.931,365.622 13.763,356.732 23.041,351.038 16.952,360.18 
			"/>
</g>
<path fill="none" stroke="#666666" stroke-miterlimit="10" d="M22.947,411.049c4.554,2.575,7.627,7.462,7.627,13.066
	c0,8.284-6.716,15-15,15s-15-6.716-15-15c0-5.603,3.072-10.489,7.624-13.064"/>
<path fill="none" stroke="#0099FF" stroke-miterlimit="10" d="M8.975,458.2l6.273,7.188h0.653l6.273-7.188"/>
<line fill="none" stroke="#0099FF" stroke-miterlimit="10" x1="15.639" y1="448.269" x2="15.639" y2="460.814"/>
<path fill="none" stroke="#0099FF" stroke-miterlimit="10" d="M22.947,443.132c4.554,2.575,7.627,7.462,7.627,13.066
	c0,8.284-6.716,15-15,15s-15-6.716-15-15c0-5.603,3.072-10.489,7.624-13.064"/>
<g>
	<circle fill="none" stroke="#0099FF" stroke-miterlimit="10" cx="15.574" cy="392.098" r="15"/>
	<rect x="15.074" y="377.098" fill="#0099FF" width="1" height="3.664"/>
	<rect x="15.074" y="403.434" fill="#0099FF" width="1" height="3.664"/>
	<rect x="26.91" y="392.115" fill="#0099FF" width="3.664" height="1"/>
	<rect x="0.574" y="392.115" fill="#0099FF" width="3.664" height="1"/>
	<polygon fill="none" stroke="#0099FF" stroke-miterlimit="10" points="7.931,399.589 13.763,390.699 23.041,385.004 
		16.952,394.147 	"/>
</g>
<path fill="none" stroke="#0099FF" stroke-miterlimit="10" d="M15.527,516.704"/>
<g>
	<path fill="none" stroke="#0099FF" stroke-width="0.9288" stroke-miterlimit="10" d="M10.482,510.079
		c0.027-0.01,0.053-0.019,0.08-0.029c1.586-0.57,3.295-0.881,5.077-0.881c8.284,0,15,6.716,15,15c0,2.071-0.42,4.044-1.179,5.839"/>
	<path fill="none" stroke="#0099FF" stroke-width="0.9288" stroke-miterlimit="10" d="M21.615,537.932
		c-0.028,0.012-0.055,0.024-0.083,0.036c-1.809,0.773-3.801,1.202-5.893,1.202c-8.284,0-15-6.716-15-15
		c0-1.836,0.33-3.594,0.933-5.219"/>
	<circle fill="none" stroke="#0099FF" stroke-width="0.8574" stroke-miterlimit="10" cx="5.269" cy="513.613" r="3"/>
	<circle fill="none" stroke="#0099FF" stroke-width="0.8574" stroke-miterlimit="10" cx="27.086" cy="535.464" r="3"/>
	<circle fill="none" stroke="#0099FF" stroke-miterlimit="10" cx="15.521" cy="522.397" r="4.922"/>
	<path fill="none" stroke="#0099FF" stroke-miterlimit="10" d="M3.981,533.609c2.331-3.641,6.629-6.083,11.545-6.083
		c4.347,0,8.21,1.909,10.658,4.867"/>
</g>
<path fill="none" stroke="#666666" stroke-miterlimit="10" d="M15.527,482.912"/>
<g>
	<path fill="none" stroke="#666666" stroke-width="0.9288" stroke-miterlimit="10" d="M10.482,476.098
		c0.027-0.01,0.053-0.019,0.08-0.029c1.586-0.57,3.295-0.881,5.077-0.881c8.284,0,15,6.716,15,15c0,2.071-0.42,4.044-1.179,5.839"/>
	<path fill="none" stroke="#666666" stroke-width="0.9288" stroke-miterlimit="10" d="M21.615,503.95
		c-0.028,0.012-0.055,0.024-0.083,0.036c-1.809,0.773-3.801,1.202-5.893,1.202c-8.284,0-15-6.716-15-15
		c0-1.836,0.33-3.594,0.933-5.219"/>
	<circle fill="none" stroke="#666666" stroke-width="0.8574" stroke-miterlimit="10" cx="5.269" cy="479.632" r="3"/>
	<circle fill="none" stroke="#666666" stroke-width="0.8574" stroke-miterlimit="10" cx="27.086" cy="501.483" r="3"/>
	<circle fill="none" stroke="#666666" stroke-miterlimit="10" cx="15.521" cy="488.416" r="4.922"/>
	<path fill="none" stroke="#666666" stroke-miterlimit="10" d="M3.981,499.628c2.331-3.641,6.629-6.083,11.545-6.083
		c4.347,0,8.21,1.909,10.658,4.867"/>
</g>
<path opacity="0.25" enable-background="new    " d="M4,1696.101h16c2.209,0,4,1.791,4,4v42c0,2.209-1.791,4-4,4H4
	c-2.209,0-4-1.791-4-4v-42C0,1697.892,1.791,1696.101,4,1696.101z"/>
<path fill="none" stroke="#666666" stroke-miterlimit="10" d="M6.701,1706.101L20,1720.87l-13.104,15.231"/>
<path opacity="0.25" enable-background="new    " d="M24,1753.101v42c0,2.209-1.791,4-4,4H4c-2.209,0-4-1.791-4-4v-42
	c0-2.209,1.791-4,4-4h16C22.209,1749.101,24,1750.892,24,1753.101z"/>
<path fill="none" stroke="#666666" stroke-miterlimit="10" d="M17.104,1789.101L4,1773.87l13.299-14.769"/>
<path opacity="0.25" enable-background="new    " d="M4,1802.101h16c2.209,0,4,1.791,4,4v42c0,2.209-1.791,4-4,4H4
	c-2.209,0-4-1.791-4-4v-42C0,1803.892,1.791,1802.101,4,1802.101z"/>
<path fill="none" stroke="#FFFFFF" stroke-miterlimit="10" d="M6.701,1812.101L20,1826.87l-13.104,15.231"/>
<path opacity="0.25" enable-background="new    " d="M24,1859.101v42c0,2.209-1.791,4-4,4H4c-2.209,0-4-1.791-4-4v-42
	c0-2.209,1.791-4,4-4h16C22.209,1855.101,24,1856.892,24,1859.101z"/>
<path fill="none" stroke="#FFFFFF" stroke-miterlimit="10" d="M17.104,1895.101L4,1879.87l13.299-14.769"/>
<rect x="1" y="1913.903" fill="#0099FF" width="16.031" height="1.498"/>
<rect x="8.432" y="1907.385" fill="#0099FF" width="1.498" height="16.031"/>
</svg>
