<?xml version="1.0" encoding="utf-8"?>
<!-- Generator: Adobe Illustrator 17.0.0, SVG Export Plug-In . SVG Version: 6.00 Build 0)  -->
<!DOCTYPE svg PUBLIC "-//W3C//DTD SVG 1.1//EN" "http://www.w3.org/Graphics/SVG/1.1/DTD/svg11.dtd">
<svg version="1.1" id="图层_1" xmlns="http://www.w3.org/2000/svg" xmlns:xlink="http://www.w3.org/1999/xlink" x="0px" y="0px"
	 width="116px" height="926.837px" viewBox="0 0 116 926.837" enable-background="new 0 0 116 926.837" xml:space="preserve">
<g>
	<path fill="none" stroke="#666666" stroke-miterlimit="10" d="M7.267,364.347c0.598,0,1.296,0.498,1.296,1.195v0.099
		c0,0.598-0.498,1.195-1.296,1.195s-1.296-0.498-1.296-1.195v-0.099C5.973,364.845,6.471,364.347,7.267,364.347z"/>
	<path fill="none" stroke="#666666" stroke-miterlimit="10" d="M12.45,364.347c0.598,0,1.296,0.498,1.296,1.195v0.099
		c0,0.598-0.498,1.195-1.296,1.195s-1.296-0.498-1.296-1.195v-0.099C11.253,364.845,11.851,364.347,12.45,364.347z"/>
	<path fill="none" stroke="#666666" stroke-miterlimit="10" d="M7.267,369.627c0.598,0,1.296,0.498,1.296,1.195v0.298
		c0,0.598-0.498,1.195-1.296,1.195s-1.296-0.498-1.296-1.195v-0.298C5.973,370.127,6.471,369.627,7.267,369.627z"/>
	<path fill="none" stroke="#666666" stroke-miterlimit="10" d="M12.45,369.627c0.598,0,1.296,0.498,1.296,1.195v0.298
		c0,0.598-0.498,1.195-1.296,1.195s-1.296-0.498-1.296-1.195v-0.298C11.253,370.127,11.851,369.627,12.45,369.627z"/>
	<path fill="none" stroke="#666666" stroke-miterlimit="10" d="M17.431,370.625h8.37c0.897,0,1.794,1.096,1.794,1.993v15.844"/>
	
		<line fill="none" stroke="#666666" stroke-width="1.0115" stroke-miterlimit="10" x1="0.093" y1="388.162" x2="29.987" y2="388.162"/>
	<path fill="none" stroke="#666666" stroke-miterlimit="10" d="M4.975,359.264h9.964c1.395,0,2.491,1.195,2.491,2.59v26.306H2.385
		v-26.207C2.484,360.56,3.58,359.264,4.975,359.264z"/>
</g>
<g>
	<path fill="none" stroke="#0099FF" stroke-miterlimit="10" d="M7.267,397.306c0.598,0,1.296,0.498,1.296,1.195v0.099
		c0,0.598-0.498,1.195-1.296,1.195s-1.296-0.498-1.296-1.195v-0.099C5.973,397.804,6.471,397.306,7.267,397.306z"/>
	<path fill="none" stroke="#0099FF" stroke-miterlimit="10" d="M12.45,397.306c0.598,0,1.296,0.498,1.296,1.195v0.099
		c0,0.598-0.498,1.195-1.296,1.195s-1.296-0.498-1.296-1.195v-0.099C11.253,397.804,11.851,397.306,12.45,397.306z"/>
	<path fill="none" stroke="#0099FF" stroke-miterlimit="10" d="M7.267,402.585c0.598,0,1.296,0.498,1.296,1.195v0.298
		c0,0.598-0.498,1.195-1.296,1.195s-1.296-0.498-1.296-1.195v-0.298C5.973,403.085,6.471,402.585,7.267,402.585z"/>
	<path fill="none" stroke="#0099FF" stroke-miterlimit="10" d="M12.45,402.585c0.598,0,1.296,0.498,1.296,1.195v0.298
		c0,0.598-0.498,1.195-1.296,1.195s-1.296-0.498-1.296-1.195v-0.298C11.253,403.085,11.851,402.585,12.45,402.585z"/>
	<path fill="none" stroke="#0099FF" stroke-miterlimit="10" d="M17.431,403.583h8.37c0.897,0,1.794,1.096,1.794,1.993v15.844"/>
	
		<line fill="none" stroke="#0099FF" stroke-width="1.0115" stroke-miterlimit="10" x1="0.093" y1="421.12" x2="29.987" y2="421.12"/>
	<path fill="none" stroke="#0099FF" stroke-miterlimit="10" d="M4.975,392.222h9.964c1.395,0,2.491,1.195,2.491,2.59v26.306H2.385
		v-26.207C2.484,393.518,3.58,392.222,4.975,392.222z"/>
</g>
<g>
	<path fill="none" stroke="#666666" stroke-width="1.0082" stroke-miterlimit="10" d="M9.445,435.926
		c5.005,0,8.945,4.153,8.945,9.052c0,4.899-4.046,9.052-8.945,9.052S0.5,449.877,0.5,444.978
		C0.287,439.974,4.44,435.926,9.445,435.926z"/>
	<path fill="none" stroke="#666666" stroke-width="1.0082" stroke-miterlimit="10" d="M22.437,435.926
		c5.005,0,8.945,4.153,8.945,9.052c0,4.899-4.046,9.052-8.945,9.052s-8.945-4.153-8.945-9.052
		C13.492,440.079,17.432,435.926,22.437,435.926z"/>
	<path fill="none" stroke="#666666" stroke-width="1.0082" stroke-miterlimit="10" d="M15.942,425.171
		c5.005,0,8.945,4.153,8.945,9.052s-4.046,9.052-8.945,9.052s-8.945-4.153-8.945-9.052C6.889,429.325,10.937,425.171,15.942,425.171
		z"/>
</g>
<g>
	<path fill="none" stroke="#0099FF" stroke-width="1.0082" stroke-miterlimit="10" d="M9.445,468.919
		c5.005,0,8.945,4.153,8.945,9.052s-4.046,9.052-8.945,9.052S0.5,482.87,0.5,477.972C0.287,472.967,4.44,468.919,9.445,468.919z"/>
	<path fill="none" stroke="#0099FF" stroke-width="1.0082" stroke-miterlimit="10" d="M22.437,468.919
		c5.005,0,8.945,4.153,8.945,9.052s-4.046,9.052-8.945,9.052s-8.945-4.153-8.945-9.052S17.432,468.919,22.437,468.919z"/>
	<path fill="none" stroke="#0099FF" stroke-width="1.0082" stroke-miterlimit="10" d="M15.942,458.165
		c5.005,0,8.945,4.153,8.945,9.052s-4.046,9.052-8.945,9.052s-8.945-4.153-8.945-9.052C6.889,462.318,10.937,458.165,15.942,458.165
		z"/>
</g>
<g>
	<polyline fill="none" stroke="#666666" stroke-miterlimit="10" points="24.513,504.694 24.513,507.574 26.001,509.658 	"/>
	<path fill="none" stroke="#666666" stroke-miterlimit="10" d="M24.214,502.61c2.779,0,5.161,2.283,5.161,5.161
		c0,2.878-2.283,5.161-5.161,5.161s-5.161-2.283-5.161-5.161C19.152,504.893,21.435,502.61,24.214,502.61z"/>
	<line fill="none" stroke="#666666" stroke-miterlimit="10" x1="15.977" y1="499.037" x2="19.351" y2="494.967"/>
	<line fill="none" stroke="#666666" stroke-miterlimit="10" x1="12.999" y1="499.037" x2="16.373" y2="495.066"/>
	<line fill="none" stroke="#666666" stroke-miterlimit="10" x1="2.974" y1="504.1" x2="6.944" y2="504"/>
	<line fill="none" stroke="#666666" stroke-miterlimit="10" x1="2.974" y1="501.122" x2="9.921" y2="501.122"/>
	<rect x="0.492" y="494.967" fill="none" stroke="#666666" stroke-miterlimit="10" width="23.921" height="4.07"/>
	<path fill="none" stroke="#666666" stroke-miterlimit="10" d="M16.969,509.062H2.974c-1.291,0-2.482-0.992-2.482-2.382v-12.705
		c0-1.291,1.092-2.978,2.283-2.978h19.256c1.291,0,2.382,1.588,2.382,2.978v6.55"/>
</g>
<g>
	<polyline fill="none" stroke="#0099FF" stroke-miterlimit="10" points="24.498,530.693 24.498,533.572 25.986,535.656 	"/>
	<path fill="none" stroke="#0099FF" stroke-miterlimit="10" d="M24.199,528.609c2.779,0,5.161,2.283,5.161,5.161
		c0,2.878-2.283,5.161-5.161,5.161s-5.161-2.283-5.161-5.161C19.137,530.892,21.42,528.609,24.199,528.609z"/>
	<line fill="none" stroke="#0099FF" stroke-miterlimit="10" x1="15.962" y1="525.036" x2="19.335" y2="520.966"/>
	<line fill="none" stroke="#0099FF" stroke-miterlimit="10" x1="12.984" y1="525.036" x2="16.357" y2="521.065"/>
	<line fill="none" stroke="#0099FF" stroke-miterlimit="10" x1="2.958" y1="530.098" x2="6.928" y2="529.998"/>
	<line fill="none" stroke="#0099FF" stroke-miterlimit="10" x1="2.958" y1="527.12" x2="9.906" y2="527.12"/>
	<rect x="0.476" y="520.966" fill="none" stroke="#0099FF" stroke-miterlimit="10" width="23.921" height="4.07"/>
	<path fill="none" stroke="#0099FF" stroke-miterlimit="10" d="M16.954,535.06H2.958c-1.291,0-2.482-0.992-2.482-2.382v-12.705
		c0-1.291,1.092-2.978,2.283-2.978h19.256c1.291,0,2.382,1.588,2.382,2.978v6.55"/>
</g>
<g>
	<circle fill="none" stroke="#666666" stroke-miterlimit="10" cx="12.482" cy="12.488" r="12"/>
	<path fill="none" stroke="#666666" stroke-miterlimit="10" d="M5.352,7.904L5.352,7.904c0-1.406,1.14-2.546,2.546-2.546
		s2.547,1.14,2.547,2.547c0,1.062-0.651,1.971-1.575,2.353c0.106,0.324,0.233,0.639,0.374,0.946
		c0.912,1.993,2.518,3.597,4.506,4.515c0.313,0.144,0.633,0.274,0.964,0.383c0.382-0.924,1.291-1.576,2.353-1.576
		c1.406,0,2.547,1.141,2.547,2.547c0,1.407-1.14,2.547-2.547,2.547c-0.962,0-1.891-0.129-2.785-0.347
		c0.002,0.002,0.003,0.004,0.005,0.007c-0.033-0.008-0.063-0.022-0.096-0.031c-0.485-0.122-0.959-0.272-1.419-0.453
		c-0.012-0.005-0.025-0.009-0.037-0.014c-0.977-0.389-1.885-0.908-2.712-1.532c-0.022-0.017-0.045-0.033-0.067-0.05
		c-0.825-0.632-1.562-1.371-2.193-2.196c-0.005-0.007-0.01-0.014-0.015-0.02c-0.956-1.256-1.662-2.709-2.049-4.291l0,0l0,0
		C5.481,9.796,5.352,8.867,5.352,7.904L5.352,7.904L5.352,7.904L5.352,7.904L5.352,7.904L5.352,7.904z"/>
</g>
<g>
	<circle fill="none" stroke="#666666" stroke-miterlimit="10" cx="15.668" cy="43.73" r="15"/>
	<g>
		<rect x="8.981" y="41.761" fill="#666666" width="13.374" height="1"/>
		<rect x="8.981" y="45.637" fill="#666666" width="13.374" height="1"/>
		<rect x="15.117" y="41.511" fill="#666666" width="1" height="10.139"/>
		
			<rect x="10.063" y="38.481" transform="matrix(0.5883 0.8086 -0.8086 0.5883 37.1845 5.0354)" fill="#666666" width="7.169" height="1.111"/>
		
			<rect x="14.001" y="38.48" transform="matrix(-0.5883 0.8086 -0.8086 -0.5883 59.496 47.7816)" fill="#666666" width="7.169" height="1.111"/>
	</g>
</g>
<g>
	<circle fill="none" stroke="#0099FF" stroke-miterlimit="10" cx="15.668" cy="77.981" r="15"/>
	<g>
		<rect x="8.981" y="76.013" fill="#0099FF" width="13.374" height="1"/>
		<rect x="8.981" y="79.889" fill="#0099FF" width="13.374" height="1"/>
		<rect x="15.117" y="75.763" fill="#0099FF" width="1" height="10.139"/>
		
			<rect x="10.062" y="72.732" transform="matrix(0.5883 0.8086 -0.8086 0.5883 64.8803 19.1366)" fill="#0099FF" width="7.169" height="1.111"/>
		
			<rect x="13.999" y="72.732" transform="matrix(-0.5883 0.8086 -0.8086 -0.5883 87.1912 102.1856)" fill="#0099FF" width="7.169" height="1.111"/>
	</g>
</g>
<g>
	<g>
		<path fill="#666666" d="M0,100.204v6.85h1v-6.85c0-1.461,1.154-2.65,2.573-2.65H10.5v-1H3.573C1.603,96.554,0,98.192,0,100.204z"
			/>
		<path fill="#666666" d="M1,121.904v-6.85H0v6.85c0,2.013,1.603,3.65,3.573,3.65H10.5v-1H3.573C2.154,124.554,1,123.365,1,121.904z
			"/>
		<path fill="#666666" d="M25.427,96.554H18.5v1h6.927c1.419,0,2.573,1.189,2.573,2.65v6.85h1v-6.85
			C29,98.192,27.397,96.554,25.427,96.554z"/>
		<path fill="#666666" d="M28,121.904c0,1.461-1.154,2.65-2.573,2.65H18.5v1h6.927c1.97,0,3.573-1.637,3.573-3.65v-6.85h-1V121.904z
			"/>
	</g>
	<rect y="110.596" fill="#666666" width="29" height="1.042"/>
</g>
<g>
	<g>
		<path fill="#0099FF" d="M0,132.204v6.85h1v-6.85c0-1.461,1.154-2.65,2.573-2.65H10.5v-1H3.573C1.603,128.554,0,130.192,0,132.204z
			"/>
		<path fill="#0099FF" d="M1,153.904v-6.85H0v6.85c0,2.013,1.603,3.65,3.573,3.65H10.5v-1H3.573C2.154,156.554,1,155.365,1,153.904z
			"/>
		<path fill="#0099FF" d="M25.427,128.554H18.5v1h6.927c1.419,0,2.573,1.189,2.573,2.65v6.85h1v-6.85
			C29,130.192,27.397,128.554,25.427,128.554z"/>
		<path fill="#0099FF" d="M28,153.904c0,1.461-1.154,2.65-2.573,2.65H18.5v1h6.927c1.97,0,3.573-1.637,3.573-3.65v-6.85h-1V153.904z
			"/>
	</g>
	<rect y="142.596" fill="#0099FF" width="29" height="1.042"/>
</g>
<g>
	<g>
		<path fill="#666666" d="M13.521,163.337v1.766c-4.52,0.565-8.138,4.088-8.888,8.664H2.931l0.014-0.096
			c0.805-5.446,5.109-9.691,10.465-10.322L13.521,163.337 M14.521,160.554l-1.229,1.803l0,0
			c-5.821,0.685-10.468,5.293-11.337,11.168l-0.035-0.012l-1.766,1.254H1.83h3.689H5.52c0.369-4.802,4.235-8.598,9.002-8.739v-3.756
			L14.521,160.554L14.521,160.554z"/>
	</g>
	<g>
		<path fill="#666666" d="M26.727,173.943c0.011,0.111,0.021,0.231,0.03,0.36c0.018,0.253,0.027,1.078,0.028,1.205l0,0v0.013
			c0,6.109-4.461,11.329-10.377,12.142l-0.079,0.013v-1.772c4.221-0.643,7.671-3.91,8.556-8.228l0.193-0.942l-0.934-0.229
			l-4.567-1.122L26.727,173.943 M27.57,172.753l-12.581,2.531l8.916,2.19c-0.848,4.137-4.331,7.285-8.576,7.529v0.018l-0.002-0.007
			v5.474l1.229-1.803l-0.011-0.033c6.347-0.871,11.241-6.416,11.241-13.132c0-0.005,0-0.009,0-0.013v-0.001
			c0,0-0.007-0.956-0.031-1.276C27.687,173.291,27.57,172.753,27.57,172.753L27.57,172.753z"/>
	</g>
	<g>
		<path fill="#666666" d="M14.989,170.809l2.457,2.508l-1.111,0.254l-0.632-0.645l-0.714-0.729l-0.714,0.729l-1.626,1.659
			l-0.686,0.7l0.686,0.7l1.626,1.66l0.714,0.729l0.714-0.729l0.567-0.579l1.07,0.295l-2.352,2.4l-4.385-4.475L14.989,170.809
			 M14.989,169.38l-5.785,5.904l5.695,5.811l0.091,0.093l4.255-4.342l-3.276-0.901l-0.979,0.999l-1.626-1.66l1.626-1.659
			l1.023,1.045l3.399-0.776L14.989,169.38L14.989,169.38z"/>
	</g>
</g>
<g>
	<g>
		<path fill="#0099FF" d="M13.521,196.337v1.766c-4.52,0.565-8.138,4.088-8.888,8.664H2.931l0.014-0.096
			c0.805-5.446,5.109-9.691,10.465-10.322L13.521,196.337 M14.521,193.554l-1.229,1.803l0,0
			c-5.821,0.685-10.468,5.293-11.337,11.168l-0.035-0.012l-1.766,1.254H1.83h3.689H5.52c0.369-4.802,4.235-8.598,9.002-8.739v-3.756
			L14.521,193.554L14.521,193.554z"/>
	</g>
	<g>
		<path fill="#0099FF" d="M26.727,206.943c0.011,0.111,0.021,0.231,0.03,0.36c0.018,0.253,0.027,1.078,0.028,1.205l0,0v0.013
			c0,6.109-4.461,11.329-10.377,12.142l-0.079,0.013v-1.772c4.221-0.643,7.671-3.91,8.556-8.228l0.193-0.942l-0.934-0.229
			l-4.567-1.122L26.727,206.943 M27.57,205.753l-12.581,2.531l8.916,2.19c-0.848,4.137-4.331,7.285-8.576,7.529v0.018l-0.002-0.007
			v5.474l1.229-1.803l-0.011-0.033c6.347-0.871,11.241-6.416,11.241-13.132c0-0.005,0-0.009,0-0.013v-0.001
			c0,0-0.007-0.956-0.031-1.276C27.687,206.291,27.57,205.753,27.57,205.753L27.57,205.753z"/>
	</g>
	<g>
		<path fill="#0099FF" d="M14.989,203.809l2.457,2.508l-1.111,0.254l-0.632-0.645l-0.714-0.729l-0.714,0.729l-1.626,1.659
			l-0.686,0.7l0.686,0.7l1.626,1.66l0.714,0.729l0.714-0.729l0.567-0.579l1.07,0.295l-2.352,2.4l-4.385-4.475L14.989,203.809
			 M14.989,202.38l-5.785,5.904l5.695,5.811l0.091,0.093l4.255-4.342l-3.276-0.901l-0.979,0.999l-1.626-1.66l1.626-1.659
			l1.023,1.045l3.399-0.776L14.989,202.38L14.989,202.38z"/>
	</g>
</g>
<g>
	<polygon fill="none" stroke="#666666" stroke-miterlimit="10" points="0.492,234.327 12.999,227.105 25.507,234.327 
		25.507,248.769 12.999,255.991 0.492,248.769 	"/>
	<polygon fill="#666666" points="23.658,236.019 23.137,235.165 13.025,241.334 2.933,235.165 2.412,236.019 12.549,242.204 
		12.549,253.471 13.549,253.471 13.549,242.186 	"/>
</g>
<g>
	<polygon fill="none" stroke="#0099FF" stroke-miterlimit="10" points="0.492,267.263 12.999,260.042 25.507,267.263 
		25.507,281.706 12.999,288.927 0.492,281.706 	"/>
	<polygon fill="#0099FF" points="23.658,268.955 23.137,268.102 13.025,274.271 2.933,268.102 2.412,268.955 12.549,275.14 
		12.549,286.408 13.549,286.408 13.549,275.122 	"/>
</g>
<g>
	<path fill="none" stroke="#666666" stroke-linecap="round" stroke-miterlimit="10" d="M26.364,316.657
		c-2.708,3.309-6.818,5.415-11.332,5.415c-7.52,0-13.738-5.717-14.541-13.037 M1.797,301.313c2.307-4.914,7.32-8.324,13.237-8.324
		c8.023,0,14.541,6.519,14.541,14.542c0,0.702,0,1.404-0.1,2.006"/>
	<polyline fill="none" stroke="#666666" stroke-linecap="round" stroke-linejoin="round" stroke-miterlimit="10" points="
		0.493,309.035 6.309,309.035 9.218,315.454 12.426,299.909 16.639,316.657 20.248,304.121 22.554,309.737 29.218,309.637 	"/>
</g>
<g>
	<path fill="none" stroke="#0099FF" stroke-linecap="round" stroke-miterlimit="10" d="M26.364,349.722
		c-2.708,3.309-6.818,5.415-11.332,5.415c-7.52,0-13.738-5.717-14.541-13.037 M1.797,334.378c2.307-4.914,7.32-8.324,13.237-8.324
		c8.023,0,14.541,6.519,14.541,14.542c0,0.702,0,1.404-0.1,2.006"/>
	<polyline fill="none" stroke="#0099FF" stroke-linecap="round" stroke-linejoin="round" stroke-miterlimit="10" points="
		0.493,342.1 6.309,342.1 9.218,348.519 12.426,332.974 16.639,349.722 20.248,337.186 22.554,342.802 29.218,342.702 	"/>
</g>
<g>
	<path fill="#333333" d="M54.9,557.515L54.9,557.515L54.9,557.515z"/>
	<path fill="#333333" d="M51.4,557.515L51.4,557.515L51.4,557.515z"/>
	<rect x="41" y="551.015" fill="#333333" width="5.3" height="17.199"/>
	<polygon fill="#333333" points="38.7,556.516 42.4,546.715 46.5,546.715 42.8,556.516 	"/>
	<path fill="#333333" d="M61.499,551.015h-1.1v-4.301h-5.3v4.301h-8.001v1.699h8.001v13.1c0,0.4-0.3,0.7-0.7,0.7h-2.1v1.699H55.2
		h2.3h0.4c1.4,0,2.6-1.1,2.6-2.5v-13h1.1v-1.699L61.499,551.015C61.499,551.014,61.499,551.015,61.499,551.015z"/>
	<path fill="#0099FF" d="M54.299,558.715L54.299,558.715c-1.499-0.7-2.8-1.9-3.601-3.4l0,0l0,0l0,0l0,0l0,0l0,0
		c-0.799,1.499-2.001,2.7-3.5,3.4l0,0l0,0l0,0c1.499,0.7,2.8,1.9,3.601,3.4l0,0C51.499,560.615,52.8,559.415,54.299,558.715
		L54.299,558.715z"/>
	<g>
		<path fill="#333333" d="M81.3,566.916L81.3,566.916L81.3,566.916z"/>
		<path fill="#333333" d="M81.1,565.415l-0.099-0.3C81,565.215,81,565.315,81.1,565.415z"/>
		<polygon fill="#333333" points="87.899,550.415 84.399,550.716 83.499,547.315 87,547.016 		"/>
		<rect x="69.3" y="548.715" fill="#333333" width="5.3" height="1.699"/>
		<rect x="65.899" y="553.115" fill="#333333" width="8.6" height="1.699"/>
		<rect x="65.899" y="557.615" fill="#333333" width="8.6" height="1.699"/>
		<polygon fill="#333333" points="66,552.615 68.6,546.715 72.5,546.715 69.9,552.615 		"/>
		<path fill="#333333" d="M72.5,554.115v7.6v3.7c0,0.5,0.5,0.999,1,0.999h1.4v1.9h-3.7c0,0-0.099,0-0.2,0c-1.9,0-3.5-1.501-3.5-3.4
			v-10.699h5C72.5,554.215,72.5,554.115,72.5,554.115z"/>
		<polygon fill="#333333" points="88.4,558.116 75.399,559.516 75.399,557.615 88.4,556.215 		"/>
		<polygon fill="#333333" points="88.4,553.415 75.399,554.815 75.399,553.016 88.4,551.615 		"/>
		<polygon fill="#333333" points="88.4,562.815 75.799,568.315 75.799,566.414 88.4,560.916 		"/>
		<path fill="#333333" d="M87.7,566.414h-0.3l0,0c-0.4,0-0.799-0.3-0.799-0.7l-0.9-3.9l-3.601-15.2h-5.3l4.499,18.899l0.099,0.3
			c0.4,1.4,1.7,2.5,3.3,2.5h2.5H88.5v-1.9L87.7,566.414L87.7,566.414z"/>
	</g>
	<g>
		<rect x="102.199" y="566.115" fill="#333333" width="13.299" height="2.199"/>
		<polygon fill="#333333" points="109.899,567.114 111.9,552.415 116,552.615 113.999,567.415 		"/>
		<rect x="92.9" y="551.115" fill="#333333" width="9.401" height="1.699"/>
		<rect x="102.899" y="549.516" fill="#333333" width="13.101" height="2.199"/>
		<polygon fill="#333333" points="102.199,559.115 93.199,562.516 92.9,560.815 101.999,557.416 		"/>
		<path fill="#333333" d="M95.499,546.715v16.9v2.3c0,0.4-0.5,0.7-1,0.7h-1.301v1.699h3.7c0,0,0.099,0,0.2,0
			c2.001,0,3.5-1.1,3.5-2.5v-19.099H95.499z"/>
		<polygon fill="#333333" points="103,553.415 106.7,552.015 108.999,564.314 105.299,565.615 		"/>
		<rect x="107" y="546.615" fill="#333333" width="5.199" height="4.1"/>
	</g>
	<g>
		<path fill="#0099FF" d="M20.699,542.515L20.699,542.515l-5.6,4.8l0,0l0,0l0,0l0,0l0,0c2.201,4.4,5.8,8,10.299,10.2l0,0l4.8-5.5
			l0,0C26.2,549.816,22.799,546.516,20.699,542.515z"/>
		<path fill="#0099FF" d="M9.5,542.515c-2.1,4-5.5,7.3-9.5,9.5l0,0l4.8,5.5l0,0c4.4-2.199,8.1-5.8,10.299-10.2l0,0L9.5,542.515z"/>
		<path fill="#0099FF" d="M15.1,567.715L15.1,567.715c-2.201-4.4-5.8-8-10.299-10.2l0,0l-4.8,5.5l0,0c4.1,2.1,7.4,5.399,9.599,9.5
			L15.1,567.715L15.1,567.715L15.1,567.715L15.1,567.715L15.1,567.715z"/>
		<path fill="#0099FF" d="M20.699,572.515c2.1-3.999,5.5-7.4,9.5-9.5l0,0l-4.8-5.5l0,0c-4.4,2.199-8.1,5.8-10.299,10.2l0,0
			L20.699,572.515L20.699,572.515z"/>
	</g>
</g>
<path fill="none" stroke="#666666" stroke-miterlimit="10" d="M8.873,659.04l6.273,7.188h0.653l6.273-7.188"/>
<line fill="none" stroke="#666666" stroke-miterlimit="10" x1="15.537" y1="649.108" x2="15.537" y2="661.654"/>
<g>
	<circle fill="none" stroke="#666666" stroke-miterlimit="10" cx="15.472" cy="591.054" r="15"/>
	<rect x="14.972" y="576.054" fill="#666666" width="1" height="3.664"/>
	<rect x="14.972" y="602.39" fill="#666666" width="1" height="3.664"/>
	<rect x="26.808" y="591.071" fill="#666666" width="3.664" height="1"/>
	<rect x="0.472" y="591.071" fill="#666666" width="3.664" height="1"/>
	<polygon fill="none" stroke="#666666" stroke-miterlimit="10" points="7.829,598.545 13.661,589.655 22.939,583.961 16.85,593.103 
			"/>
</g>
<path fill="none" stroke="#666666" stroke-miterlimit="10" d="M22.845,643.972c4.554,2.575,7.627,7.462,7.627,13.066
	c0,8.284-6.716,15-15,15s-15-6.716-15-15c0-5.603,3.072-10.489,7.624-13.064"/>
<path fill="none" stroke="#0099FF" stroke-miterlimit="10" d="M8.873,691.123l6.273,7.188h0.653l6.273-7.188"/>
<line fill="none" stroke="#0099FF" stroke-miterlimit="10" x1="15.537" y1="681.192" x2="15.537" y2="693.737"/>
<path fill="none" stroke="#0099FF" stroke-miterlimit="10" d="M22.845,676.055c4.554,2.575,7.627,7.462,7.627,13.066
	c0,8.284-6.716,15-15,15s-15-6.716-15-15c0-5.603,3.072-10.489,7.624-13.064"/>
<g>
	<circle fill="none" stroke="#0099FF" stroke-miterlimit="10" cx="15.472" cy="625.021" r="15"/>
	<rect x="14.972" y="610.021" fill="#0099FF" width="1" height="3.664"/>
	<rect x="14.972" y="636.357" fill="#0099FF" width="1" height="3.664"/>
	<rect x="26.808" y="625.038" fill="#0099FF" width="3.664" height="1"/>
	<rect x="0.472" y="625.038" fill="#0099FF" width="3.664" height="1"/>
	<polygon fill="none" stroke="#0099FF" stroke-miterlimit="10" points="7.829,632.512 13.661,623.622 22.939,617.927 16.85,627.07 	
		"/>
</g>
<path fill="none" stroke="#0099FF" stroke-miterlimit="10" d="M15.425,749.627"/>
<g>
	<path fill="none" stroke="#0099FF" stroke-width="0.9288" stroke-miterlimit="10" d="M10.38,743.002
		c0.027-0.01,0.053-0.019,0.08-0.029c1.586-0.57,3.295-0.881,5.077-0.881c8.284,0,15,6.716,15,15c0,2.071-0.42,4.044-1.179,5.839"/>
	<path fill="none" stroke="#0099FF" stroke-width="0.9288" stroke-miterlimit="10" d="M21.513,770.855
		c-0.028,0.012-0.055,0.024-0.083,0.036c-1.809,0.773-3.801,1.202-5.893,1.202c-8.284,0-15-6.716-15-15
		c0-1.836,0.33-3.594,0.933-5.219"/>
	<circle fill="none" stroke="#0099FF" stroke-width="0.8574" stroke-miterlimit="10" cx="5.167" cy="746.536" r="3"/>
	<circle fill="none" stroke="#0099FF" stroke-width="0.8574" stroke-miterlimit="10" cx="26.984" cy="768.387" r="3"/>
	<circle fill="none" stroke="#0099FF" stroke-miterlimit="10" cx="15.419" cy="755.32" r="4.922"/>
	<path fill="none" stroke="#0099FF" stroke-miterlimit="10" d="M3.879,766.532c2.331-3.641,6.629-6.083,11.545-6.083
		c4.347,0,8.21,1.909,10.658,4.867"/>
</g>
<path fill="none" stroke="#666666" stroke-miterlimit="10" d="M15.425,715.835"/>
<g>
	<path fill="none" stroke="#666666" stroke-width="0.9288" stroke-miterlimit="10" d="M10.38,709.021
		c0.027-0.01,0.053-0.019,0.08-0.029c1.586-0.57,3.295-0.881,5.077-0.881c8.284,0,15,6.716,15,15c0,2.071-0.42,4.044-1.179,5.839"/>
	<path fill="none" stroke="#666666" stroke-width="0.9288" stroke-miterlimit="10" d="M21.513,736.873
		c-0.028,0.012-0.055,0.024-0.083,0.036c-1.809,0.773-3.801,1.202-5.893,1.202c-8.284,0-15-6.716-15-15
		c0-1.836,0.33-3.594,0.933-5.219"/>
	<circle fill="none" stroke="#666666" stroke-width="0.8574" stroke-miterlimit="10" cx="5.167" cy="712.555" r="3"/>
	<circle fill="none" stroke="#666666" stroke-width="0.8574" stroke-miterlimit="10" cx="26.984" cy="734.406" r="3"/>
	<circle fill="none" stroke="#666666" stroke-miterlimit="10" cx="15.419" cy="721.339" r="4.922"/>
	<path fill="none" stroke="#666666" stroke-miterlimit="10" d="M3.879,732.551c2.331-3.641,6.629-6.083,11.545-6.083
		c4.347,0,8.21,1.909,10.658,4.867"/>
</g>
<g>
	<path fill="none" stroke="#666666" stroke-miterlimit="10" d="M15.866,787.167v5.292"/>
	<path fill="none" stroke="#666666" stroke-miterlimit="10" d="M20.135,786.045c-0.001-0.066-0.028-0.13-0.075-0.174
		c-0.047-0.045-0.108-0.068-0.172-0.064c-1.984,0.129-3.813-1.184-3.891-1.241c-0.08-0.058-0.184-0.058-0.264,0
		c-0.077,0.056-1.907,1.369-3.891,1.241c-0.061-0.005-0.124,0.018-0.171,0.063c-0.047,0.045-0.074,0.109-0.074,0.176
		c-0.017,1.081,0,4.499,0,4.532c0,0.568,0.16,1.112,0.486,1.662c0.045,0.076,0.15,0.225,0.529,0.634
		c0.377,0.405,1.574,1.416,1.625,1.459c0.002,0.002,0.006,0.005,0.009,0.007l0.784,0.598c0.237,0.194,0.797,0.542,0.871,0.547
		c0.063,0.002,0.561-0.351,0.799-0.547l0.784-0.598c0.002-0.003,0.006-0.005,0.009-0.007c0.05-0.043,1.248-1.054,1.625-1.459
		c0.381-0.409,0.484-0.558,0.529-0.634c0.328-0.552,0.486-1.095,0.486-1.661C20.135,790.542,20.152,787.126,20.135,786.045
		L20.135,786.045z"/>
	<path fill="none" stroke="#666666" stroke-miterlimit="10" d="M20.453,788.692h9.416"/>
	<path fill="none" stroke="#666666" stroke-miterlimit="10" d="M1.615,788.692h9.416"/>
	<path fill="none" stroke="#666666" stroke-miterlimit="10" d="M9.732,780.741v-3.402c0-0.835,0.666-1.512,1.488-1.512h9.295
		c0.822,0,1.488,0.677,1.488,1.512v3.023"/>
	<path fill="none" stroke="#666666" stroke-miterlimit="10" d="M6.528,780.362h18.427c2.714,0,4.914,2.2,4.914,4.914v10.208
		c0,2.714-2.2,4.914-4.914,4.914H6.528c-2.714,0-4.914-2.2-4.914-4.914v-10.208C1.614,782.561,3.814,780.362,6.528,780.362z"/>
</g>
<g>
	<path fill="none" stroke="#0099FF" stroke-miterlimit="10" d="M15.866,815.167v5.292"/>
	<path fill="none" stroke="#0099FF" stroke-miterlimit="10" d="M20.135,814.045c-0.001-0.066-0.028-0.13-0.075-0.174
		c-0.047-0.045-0.108-0.068-0.172-0.064c-1.984,0.129-3.813-1.184-3.891-1.241c-0.08-0.058-0.184-0.058-0.264,0
		c-0.077,0.056-1.907,1.369-3.891,1.241c-0.061-0.005-0.124,0.018-0.171,0.063c-0.047,0.045-0.074,0.109-0.074,0.176
		c-0.017,1.081,0,4.499,0,4.532c0,0.568,0.16,1.112,0.486,1.662c0.045,0.076,0.15,0.225,0.529,0.634
		c0.377,0.405,1.574,1.416,1.625,1.459c0.002,0.002,0.006,0.005,0.009,0.007l0.784,0.598c0.237,0.194,0.797,0.542,0.871,0.547
		c0.063,0.002,0.561-0.351,0.799-0.547l0.784-0.598c0.002-0.003,0.006-0.005,0.009-0.007c0.05-0.043,1.248-1.054,1.625-1.459
		c0.381-0.409,0.484-0.558,0.529-0.634c0.328-0.552,0.486-1.095,0.486-1.661C20.135,818.542,20.152,815.126,20.135,814.045
		L20.135,814.045z"/>
	<path fill="none" stroke="#0099FF" stroke-miterlimit="10" d="M20.453,816.692h9.416"/>
	<path fill="none" stroke="#0099FF" stroke-miterlimit="10" d="M1.615,816.692h9.416"/>
	<path fill="none" stroke="#0099FF" stroke-miterlimit="10" d="M9.732,808.741v-3.402c0-0.835,0.666-1.512,1.488-1.512h9.295
		c0.822,0,1.488,0.677,1.488,1.512v3.023"/>
	<path fill="none" stroke="#0099FF" stroke-miterlimit="10" d="M6.528,808.362h18.427c2.714,0,4.914,2.2,4.914,4.914v10.208
		c0,2.714-2.2,4.914-4.914,4.914H6.528c-2.714,0-4.914-2.2-4.914-4.914v-10.208C1.614,810.561,3.814,808.362,6.528,808.362z"/>
</g>
</svg>
