<?xml version="1.0" encoding="utf-8"?>
<!-- Generator: Adobe Illustrator 17.0.0, SVG Export Plug-In . SVG Version: 6.00 Build 0)  -->
<!DOCTYPE svg PUBLIC "-//W3C//DTD SVG 1.1//EN" "http://www.w3.org/Graphics/SVG/1.1/DTD/svg11.dtd">
<svg version="1.1" id="图层_1" xmlns="http://www.w3.org/2000/svg" xmlns:xlink="http://www.w3.org/1999/xlink" x="0px" y="0px"
	 width="304.5px" height="189px" viewBox="0 0 304.5 189" enable-background="new 0 0 304.5 189" xml:space="preserve">
<g>
	<path fill="none" d="M313.016,1871l-2.99,2c-2.834-1.258-6.977-6-6.977-6l2.99-3.001c-1.419-1.184-1.993-4.999-1.993-4.999h-4.984
		c-1.231,14.091,17.941,19,17.941,19l0.997-6C315.868,1872.254,313.016,1871,313.016,1871z M625.262-1366.444
		c0-0.909-0.768-1.65-1.711-1.65c-0.942,0-1.711,0.742-1.711,1.65c0,0.909,0.769,1.651,1.711,1.651
		C624.494-1364.793,625.262-1365.534,625.262-1366.444z M637.459-1373.969c-2.169-1.873-5.16-3.031-8.459-3.031
		s-6.29,1.159-8.459,3.031c-2.187,1.888-3.541,4.502-3.541,7.392c0,1.624,0.429,3.163,1.193,4.536
		c0.789,1.416,1.938,2.654,3.343,3.625c0.23,0.158,0.546,0.103,0.706-0.124c0.16-0.227,0.104-0.539-0.125-0.697
		c-1.276-0.882-2.319-2.005-3.033-3.287c-0.683-1.226-1.066-2.601-1.066-4.053c0-2.589,1.22-4.936,3.191-6.638
		c1.989-1.717,4.743-2.78,7.791-2.78s5.802,1.063,7.791,2.78c1.971,1.702,3.191,4.049,3.191,6.638c0,2.588-1.22,4.936-3.191,6.637
		c-1.989,1.718-4.744,2.78-7.791,2.78c-0.366,0-0.726-0.015-1.078-0.045c-0.362-0.03-0.717-0.075-1.063-0.133
		c-0.218-0.037-0.427,0.069-0.529,0.249l-2.174,3.315c-0.153,0.232-0.086,0.543,0.149,0.693c0.235,0.151,0.55,0.085,0.702-0.147
		l2.012-3.068c0.271,0.039,0.544,0.071,0.819,0.094c0.384,0.032,0.772,0.049,1.162,0.049c3.299,0,6.29-1.159,8.459-3.031
		c2.187-1.889,3.541-4.502,3.541-7.392C641-1369.467,639.646-1372.08,637.459-1373.969z M636.159-1366.444
		c0-0.909-0.768-1.65-1.711-1.65c-0.942,0-1.711,0.742-1.711,1.65c0,0.909,0.769,1.651,1.711,1.651
		C635.391-1364.793,636.159-1365.534,636.159-1366.444z"/>
</g>
<g>
	<path fill="#0099FF" d="M104.89,23.273c16.569,0,30,13.431,30,30s-13.432,30-30,30s-30-13.431-30-30S88.321,23.273,104.89,23.273z"
		/>
	<path fill="#0099FF" d="M104.89,83.774c-16.818,0-30.5-13.683-30.5-30.5s13.683-30.5,30.5-30.5c16.818,0,30.5,13.683,30.5,30.5
		S121.708,83.774,104.89,83.774z M104.89,23.774c-16.266,0-29.5,13.233-29.5,29.5s13.233,29.5,29.5,29.5
		c16.267,0,29.5-13.233,29.5-29.5S121.156,23.774,104.89,23.774z"/>
</g>
<g>
	<path fill="#FFFFFF" d="M32.33,62.419c0.228,0.158,0.284,0.47,0.125,0.696c-0.16,0.226-0.474,0.281-0.703,0.123
		c-1.398-0.968-2.542-2.203-3.327-3.616c-0.761-1.369-1.188-2.905-1.188-4.525c0-2.883,1.347-5.49,3.523-7.374
		c2.158-1.869,5.135-3.024,8.417-3.024c3.283,0,6.259,1.156,8.417,3.024c2.176,1.884,3.523,4.491,3.523,7.374
		s-1.347,5.49-3.523,7.374c-2.159,1.868-5.135,3.024-8.417,3.024c-0.387,0-0.773-0.017-1.156-0.048
		c-0.273-0.023-0.545-0.054-0.815-0.093l-2.002,3.061c-0.152,0.231-0.465,0.297-0.699,0.147c-0.234-0.15-0.3-0.46-0.149-0.692
		l2.163-3.307c0.102-0.18,0.31-0.285,0.527-0.249c0.344,0.058,0.697,0.103,1.058,0.133c0.35,0.029,0.709,0.044,1.073,0.044
		c3.032,0,5.773-1.06,7.752-2.773c1.961-1.698,3.175-4.039,3.175-6.622c0-2.583-1.214-4.924-3.175-6.622
		c-1.979-1.713-4.72-2.773-7.752-2.773c-3.032,0-5.773,1.06-7.752,2.773c-1.961,1.698-3.175,4.039-3.175,6.622
		c0,1.449,0.381,2.82,1.061,4.043C30.022,60.42,31.06,61.54,32.33,62.419L32.33,62.419z"/>
	<path fill="#FFFFFF" d="M33.756,56.877c0.937,0,1.702-0.74,1.702-1.647c0-0.907-0.765-1.647-1.702-1.647
		c-0.937,0-1.702,0.74-1.702,1.647S32.818,56.877,33.756,56.877L33.756,56.877z"/>
	<path fill="#FFFFFF" d="M44.599,56.877c0.937,0,1.702-0.74,1.702-1.647c0-0.907-0.765-1.647-1.702-1.647
		c-0.938,0-1.702,0.74-1.702,1.647S43.662,56.877,44.599,56.877L44.599,56.877z"/>
</g>
<g>
	<path d="M170.708,144.654c-0.333,0-0.92-0.006-1.76-0.02c-0.667-0.02-1.174-0.087-1.521-0.2c-0.399-0.12-0.76-0.377-1.079-0.77
		c-0.127-0.173-0.254-0.26-0.381-0.26c-0.286,0-0.729,0.474-1.33,1.42l-0.27-0.23c0.58-0.907,1.063-1.41,1.45-1.51v-3.39h-1.55
		v-0.34h1.88v3.74c0.12,0.046,0.253,0.153,0.399,0.32c0.24,0.307,0.527,0.533,0.86,0.68c0.326,0.12,0.783,0.19,1.37,0.21
		c0.626,0.013,1.253,0.02,1.88,0.02l2.4-0.03l-0.08,0.36H170.708z M164.748,135.984c0.68,0.534,1.253,1.074,1.72,1.62l-0.239,0.25
		c-0.447-0.533-1.017-1.08-1.71-1.64L164.748,135.984z M172.599,136.254c-1.334,0.367-2.79,0.57-4.37,0.61v1.42h4.189v0.23
		c-0.319,0.987-0.753,1.856-1.3,2.61c0.7,0.633,1.307,1.26,1.82,1.88l-0.24,0.28c-0.493-0.64-1.087-1.273-1.78-1.9
		c-0.673,0.84-1.479,1.533-2.42,2.08l-0.21-0.28c0.967-0.566,1.764-1.243,2.39-2.03c-0.586-0.52-1.213-1.013-1.88-1.48l0.21-0.24
		c0.66,0.46,1.28,0.95,1.86,1.47c0.5-0.687,0.903-1.463,1.21-2.33h-3.85v0.02c-0.04,1.993-0.414,3.486-1.12,4.48l-0.32-0.15
		c0.7-1.033,1.07-2.477,1.11-4.33v-2.02c1.76-0.047,3.267-0.253,4.52-0.62L172.599,136.254z"/>
	<path d="M182.489,136.434v8.22h-0.351v-0.44h-7.06v0.44h-0.35v-8.22H182.489z M175.078,143.894h7.06v-7.13h-7.06V143.894z
		 M176.878,138.634h3.471v3.36h-3.471V138.634z M180.008,141.674v-2.72h-2.79v2.72H180.008z"/>
	<path d="M184.399,144.744l-0.07-0.33c0.413,0.02,0.804,0.03,1.17,0.03c0.267,0,0.4-0.15,0.4-0.45v-7.32h-1.69v-0.34h3.38v0.34
		h-1.35v7.4c0,0.446-0.207,0.67-0.62,0.67H184.399z M190.288,139.134h0.33v1.81c-0.007,1.034-0.254,1.864-0.74,2.49
		c-0.486,0.573-1.27,1.03-2.35,1.37l-0.2-0.29c1.06-0.313,1.83-0.753,2.31-1.32c0.427-0.586,0.644-1.336,0.65-2.25V139.134z
		 M188.038,136.334h4.96v0.34h-2.33c-0.033,0.427-0.097,0.887-0.189,1.38h2.08v4.56h-0.341v-4.23h-3.439v4.27h-0.34v-4.6h1.71
		c0.086-0.46,0.143-0.92,0.17-1.38h-2.28V136.334z M191.168,142.844c0.773,0.626,1.396,1.22,1.87,1.78l-0.24,0.25
		c-0.467-0.567-1.09-1.17-1.87-1.81L191.168,142.844z"/>
	<path d="M194.168,139.634h1.54c-0.193-0.633-0.446-1.213-0.76-1.74l0.31-0.12c0.28,0.487,0.544,1.107,0.79,1.86h1.33
		c0.354-0.594,0.653-1.247,0.9-1.96l0.33,0.12c-0.254,0.68-0.55,1.293-0.891,1.84h1.42v0.34h-4.97V139.634z M194.359,136.864h2.26
		c-0.12-0.407-0.25-0.764-0.39-1.07l0.34-0.06c0.14,0.354,0.267,0.73,0.38,1.13h2.13v0.34h-4.72V136.864z M198.609,141.174v3.5
		h-0.33v-0.62h-3.13v0.64h-0.34v-3.52H198.609z M195.149,143.734h3.13v-2.24h-3.13V143.734z M199.718,136.324h2.94v0.27
		c-0.294,1.066-0.62,2.083-0.98,3.05c0.754,1,1.134,1.82,1.141,2.46c0,0.494-0.124,0.843-0.37,1.05
		c-0.26,0.207-0.771,0.31-1.53,0.31l-0.109-0.34c0.173,0.014,0.283,0.02,0.329,0.02c0.587-0.02,0.961-0.1,1.12-0.24
		c0.16-0.16,0.24-0.426,0.24-0.8c-0.007-0.613-0.394-1.433-1.16-2.46c0.327-0.82,0.653-1.816,0.98-2.99h-2.271v8.2h-0.33V136.324z"
		/>
</g>
<g>
	<path fill="#333333" d="M195.165,126.059c-0.174,0-0.346-0.08-0.457-0.231l-10.935-14.911l-11.271,14.917
		c-0.188,0.25-0.544,0.3-0.794,0.11c-0.25-0.188-0.299-0.544-0.11-0.794l11.729-15.525c0.107-0.142,0.248-0.205,0.456-0.225
		c0.18,0.001,0.348,0.087,0.453,0.231l11.385,15.525c0.186,0.252,0.131,0.607-0.122,0.792
		C195.4,126.023,195.283,126.059,195.165,126.059z"/>
</g>
<g opacity="0.8">
	<path fill="#FFFFFF" d="M254.5,22.773c16.568,0,30,13.431,30,30s-13.432,30-30,30s-30-13.432-30-30S237.932,22.773,254.5,22.773z"
		/>
	<path fill="#333333" d="M254.5,83.273c-16.818,0-30.5-13.683-30.5-30.5s13.682-30.5,30.5-30.5s30.5,13.683,30.5,30.5
		S271.318,83.273,254.5,83.273z M254.5,23.273c-16.267,0-29.5,13.233-29.5,29.5s13.233,29.5,29.5,29.5s29.5-13.233,29.5-29.5
		S270.767,23.273,254.5,23.273z"/>
</g>
<g>
	<path fill="#333333" d="M193.388,61.356c-0.174,0-0.346-0.08-0.457-0.231l-10.935-14.911l-11.271,14.917
		c-0.188,0.25-0.544,0.299-0.794,0.11c-0.25-0.188-0.299-0.544-0.11-0.794l11.73-15.524c0.107-0.142,0.238-0.197,0.456-0.225
		c0.18,0.001,0.348,0.087,0.453,0.231l11.385,15.524c0.186,0.252,0.131,0.607-0.122,0.792
		C193.622,61.321,193.505,61.356,193.388,61.356z"/>
</g>
<g>
	
		<image overflow="visible" opacity="0.25" width="376" height="376" xlink:href="4A1C07B5648B1FBE.png"  transform="matrix(0.24 0 0 0.24 60.2592 83.4058)">
	</image>
	<g>
		<g>
			<path fill-rule="evenodd" clip-rule="evenodd" fill="#0099FF" d="M105.26,95.906c17.949,0,32.5,14.551,32.5,32.5
				s-14.551,32.5-32.5,32.5c-17.949,0-32.5-14.551-32.5-32.5S87.311,95.906,105.26,95.906z"/>
			<path fill="#0099FF" d="M105.26,161.407c-18.196,0-33-14.804-33-33s14.804-33,33-33c18.197,0,33,14.804,33,33
				S123.456,161.407,105.26,161.407z M105.26,96.407c-17.645,0-32,14.355-32,32s14.355,32,32,32c17.645,0,32-14.355,32-32
				S122.905,96.407,105.26,96.407z"/>
		</g>
	</g>
</g>
<g>
	<path fill="#FFFFFF" d="M32.53,124.232c0.228,0.158,0.284,0.47,0.125,0.696c-0.16,0.226-0.474,0.281-0.703,0.123
		c-1.398-0.968-2.542-2.203-3.327-3.616c-0.761-1.369-1.188-2.905-1.188-4.525c0-2.883,1.347-5.49,3.523-7.374
		c2.158-1.868,5.135-3.024,8.417-3.024c3.283,0,6.259,1.156,8.417,3.024c2.176,1.884,3.523,4.491,3.523,7.374
		s-1.347,5.49-3.523,7.374c-2.159,1.868-5.135,3.024-8.417,3.024c-0.387,0-0.773-0.017-1.156-0.048
		c-0.273-0.023-0.545-0.054-0.815-0.093l-2.002,3.061c-0.152,0.231-0.465,0.297-0.699,0.147c-0.234-0.15-0.3-0.46-0.149-0.692
		l2.163-3.307c0.102-0.18,0.31-0.285,0.527-0.249c0.344,0.058,0.697,0.103,1.058,0.133c0.35,0.029,0.709,0.044,1.073,0.044
		c3.032,0,5.773-1.06,7.752-2.773c1.961-1.698,3.175-4.039,3.175-6.622c0-2.583-1.214-4.924-3.175-6.622
		c-1.979-1.713-4.72-2.773-7.752-2.773c-3.032,0-5.773,1.06-7.752,2.773c-1.961,1.698-3.175,4.039-3.175,6.622
		c0,1.449,0.381,2.82,1.061,4.043C30.222,122.232,31.26,123.353,32.53,124.232L32.53,124.232z"/>
	<path fill="#FFFFFF" d="M33.956,118.689c0.937,0,1.702-0.74,1.702-1.647c0-0.907-0.765-1.647-1.702-1.647
		c-0.937,0-1.702,0.74-1.702,1.647S33.018,118.689,33.956,118.689L33.956,118.689z"/>
	<path fill="#FFFFFF" d="M44.799,118.689c0.937,0,1.702-0.74,1.702-1.647c0-0.907-0.765-1.647-1.702-1.647
		c-0.938,0-1.702,0.74-1.702,1.647S43.862,118.689,44.799,118.689L44.799,118.689z"/>
	<g>
		<path fill="#FFFFFF" d="M24.237,136.387c0.2,0.367,0.38,0.793,0.54,1.28h3.59v0.33h-1.83c-0.127,0.646-0.327,1.273-0.6,1.88h2.64
			v0.33h-7.32v1.68c-0.04,1.546-0.413,2.783-1.12,3.71l-0.25-0.23c0.653-0.84,0.994-2,1.02-3.48v-2.01h2.08l-0.5-1.88h-1.92v-0.33
			h3.87c-0.18-0.487-0.363-0.893-0.55-1.22L24.237,136.387z M23.337,139.877h2.25c0.293-0.58,0.497-1.207,0.61-1.88h-3.37
			L23.337,139.877z"/>
		<path fill="#FFFFFF" d="M33.667,141.377v4.07h-0.34v-0.56h-2.54v0.56h-0.34v-4.07H33.667z M30.788,144.557h2.54v-2.85h-2.54
			V144.557z M31.737,137.067h5.25v2.93h-5.25V137.067z M36.637,139.657v-2.25h-4.55v2.25H36.637z M38.297,141.377v4.07h-0.34v-0.56
			h-2.63v0.56h-0.34v-4.07H38.297z M35.328,144.557h2.63v-2.85h-2.63V144.557z"/>
		<path fill="#FFFFFF" d="M42.607,139.397c-0.713,0.9-1.474,1.653-2.28,2.26l-0.23-0.27c0.813-0.613,1.56-1.347,2.24-2.2
			L42.607,139.397z M40.598,136.817c0.667,0.434,1.22,0.87,1.66,1.31l-0.25,0.25c-0.4-0.42-0.95-0.863-1.65-1.33L40.598,136.817z
			 M47.527,142.157v3.45h-0.34v-0.58h-5.569v0.58h-0.351v-3.45H47.527z M41.618,144.697h5.569v-2.21h-5.569V144.697z
			 M44.088,137.847c-0.287,0.54-0.657,1.033-1.11,1.48l-0.21-0.27c0.733-0.733,1.23-1.627,1.49-2.68l0.35,0.05
			c-0.087,0.38-0.206,0.74-0.359,1.08h3.979v0.29c-0.293,0.64-0.627,1.19-1,1.65l-0.26-0.2c0.333-0.427,0.627-0.894,0.88-1.4h-2.04
			c-0.014,0.44-0.037,0.79-0.07,1.05c0.4,1.247,1.443,2.08,3.131,2.5l-0.141,0.33c-1.627-0.447-2.66-1.24-3.1-2.38
			c-0.4,1.08-1.41,1.86-3.03,2.34l-0.16-0.32c1.714-0.48,2.696-1.284,2.95-2.41c0.047-0.287,0.073-0.657,0.08-1.11H44.088z"/>
		<path fill="#FFFFFF" d="M49.857,139.707h1.92v4.77c0.427-0.34,0.856-0.737,1.29-1.19l0.09,0.37
			c-0.533,0.554-1.109,1.05-1.729,1.49l-0.14-0.31c0.106-0.106,0.159-0.207,0.159-0.3v-4.49h-1.59V139.707z M50.817,136.657
			c0.693,0.534,1.283,1.08,1.771,1.64l-0.23,0.24c-0.46-0.527-1.053-1.077-1.779-1.65L50.817,136.657z M54.748,136.557
			c-0.094,0.38-0.221,0.76-0.38,1.14h4.1c0,3.414-0.047,5.547-0.14,6.4c-0.087,0.94-0.544,1.41-1.37,1.41l-0.87-0.02l-0.09-0.31
			c0.479,0.014,0.796,0.02,0.949,0.02c0.601,0,0.947-0.383,1.04-1.15c0.08-0.727,0.131-2.733,0.15-6.02h-3.92
			c-0.347,0.707-0.804,1.337-1.37,1.89l-0.21-0.28c0.873-0.86,1.463-1.903,1.77-3.13L54.748,136.557z M53.727,139.447h2.83v4.37
			h-2.83V139.447z M54.058,141.437h2.17v-1.68h-2.17V141.437z M56.227,143.507v-1.76h-2.17v1.76H56.227z"/>
	</g>
</g>
<g>
	
		<image overflow="visible" opacity="0.25" width="350" height="351" xlink:href="4A1C07B5648B1FC2.png"  transform="matrix(0.24 0 0 0.24 212.1078 86)">
	</image>
	<g>
		<g>
			<path fill-rule="evenodd" clip-rule="evenodd" fill="#FFFFFF" d="M254.108,95.5c17.949,0,32.5,14.551,32.5,32.5
				s-14.551,32.5-32.5,32.5c-17.949,0-32.5-14.551-32.5-32.5S236.159,95.5,254.108,95.5z"/>
			<path fill="#333333" d="M254.108,161.001c-18.196,0-33-14.804-33-33s14.804-33,33-33s33,14.804,33,33
				S272.304,161.001,254.108,161.001z M254.108,96.001c-17.645,0-32,14.355-32,32s14.355,32,32,32s32-14.355,32-32
				S271.752,96.001,254.108,96.001z"/>
		</g>
	</g>
</g>
</svg>
