<?xml version="1.0" standalone="no"?>
<!DOCTYPE svg PUBLIC "-//W3C//DTD SVG 1.1//EN" "http://www.w3.org/Graphics/SVG/1.1/DTD/svg11.dtd" >
<svg xmlns="http://www.w3.org/2000/svg">
<metadata>Generated by IcoMoon</metadata>
<defs>
<font id="icomoon" horiz-adv-x="1024">
<font-face units-per-em="1024" ascent="960" descent="-64" />
<missing-glyph horiz-adv-x="1024" />
<glyph unicode="&#x20;" horiz-adv-x="512" d="" />
<glyph unicode="&#xe900;" glyph-name="1" d="M772.726 595.535h-521.452c-15.202 0-27.569 12.288-27.569 27.569s12.367 27.569 27.569 27.569h521.452c15.202 0 27.569-12.288 27.569-27.569s-12.288-27.569-27.569-27.569zM772.726 420.431h-521.452c-15.202 0-27.569 12.288-27.569 27.569s12.367 27.569 27.569 27.569h521.452c15.202 0 27.569-12.288 27.569-27.569s-12.288-27.569-27.569-27.569zM772.726 245.406h-521.452c-15.202 0-27.569 12.288-27.569 27.569s12.367 27.569 27.569 27.569h521.452c15.202 0 27.569-12.288 27.569-27.569s-12.288-27.569-27.569-27.569z" />
<glyph unicode="&#xe901;" glyph-name="2" d="M729.954 202.476c-7.010 0-14.1 2.678-19.535 8.113l-435.909 435.988c-10.791 10.791-10.791 28.121 0 38.912s28.199 10.791 38.991 0l435.988-435.988c10.791-10.791 10.791-28.121 0-38.912-5.356-5.435-12.446-8.113-19.535-8.113zM294.046 202.476c-7.010 0-14.1 2.678-19.535 8.113-10.791 10.791-10.791 28.121 0 38.912l435.988 435.988c10.791 10.791 28.199 10.791 38.991 0s10.791-28.121 0-38.912l-435.988-436.066c-5.356-5.356-12.446-8.034-19.456-8.034z" />
<glyph unicode="&#xe902;" glyph-name="3" d="M512 36.116l-18.117 15.833c-13.154 11.5-322.324 284.436-322.324 467.653 0 187.707 152.734 340.362 340.441 340.362s340.441-152.655 340.441-340.362c0-183.138-309.169-456.074-322.324-467.653l-18.117-15.833zM512 804.825c-157.302 0-285.302-128-285.302-285.302 0-122.801 191.409-323.663 285.302-409.758 93.893 86.095 285.302 287.035 285.302 409.758 0 157.302-128 285.302-285.302 285.302zM512 348.987c-94.050 0-170.693 76.564-170.693 170.614s76.642 170.614 170.693 170.614 170.693-76.564 170.693-170.614-76.642-170.614-170.693-170.614zM512 635.156c-63.724 0-115.476-51.83-115.476-115.554s51.751-115.554 115.476-115.554 115.476 51.83 115.476 115.554-51.751 115.554-115.476 115.554z" />
<glyph unicode="&#xe903;" glyph-name="4" d="M773.041 42.417h-522.082c-41.275 0-74.91 33.556-74.91 74.831v493.726c0 41.275 33.634 74.831 74.91 74.831h522.161c41.275 0 74.91-33.556 74.91-74.831v-493.804c-0.079-41.275-33.713-74.752-74.988-74.752zM250.959 630.745c-10.87 0-19.692-8.901-19.692-19.771v-493.804c0-10.87 8.822-19.771 19.692-19.771h522.161c10.87 0 19.692 8.901 19.692 19.771v493.804c0 10.87-8.822 19.771-19.692 19.771h-522.161zM658.196 507.628c-15.202 0-27.569 12.288-27.569 27.569v144.699c0 65.378-53.169 118.626-118.626 118.626-65.378 0-118.548-53.248-118.548-118.626v-144.778c0-15.202-12.367-27.569-27.569-27.569s-27.569 12.288-27.569 27.569v144.778c0 95.783 77.903 173.686 173.765 173.686s173.686-77.903 173.686-173.686v-144.778c0-15.202-12.367-27.49-27.569-27.49z" />
<glyph unicode="&#xe904;" glyph-name="5" d="M594.235 312.281h-164.47c-15.202 0-27.569 12.288-27.569 27.569s12.367 27.569 27.569 27.569h164.549c15.202 0 27.569-12.288 27.569-27.569s-12.367-27.569-27.648-27.569zM512 230.046c-15.202 0-27.569 12.288-27.569 27.569v164.549c0 15.202 12.367 27.569 27.569 27.569s27.569-12.288 27.569-27.569v-164.549c0-15.202-12.367-27.569-27.569-27.569zM773.041 42.417h-522.082c-41.275 0-74.91 33.556-74.91 74.831v493.726c0 41.275 33.634 74.831 74.91 74.831h522.161c41.275 0 74.91-33.556 74.91-74.831v-493.804c-0.079-41.275-33.713-74.752-74.988-74.752zM250.959 630.745c-10.87 0-19.692-8.901-19.692-19.771v-493.804c0-10.87 8.822-19.771 19.692-19.771h522.161c10.87 0 19.692 8.901 19.692 19.771v493.804c0 10.87-8.822 19.771-19.692 19.771h-522.161zM658.117 507.628c-15.202 0-27.569 12.288-27.569 27.569v144.699c0 65.378-53.169 118.626-118.548 118.626s-118.548-53.248-118.548-118.626v-144.778c0-15.202-12.367-27.569-27.569-27.569s-27.569 12.288-27.569 27.569v144.778c0 95.783 77.903 173.686 173.765 173.686s173.686-77.903 173.686-173.686v-144.778c0-15.202-12.367-27.49-27.648-27.49z" />
<glyph unicode="&#xe905;" glyph-name="6" d="M699.313 595.535h-374.626c-15.202 0-27.569 12.288-27.569 27.569s12.367 27.569 27.569 27.569h374.626c15.202 0 27.569-12.288 27.569-27.569s-12.367-27.569-27.569-27.569zM699.313 420.431h-374.626c-15.202 0-27.569 12.288-27.569 27.569s12.367 27.569 27.569 27.569h374.626c15.202 0 27.569-12.288 27.569-27.569s-12.367-27.569-27.569-27.569zM699.313 245.406h-374.626c-15.202 0-27.569 12.288-27.569 27.569s12.367 27.569 27.569 27.569h374.626c15.202 0 27.569-12.288 27.569-27.569s-12.367-27.569-27.569-27.569zM773.041 70.459h-522.082c-41.275 0-74.91 33.556-74.91 74.831v605.42c0 41.275 33.634 74.831 74.91 74.831h522.161c41.275 0 74.91-33.556 74.91-74.831v-605.42c-0.079-41.275-33.713-74.831-74.988-74.831zM250.959 770.481c-10.87 0-19.692-8.901-19.692-19.771v-605.42c0-10.87 8.822-19.771 19.692-19.771h522.161c10.87 0 19.692 8.901 19.692 19.771v605.42c0 10.87-8.822 19.771-19.692 19.771h-522.161z" />
<glyph unicode="&#xe906;" glyph-name="7" d="M440.32 595.535h-111.616c-15.202 0-27.569 12.288-27.569 27.569s12.367 27.569 27.569 27.569h111.616c15.202 0 27.569-12.288 27.569-27.569s-12.367-27.569-27.569-27.569zM440.32 420.431h-111.616c-15.202 0-27.569 12.288-27.569 27.569s12.367 27.569 27.569 27.569h111.616c15.202 0 27.569-12.288 27.569-27.569s-12.367-27.569-27.569-27.569zM440.32 245.406h-111.616c-15.202 0-27.569 12.288-27.569 27.569s12.367 27.569 27.569 27.569h111.616c15.202 0 27.569-12.288 27.569-27.569s-12.367-27.569-27.569-27.569zM693.248 595.535h-111.616c-15.202 0-27.569 12.288-27.569 27.569s12.367 27.569 27.569 27.569h111.616c15.202 0 27.569-12.288 27.569-27.569s-12.367-27.569-27.569-27.569zM693.248 420.431h-111.616c-15.202 0-27.569 12.288-27.569 27.569s12.367 27.569 27.569 27.569h111.616c15.202 0 27.569-12.288 27.569-27.569s-12.367-27.569-27.569-27.569zM693.248 245.406h-111.616c-15.202 0-27.569 12.288-27.569 27.569s12.367 27.569 27.569 27.569h111.616c15.202 0 27.569-12.288 27.569-27.569s-12.367-27.569-27.569-27.569zM773.041 70.459h-522.082c-41.275 0-74.91 33.556-74.91 74.831v605.42c0 41.275 33.634 74.831 74.91 74.831h522.161c41.275 0 74.91-33.556 74.91-74.831v-605.42c-0.079-41.275-33.713-74.831-74.988-74.831zM250.959 770.481c-10.87 0-19.692-8.901-19.692-19.771v-605.42c0-10.87 8.822-19.771 19.692-19.771h522.161c10.87 0 19.692 8.901 19.692 19.771v605.42c0 10.87-8.822 19.771-19.692 19.771h-522.161z" />
<glyph unicode="&#xe907;" glyph-name="8" d="M379.195 595.535h-54.508c-15.202 0-27.569 12.288-27.569 27.569s12.367 27.569 27.569 27.569h54.508c15.202 0 27.569-12.288 27.569-27.569s-12.288-27.569-27.569-27.569zM379.195 420.431h-54.508c-15.202 0-27.569 12.288-27.569 27.569s12.367 27.569 27.569 27.569h54.508c15.202 0 27.569-12.288 27.569-27.569s-12.288-27.569-27.569-27.569zM379.195 245.406h-54.508c-15.202 0-27.569 12.288-27.569 27.569s12.367 27.569 27.569 27.569h54.508c15.202 0 27.569-12.288 27.569-27.569s-12.288-27.569-27.569-27.569zM699.313 595.535h-221.657c-15.202 0-27.569 12.288-27.569 27.569s12.367 27.569 27.569 27.569h221.578c15.202 0 27.569-12.288 27.569-27.569s-12.288-27.569-27.49-27.569zM699.313 420.431h-221.657c-15.202 0-27.569 12.288-27.569 27.569s12.367 27.569 27.569 27.569h221.578c15.202 0 27.569-12.288 27.569-27.569s-12.288-27.569-27.49-27.569zM699.313 245.406h-221.657c-15.202 0-27.569 12.288-27.569 27.569s12.367 27.569 27.569 27.569h221.578c15.202 0 27.569-12.288 27.569-27.569s-12.288-27.569-27.49-27.569zM773.12 70.459h-522.24c-41.275 0-74.831 33.556-74.831 74.831v605.42c0 41.275 33.556 74.831 74.831 74.831h522.161c41.275 0 74.831-33.556 74.831-74.831v-605.42c0.079-41.275-33.477-74.831-74.752-74.831zM250.88 770.481c-10.87 0-19.692-8.901-19.692-19.771v-605.42c0-10.87 8.822-19.771 19.692-19.771h522.161c10.87 0 19.692 8.901 19.692 19.771v605.42c0 10.87-8.822 19.771-19.692 19.771h-522.161z" />
<glyph unicode="&#xe908;" glyph-name="9" d="M773.12 70.459h-522.161c-41.275 0-74.91 33.556-74.91 74.831v605.42c0 41.275 33.634 74.831 74.91 74.831h380.928c21.583 0 42.142-9.295 56.399-25.521l141.233-161.792c11.894-13.627 18.432-31.193 18.432-49.231v-443.707c0-41.275-33.556-74.831-74.831-74.831zM250.959 770.481c-10.87 0-19.692-8.901-19.692-19.771v-605.42c0-10.87 8.822-19.771 19.692-19.771h522.161c10.87 0 19.771 8.901 19.771 19.771v443.707c0 4.805-1.733 9.295-4.962 12.918l-141.233 161.792c-3.702 4.254-9.137 6.774-14.809 6.774h-380.928zM820.382 564.421h-231.424v233.551h55.060v-178.491h176.364z" />
<glyph unicode="&#xe909;" glyph-name="10" d="M385.575 503.217h-103.818c-41.275 0-74.831 33.556-74.831 74.831v96.65c0 41.275 33.556 74.831 74.831 74.831h103.739c41.275 0 74.831-33.556 74.831-74.831v-96.729c0.079-41.275-33.477-74.752-74.752-74.752zM281.758 694.469c-10.87 0-19.771-8.901-19.771-19.771v-96.729c0-10.87 8.901-19.771 19.771-19.771h103.739c10.87 0 19.771 8.901 19.771 19.771v96.729c0 10.87-8.901 19.771-19.771 19.771h-103.739zM742.242 503.217h-103.739c-41.275 0-74.831 33.556-74.831 74.831v96.65c0 41.275 33.556 74.831 74.831 74.831h103.66c41.275 0 74.831-33.556 74.831-74.831v-96.729c0.079-41.275-33.477-74.752-74.752-74.752zM638.503 694.469c-10.87 0-19.771-8.901-19.771-19.771v-96.729c0-10.87 8.901-19.771 19.771-19.771h103.66c10.87 0 19.771 8.901 19.771 19.771v96.729c0 10.87-8.901 19.771-19.771 19.771h-103.66zM742.242 146.393h-103.739c-41.275 0-74.831 33.556-74.831 74.831v96.807c0 41.275 33.556 74.831 74.831 74.831h103.66c41.275 0 74.831-33.556 74.831-74.831v-96.807c0.079-41.275-33.477-74.831-74.752-74.831zM638.503 337.802c-10.87 0-19.771-8.901-19.771-19.771v-96.807c0-10.87 8.901-19.771 19.771-19.771h103.66c10.87 0 19.771 8.901 19.771 19.771v96.807c0 10.87-8.901 19.771-19.771 19.771h-103.66zM385.575 146.393h-103.818c-41.275 0-74.831 33.556-74.831 74.831v96.807c0 41.275 33.556 74.831 74.831 74.831h103.739c41.275 0 74.831-33.556 74.831-74.831v-96.807c0.079-41.275-33.477-74.831-74.752-74.831zM281.758 337.802c-10.87 0-19.771-8.901-19.771-19.771v-96.807c0-10.87 8.901-19.771 19.771-19.771h103.739c10.87 0 19.771 8.901 19.771 19.771v96.807c0 10.87-8.901 19.771-19.771 19.771h-103.739z" />
<glyph unicode="&#xe90a;" glyph-name="11" d="M561.388 82.983h-355.013c-41.275 0-74.91 33.556-74.91 74.831v339.18c0 41.275 33.634 74.831 74.91 74.831h355.013c41.275 0 74.91-33.556 74.91-74.831v-339.18c0-41.275-33.634-74.831-74.91-74.831zM206.375 516.766c-10.87 0-19.692-8.901-19.692-19.771v-339.18c0-10.87 8.822-19.771 19.692-19.771h355.013c10.87 0 19.692 8.901 19.692 19.771v339.18c0 10.87-8.822 19.771-19.692 19.771h-355.013zM817.625 400.502h-121.541c-15.202 0-27.569 12.288-27.569 27.569s12.367 27.569 27.569 27.569h121.462c10.87 0 19.692 8.901 19.692 19.771v262.774c0 10.87-8.822 19.771-19.692 19.771h-275.771c-10.87 0-19.692-8.901-19.692-19.771v-106.496c0-15.202-12.367-27.569-27.569-27.569s-27.569 12.288-27.569 27.569v106.496c0 41.275 33.634 74.831 74.91 74.831h275.85c41.275 0 74.91-33.556 74.91-74.831v-262.774c-0.079-41.354-33.713-74.91-74.988-74.91z" />
<glyph unicode="&#xe90b;" glyph-name="12" d="M443.786 90.151c-46.080 0-83.653 37.573-83.653 83.653s37.494 83.574 83.653 83.574c46.159 0 83.653-37.573 83.653-83.653s-37.494-83.574-83.653-83.574zM443.786 210.117c-20.007 0-36.391-16.305-36.391-36.391s16.384-36.391 36.391-36.391c20.086 0 36.391 16.305 36.391 36.391s-16.305 36.391-36.391 36.391zM804.313 90.151c-46.080 0-83.653 37.573-83.653 83.653s37.573 83.574 83.653 83.574c46.159 0 83.653-37.573 83.653-83.653s-37.494-83.574-83.653-83.574zM804.313 210.117c-20.007 0-36.391-16.305-36.391-36.391s16.384-36.391 36.391-36.391c20.086 0 36.391 16.305 36.391 36.391s-16.305 36.391-36.391 36.391zM810.457 301.804h-393.295c-25.285 0-46.868 17.25-52.539 41.826l-61.834 269.47c-2.836 4.332-4.49 9.452-4.49 14.966 0 1.182 0.079 2.284 0.236 3.466l-27.569 120.123-133.12-0.866c-15.202 0-27.569 12.288-27.569 27.569s12.367 27.569 27.569 27.569h134.302c25.364 0 47.025-17.25 52.618-41.905l24.812-108.308h510.188c16.226 0 31.429-7.168 41.748-19.771 10.24-12.524 14.336-28.83 11.185-44.662l-49.31-245.996c-5.041-25.285-27.333-43.481-52.933-43.481zM362.181 600.655l56.084-244.578 392.192 0.866 48.128 245.051-496.404-1.339z" />
<glyph unicode="&#xe90c;" glyph-name="13" d="M770.048 703.291h-516.096c-15.202 0-27.569 12.288-27.569 27.569s12.367 27.569 27.569 27.569h516.096c15.202 0 27.569-12.288 27.569-27.569s-12.367-27.569-27.569-27.569zM680.724 798.523h-337.447c-15.202 0-27.569 12.288-27.569 27.569s12.367 27.569 27.569 27.569h337.447c15.202 0 27.569-12.288 27.569-27.569s-12.367-27.569-27.569-27.569zM430.238 146.944c-15.202 0-27.569 12.288-27.569 27.569v352.571c0 15.202 12.367 27.569 27.569 27.569s27.569-12.288 27.569-27.569v-352.65c0-15.202-12.367-27.49-27.569-27.49zM593.762 146.944c-15.202 0-27.569 12.288-27.569 27.569v352.571c0 15.202 12.367 27.569 27.569 27.569s27.569-12.288 27.569-27.569v-352.65c0-15.202-12.288-27.49-27.569-27.49zM695.769 42.417h-367.537c-28.514 0-52.539 21.346-55.69 49.703l-57.502 504.832c-1.733 15.833 3.308 31.665 13.863 43.638s25.836 18.668 41.826 18.668h482.54c15.911 0 31.193-6.774 41.748-18.668 10.634-11.815 15.675-27.806 13.863-43.638l-57.423-504.911c-3.308-28.278-27.175-49.625-55.69-49.625zM270.73 604.199l56.635-505.856 368.404-0.866c0.473 0 0.788 0.394 0.866 0.866l57.423 504.911-483.328 0.945z" />
<glyph unicode="&#xe90d;" glyph-name="14" d="M770.048 703.291h-516.096c-15.202 0-27.569 12.288-27.569 27.569s12.367 27.569 27.569 27.569h516.096c15.202 0 27.569-12.288 27.569-27.569s-12.367-27.569-27.569-27.569zM680.724 798.523h-337.447c-15.202 0-27.569 12.288-27.569 27.569s12.367 27.569 27.569 27.569h337.447c15.202 0 27.569-12.288 27.569-27.569s-12.367-27.569-27.569-27.569zM695.769 42.417h-367.537c-28.436 0-52.382 21.346-55.69 49.625l-57.423 504.911c-1.812 15.833 3.23 31.744 13.785 43.638 10.634 11.894 25.836 18.668 41.826 18.668h482.462c15.99 0 31.193-6.774 41.826-18.668 10.634-11.815 15.675-27.806 13.863-43.638l-57.423-504.911c-3.23-28.278-27.175-49.625-55.69-49.625zM270.73 604.199l56.556-505.856 368.482-0.866c0.473 0 0.788 0.394 0.866 0.866l57.423 504.911-483.328 0.945z" />
<glyph unicode="&#xe90e;" glyph-name="15" d="M419.21 143.951c-15.202 0-27.569 12.288-27.569 27.569v276.48c0 15.202 12.367 27.569 27.569 27.569s27.569-12.288 27.569-27.569v-276.48c0-15.281-12.367-27.569-27.569-27.569zM604.869 143.951c-15.202 0-27.569 12.288-27.569 27.569v428.82c0 15.202 12.367 27.569 27.569 27.569s27.569-12.288 27.569-27.569v-428.82c0-15.281-12.367-27.569-27.569-27.569zM790.449 143.951c-15.202 0-27.569 12.288-27.569 27.569v552.96c0 15.202 12.367 27.569 27.569 27.569s27.569-12.288 27.569-27.569v-553.039c0-15.202-12.288-27.49-27.569-27.49zM233.551 143.951c-15.202 0-27.569 12.288-27.569 27.569v164.864c0 15.202 12.367 27.569 27.569 27.569s27.569-12.288 27.569-27.569v-164.864c0-15.281-12.367-27.569-27.569-27.569z" />
<glyph unicode="&#xe90f;" glyph-name="16" d="M693.248 643.742c-15.202 0-27.569 12.288-27.569 27.569v153.679c0 15.202 12.367 27.569 27.569 27.569s27.569-12.288 27.569-27.569v-153.679c0-15.281-12.367-27.569-27.569-27.569zM330.752 643.742c-15.202 0-27.569 12.288-27.569 27.569v153.679c0 15.202 12.367 27.569 27.569 27.569s27.569-12.288 27.569-27.569v-153.679c0-15.281-12.367-27.569-27.569-27.569zM866.855 528.345h-709.711c-15.202 0-27.569 12.288-27.569 27.569s12.367 27.569 27.569 27.569h709.632c15.202 0 27.569-12.288 27.569-27.569s-12.288-27.569-27.49-27.569zM812.426 43.52h-600.852c-45.214 0-81.999 36.785-81.999 81.999v568.162c0 45.214 36.785 81.999 81.999 81.999h600.773c45.214 0 81.999-36.785 81.999-81.999v-568.162c0.079-45.214-36.785-81.999-81.92-81.999zM211.574 720.542c-14.809 0-26.86-12.052-26.86-26.939v-568.162c0-14.809 12.052-26.939 26.86-26.939h600.773c14.809 0 26.86 12.052 26.86 26.939v568.241c0 14.809-12.052 26.939-26.86 26.939h-600.773z" />
<glyph unicode="&#xe910;" glyph-name="17" d="M693.248 643.742c-15.202 0-27.569 12.288-27.569 27.569v153.679c0 15.202 12.367 27.569 27.569 27.569s27.569-12.288 27.569-27.569v-153.679c0-15.281-12.288-27.569-27.569-27.569zM330.752 643.742c-15.202 0-27.569 12.288-27.569 27.569v153.679c0 15.202 12.367 27.569 27.569 27.569s27.569-12.288 27.569-27.569v-153.679c0-15.281-12.367-27.569-27.569-27.569zM866.855 528.345h-709.711c-15.202 0-27.569 12.288-27.569 27.569s12.367 27.569 27.569 27.569h709.711c15.202 0 27.569-12.288 27.569-27.569s-12.367-27.569-27.569-27.569zM812.426 43.52h-600.852c-45.214 0-81.999 36.785-81.999 81.999v568.162c0 45.214 36.785 81.999 81.999 81.999h600.852c45.214 0 81.999-36.785 81.999-81.999v-568.162c0-45.214-36.785-81.999-81.999-81.999zM211.574 720.542c-14.809 0-26.86-12.052-26.86-26.939v-568.162c0-14.809 12.052-26.939 26.86-26.939h600.852c14.809 0 26.86 12.052 26.86 26.939v568.241c0 14.809-12.052 26.939-26.86 26.939h-600.852zM464.030 201.137l-85.386 85.228c-10.791 10.791-10.791 28.199 0 38.991 10.791 10.713 28.278 10.791 38.991 0l46.316-46.238 142.415 143.045c10.713 10.713 28.199 10.87 38.991 0.079s10.791-28.199 0.079-38.991l-181.406-182.114z" />
<glyph unicode="&#xe911;" glyph-name="18" d="M772.726 684.859h-521.452c-15.202 0-27.569 12.288-27.569 27.569s12.367 27.569 27.569 27.569h521.452c15.202 0 27.569-12.288 27.569-27.569s-12.288-27.569-27.569-27.569zM570.998 509.755h-319.724c-15.202 0-27.569 12.288-27.569 27.569s12.367 27.569 27.569 27.569h319.803c15.202 0 27.569-12.288 27.569-27.569s-12.367-27.569-27.648-27.569zM772.726 334.73h-521.452c-15.202 0-27.569 12.288-27.569 27.569s12.367 27.569 27.569 27.569h521.452c15.202 0 27.569-12.288 27.569-27.569s-12.288-27.569-27.569-27.569zM570.998 156.081h-319.724c-15.202 0-27.569 12.288-27.569 27.569s12.367 27.569 27.569 27.569h319.803c15.202 0 27.569-12.288 27.569-27.569s-12.367-27.569-27.648-27.569z" />
<glyph unicode="&#xe912;" glyph-name="19" d="M772.805 684.859h-521.531c-15.202 0-27.569 12.288-27.569 27.569s12.367 27.569 27.569 27.569h521.531c15.202 0 27.569-12.288 27.569-27.569s-12.367-27.569-27.569-27.569zM772.805 509.755h-319.803c-15.202 0-27.569 12.288-27.569 27.569s12.288 27.569 27.569 27.569h319.803c15.202 0 27.569-12.288 27.569-27.569s-12.367-27.569-27.569-27.569zM772.805 334.73h-521.531c-15.202 0-27.569 12.288-27.569 27.569s12.367 27.569 27.569 27.569h521.531c15.202 0 27.569-12.288 27.569-27.569s-12.367-27.569-27.569-27.569zM772.805 156.081h-319.803c-15.202 0-27.569 12.288-27.569 27.569s12.288 27.569 27.569 27.569h319.803c15.202 0 27.569-12.288 27.569-27.569s-12.367-27.569-27.569-27.569z" />
<glyph unicode="&#xe913;" glyph-name="20" d="M772.726 684.859h-521.452c-15.202 0-27.569 12.288-27.569 27.569s12.288 27.569 27.569 27.569h521.452c15.202 0 27.569-12.288 27.569-27.569s-12.367-27.569-27.569-27.569zM671.902 509.755h-319.803c-15.202 0-27.569 12.288-27.569 27.569s12.288 27.569 27.569 27.569h319.803c15.202 0 27.569-12.288 27.569-27.569s-12.367-27.569-27.569-27.569zM772.726 334.73h-521.452c-15.202 0-27.569 12.288-27.569 27.569s12.288 27.569 27.569 27.569h521.452c15.202 0 27.569-12.288 27.569-27.569s-12.367-27.569-27.569-27.569zM671.902 156.081h-319.803c-15.202 0-27.569 12.288-27.569 27.569s12.288 27.569 27.569 27.569h319.803c15.202 0 27.569-12.288 27.569-27.569s-12.367-27.569-27.569-27.569z" />
<glyph unicode="&#xe914;" glyph-name="21" d="M795.175 340.953c-59.077 0-107.047 47.97-107.047 107.047 0 58.998 48.049 106.969 107.047 106.969s107.047-47.97 107.047-106.969c0-59.077-48.049-107.047-107.047-107.047zM795.175 499.988c-28.672 0-51.909-23.316-51.909-51.909 0-28.672 23.237-51.988 51.909-51.988 28.593 0 51.909 23.316 51.909 51.988 0 28.593-23.316 51.909-51.909 51.909zM512 340.953c-59.077 0-107.047 47.97-107.047 107.047 0 58.998 48.049 106.969 107.047 106.969s107.047-47.97 107.047-106.969c0-59.077-48.049-107.047-107.047-107.047zM512 499.988c-28.672 0-51.909-23.316-51.909-51.909 0-28.672 23.237-51.988 51.909-51.988 28.593 0 51.909 23.316 51.909 51.988 0 28.593-23.237 51.909-51.909 51.909zM228.903 340.953c-59.077 0-107.047 47.97-107.047 107.047 0 58.998 48.049 106.969 107.047 106.969s107.047-47.97 107.047-106.969c-0.079-59.077-48.049-107.047-107.047-107.047zM228.903 499.988c-28.672 0-51.909-23.316-51.909-51.909 0-28.672 23.237-51.988 51.909-51.988 28.593 0 51.909 23.316 51.909 51.988-0.079 28.593-23.316 51.909-51.909 51.909z" />
<glyph unicode="&#xe915;" glyph-name="22" d="M512 57.777c-59.077 0-107.047 47.97-107.047 107.047 0 58.998 48.049 106.969 107.047 106.969s107.047-47.97 107.047-106.969c0-58.998-48.049-107.047-107.047-107.047zM512 216.812c-28.672 0-51.909-23.316-51.909-51.909 0-28.672 23.237-51.988 51.909-51.988 28.593 0 51.909 23.316 51.909 51.988 0 28.593-23.237 51.909-51.909 51.909zM512 340.953c-59.077 0-107.047 47.97-107.047 107.047 0 58.998 48.049 106.969 107.047 106.969s107.047-47.97 107.047-106.969c0-59.077-48.049-107.047-107.047-107.047zM512 499.988c-28.672 0-51.909-23.316-51.909-51.909 0-28.672 23.237-51.988 51.909-51.988 28.593 0 51.909 23.316 51.909 51.988 0 28.593-23.237 51.909-51.909 51.909zM512 624.128c-59.077 0-107.047 47.97-107.047 107.047 0 58.998 48.049 106.969 107.047 106.969s107.047-47.97 107.047-106.969c0-59.077-48.049-107.047-107.047-107.047zM512 783.084c-28.672 0-51.909-23.316-51.909-51.909 0-28.672 23.237-51.988 51.909-51.988 28.593 0 51.909 23.316 51.909 51.988 0 28.593-23.237 51.909-51.909 51.909z" />
<glyph unicode="&#xe916;" glyph-name="23" d="M827.55 164.903h-631.178c-44.111 0-80.030 35.84-80.030 79.951v406.213c0 44.19 35.919 80.030 80.030 80.030h631.178c44.111 0 80.030-35.84 80.030-80.030v-406.213c0-44.111-35.919-79.951-80.030-79.951zM196.372 676.037c-13.706 0-24.812-11.264-24.812-24.891v-406.213c0-13.706 11.185-24.812 24.812-24.812h631.178c13.706 0 24.891 11.185 24.891 24.812v406.134c0 13.706-11.185 24.891-24.891 24.891h-631.178zM512 345.6c-26.466 0-52.854 9.689-73.964 28.987l-312.714 286.326 37.258 40.645 312.635-286.326c20.953-19.062 52.539-19.062 73.492 0l312.714 286.326 37.258-40.645-312.714-286.326c-21.11-19.298-47.498-28.987-73.964-28.987zM445.038 436.5l31.634-45.256-316.792-221.438-31.634 45.256 316.792 221.438zM583.46 439.669l312.665-224.823-32.19-44.767-312.665 224.823 32.19 44.767z" />
<glyph unicode="&#xe917;" glyph-name="24" d="M394.004 453.986c-8.034 0-16.069 3.466-21.425 10.24-9.61 11.815-7.719 29.223 4.175 38.754l164.706 132.726c11.894 9.295 29.223 7.641 38.676-4.175 9.61-11.815 7.719-29.223-4.175-38.754l-164.628-132.726c-5.12-4.096-11.264-6.065-17.329-6.065zM607.783 202.082c-4.017 0-8.192 0.866-12.052 2.757l-207.793 101.612c-13.706 6.774-19.377 23.316-12.682 36.864 6.695 13.706 23.158 19.456 36.864 12.682l207.793-101.612c13.706-6.695 19.377-23.237 12.682-36.864-4.805-9.767-14.572-15.439-24.812-15.439zM680.251 542.129c-82.235 0-149.11 66.875-149.11 149.11s66.875 149.031 149.11 149.031 149.11-66.875 149.11-149.11-66.875-149.031-149.11-149.031zM680.251 785.211c-51.83 0-93.972-42.142-93.972-93.972s42.142-93.972 93.972-93.972 93.972 42.142 93.972 93.972-42.142 93.972-93.972 93.972zM729.403 55.729c-82.235 0-149.11 66.954-149.11 149.189s66.875 149.031 149.11 149.031 149.189-66.875 149.189-149.11-67.033-149.11-149.189-149.11zM729.403 298.89c-51.83 0-93.972-42.142-93.972-93.972s42.142-94.050 93.972-94.050c51.83 0 93.972 42.22 93.972 94.050s-42.142 93.972-93.972 93.972zM294.597 252.889c-82.235 0-149.11 66.954-149.11 149.189s66.875 149.031 149.11 149.031 149.11-66.875 149.11-149.031-66.875-149.189-149.11-149.189zM294.597 496.049c-51.83 0-93.972-42.142-93.972-93.972s42.142-94.129 93.972-94.129 93.972 42.22 93.972 94.050-42.142 94.050-93.972 94.050z" />
<glyph unicode="&#xe918;" glyph-name="25" d="M512 445.243c-107.284 0-194.639 87.198-194.639 194.56s87.276 194.56 194.639 194.56c107.284 0 194.56-87.198 194.56-194.56s-87.276-194.56-194.56-194.56zM512 779.303c-76.958 0-139.5-62.622-139.5-139.5s62.543-139.422 139.5-139.422c76.879 0 139.422 62.622 139.422 139.5s-62.543 139.422-139.422 139.422zM761.462 61.637c-15.202 0-27.569 12.288-27.569 27.569v125.007c0 122.329-99.486 221.814-221.814 221.814s-221.893-99.564-221.893-221.814v-125.007c0-15.202-12.367-27.569-27.569-27.569s-27.569 12.288-27.569 27.569v125.007c0 152.655 124.298 276.953 277.031 276.953s277.031-124.219 277.031-276.953v-125.007c-0.079-15.281-12.446-27.569-27.648-27.569z" />
<glyph unicode="&#xe919;" glyph-name="26" d="M512 128.512l-13.154 7.168c-378.801 206.612-359.030 415.823-343.906 474.978 23.552 92.318 103.897 156.751 195.505 156.751 61.598 0 118.311-29.066 161.634-82.235 43.244 53.169 100.037 82.235 161.634 82.235 91.609 0 172.032-64.433 195.584-156.751 15.045-59.156 34.816-268.367-343.985-474.978l-13.312-7.168zM350.366 712.271c-66.324 0-124.77-47.419-142.1-115.239-12.446-48.837-26.624-220.79 303.734-405.662 330.437 184.871 316.18 356.825 303.734 405.662-17.25 67.82-75.697 115.239-142.1 115.239-49.073 0-94.759-26.624-128.63-74.831-15.202-21.662-50.727-21.662-65.851 0-34.028 48.286-79.714 74.831-128.788 74.831z" />
<glyph unicode="&#xe91a;" glyph-name="27" d="M451.899 159.39c-186.053 0-337.447 151.316-337.447 337.369 0 185.974 151.394 337.29 337.447 337.29s337.369-151.237 337.369-337.211c0-186.132-151.394-337.447-337.369-337.447zM451.899 779.067c-155.648 0-282.23-126.582-282.23-282.23s126.503-282.309 282.23-282.309c155.648 0 282.23 126.661 282.23 282.309s-126.661 282.23-282.23 282.23zM881.979 61.873c-7.010 0-14.1 2.678-19.535 8.113l-183.611 183.611c-10.791 10.791-10.791 28.121 0 38.912s28.199 10.791 38.991 0l183.611-183.611c10.791-10.791 10.791-28.121 0-38.912-5.356-5.435-12.446-8.113-19.456-8.113z" />
<glyph unicode="&#xe91b;" glyph-name="28" d="M563.83 469.268h-223.941c-15.202 0-27.569 12.288-27.569 27.569s12.367 27.569 27.569 27.569h223.941c15.202 0 27.569-12.288 27.569-27.569s-12.367-27.569-27.569-27.569zM451.899 159.39c-186.053 0-337.447 151.316-337.447 337.369 0 185.974 151.394 337.29 337.447 337.29s337.369-151.237 337.369-337.211c0-186.132-151.394-337.447-337.369-337.447zM451.899 779.067c-155.648 0-282.23-126.582-282.23-282.23s126.503-282.309 282.23-282.309c155.648 0 282.23 126.661 282.23 282.309s-126.661 282.23-282.23 282.23zM881.979 61.873c-7.010 0-14.1 2.678-19.535 8.113l-183.611 183.611c-10.791 10.791-10.791 28.121 0 38.912s28.199 10.791 38.991 0l183.611-183.611c10.791-10.791 10.791-28.121 0-38.912-5.356-5.435-12.446-8.113-19.456-8.113z" />
<glyph unicode="&#xe91c;" glyph-name="29" d="M563.83 469.268h-224.020c-15.202 0-27.569 12.288-27.569 27.569s12.288 27.569 27.569 27.569h224.020c15.202 0 27.569-12.288 27.569-27.569s-12.288-27.569-27.569-27.569zM451.82 357.258c-15.202 0-27.569 12.288-27.569 27.569v224.020c0 15.202 12.288 27.569 27.569 27.569s27.569-12.288 27.569-27.569v-224.020c0-15.281-12.288-27.569-27.569-27.569zM451.82 159.39c-186.053 0-337.369 151.316-337.369 337.369 0 185.974 151.316 337.29 337.369 337.29s337.369-151.316 337.369-337.29c0.079-186.053-151.237-337.369-337.369-337.369zM451.82 779.067c-155.648 0-282.23-126.582-282.23-282.23s126.582-282.309 282.23-282.309 282.309 126.661 282.309 282.309-126.661 282.23-282.309 282.23zM881.979 61.873c-7.089 0-14.1 2.678-19.456 8.113l-183.611 183.611c-10.791 10.791-10.791 28.121 0 38.912s28.121 10.791 38.912 0l183.611-183.611c10.791-10.791 10.791-28.121 0-38.912-5.356-5.435-12.367-8.113-19.456-8.113z" />
<glyph unicode="&#xe91d;" glyph-name="30" d="M701.204 99.367c-9.531 0-18.668 2.284-27.333 6.853l-160.295 84.204-163.446-84.204c-24.261-12.603-54.823-6.617-72.231 14.178-11.185 13.076-15.833 30.484-12.918 47.577l30.641 178.57-130.678 129.339c-16.148 15.754-21.74 38.833-14.809 60.258 6.932 21.346 25.049 36.628 47.34 39.857l179.121 26.073 82.865 164.313c19.85 40.33 85.15 40.33 105.157 0l80.030-162.422 181.957-27.963c22.213-3.23 40.409-18.511 47.34-39.936s1.339-44.426-14.809-60.18l-129.733-126.346 29.617-181.484c2.993-17.172-1.654-34.501-12.761-47.655-11.343-13.312-27.727-21.031-45.056-21.031zM512 246.036c9.531 0 18.983-2.363 27.412-6.774l161.871-84.677c1.024 0 2.048 0.551 2.757 1.418l-29.932 181.248c-3.308 18.983 2.993 38.361 16.699 51.751l129.733 126.425-181.169 31.98c-18.983 2.836-35.525 14.809-44.111 32.138l-80.030 162.343-86.567-162.343c-8.507-17.329-25.049-29.302-44.111-32.059l-179.2-26.073 127.685-132.332c13.942-13.627 20.165-33.004 16.857-51.988l-30.641-178.412 165.415 80.502c8.428 4.49 17.881 6.853 27.333 6.853z" />
<glyph unicode="&#xe91e;" glyph-name="31" d="M707.033 66.127c-11.737 0-23.316 3.466-33.398 9.925l-166.676 178.018-155.884-176.443c-23.631-15.754-56.32-12.839-76.721 6.695-12.209 11.579-18.983 27.49-18.983 44.426v634.722c0 36.628 29.775 66.402 66.481 66.402h380.298c36.628 0 66.481-29.775 66.481-66.402v-635.825c0-33.95-27.648-61.519-61.598-61.519zM508.692 305.9c11.894 0 23.473-3.466 33.477-9.925l166.676-178.018-1.812 3.308c2.048 0 6.459 1.575 6.459 6.38v635.825c0 6.223-5.041 11.343-11.343 11.343h-380.298c-6.223 0-11.343-5.041-11.343-11.343v-634.801c0-2.993 3.387-6.459 6.459-6.459l157.538 173.214c10.161 6.853 21.977 10.476 34.186 10.476z" />
<glyph unicode="&#xe91f;" glyph-name="32" d="M458.988 570.407c0-33.323-27.014-60.337-60.337-60.337s-60.337 27.014-60.337 60.337c0 33.323 27.014 60.337 60.337 60.337s60.337-27.014 60.337-60.337zM553.748 92.042c-19.85 0-38.518 7.798-52.618 21.819l-322.954 322.954c-17.329 17.329-24.97 41.984-20.638 65.93l37.888 209.054c5.75 31.271 30.641 55.375 61.991 60.18l201.019 31.035c23.001 3.86 47.419-4.411 63.961-20.953l323.505-323.505c28.987-28.987 28.987-76.17 0-105.157l-239.616-239.537c-14.021-14.021-32.689-21.819-52.539-21.819zM469.78 748.82l-204.012-31.271c-8.192-1.26-14.572-7.483-16.069-15.596l-37.888-209.054c-1.103-6.223 0.866-12.603 5.356-17.172l322.954-322.954c7.326-7.247 19.929-7.247 27.254 0l239.616 239.537c7.483 7.562 7.483 19.771 0 27.333l-323.584 323.505c-3.623 3.545-8.586 5.671-13.627 5.671z" />
<glyph unicode="&#xe920;" glyph-name="33" d="M727.119 213.74c-15.202 0-27.569 12.288-27.569 27.569v426.614c0 15.202 12.367 27.569 27.569 27.569s27.569-12.288 27.569-27.569v-426.614c0-15.281-12.288-27.569-27.569-27.569zM583.916 213.74c-15.202 0-27.569 12.288-27.569 27.569v261.514c0 15.202 12.367 27.569 27.569 27.569s27.569-12.288 27.569-27.569v-261.514c0-15.281-12.288-27.569-27.569-27.569zM440.714 213.74c-15.202 0-27.569 12.288-27.569 27.569v426.614c0 15.202 12.367 27.569 27.569 27.569s27.569-12.288 27.569-27.569v-426.614c0-15.281-12.367-27.569-27.569-27.569zM294.597 213.74c-15.202 0-27.569 12.288-27.569 27.569v261.514c0 15.202 12.367 27.569 27.569 27.569s27.569-12.288 27.569-27.569v-261.514c0-15.281-12.367-27.569-27.569-27.569zM881.428 101.73h-766.425v664.97c0 15.202 12.367 27.569 27.569 27.569s27.569-12.288 27.569-27.569v-609.91h711.286c15.202 0 27.569-12.288 27.569-27.569s-12.288-27.49-27.569-27.49z" />
<glyph unicode="&#xe921;" glyph-name="34" d="M881.428 101.73h-766.503v664.97c0 15.202 12.367 27.569 27.569 27.569s27.569-12.288 27.569-27.569v-609.91h711.365c15.202 0 27.569-12.288 27.569-27.569s-12.288-27.49-27.569-27.49zM255.842 223.823c-6.065 0-12.209 1.89-17.25 6.065-11.894 9.531-13.785 26.939-4.175 38.754l210.471 261.514 156.278-121.226 175.577 193.142c10.161 11.343 27.648 12.288 38.912 1.89 11.264-10.24 12.13-27.727 1.812-38.912l-209.762-230.873-153.836 119.257-176.522-219.372c-5.435-6.774-13.47-10.24-21.504-10.24z" />
<glyph unicode="&#xe922;" glyph-name="35" d="M885.918 65.182h-399.99c-15.202 0-27.569 12.288-27.569 27.569s12.367 27.569 27.569 27.569h344.852v655.439h-344.852c-15.202 0-27.569 12.288-27.569 27.569s12.367 27.569 27.569 27.569h399.99v-765.716zM618.023 420.51h-452.372c-15.202 0-27.569 12.288-27.569 27.569s12.367 27.569 27.569 27.569h452.372c15.202 0 27.569-12.288 27.569-27.569s-12.288-27.569-27.569-27.569zM504.596 285.735c-7.010 0-14.1 2.678-19.535 8.113-10.791 10.713-10.791 28.121 0 38.912l115.239 115.239-115.239 115.318c-10.791 10.791-10.791 28.199 0 38.912 10.791 10.791 28.199 10.791 38.991 0l154.23-154.23-154.23-154.23c-5.356-5.356-12.446-8.034-19.456-8.034z" />
<glyph unicode="&#xe923;" glyph-name="36" d="M894.818 68.411h-765.637v399.911c0 15.202 12.367 27.569 27.569 27.569s27.569-12.288 27.569-27.569v-344.852h655.36v344.852c0 15.202 12.367 27.569 27.569 27.569s27.569-12.288 27.569-27.569v-399.911zM512 287.39c-15.202 0-27.569 12.288-27.569 27.569v452.372c0 15.202 12.367 27.569 27.569 27.569s27.569-12.288 27.569-27.569v-452.372c0-15.202-12.367-27.569-27.569-27.569zM377.226 626.255c-7.010 0-14.1 2.678-19.535 8.113-10.791 10.791-10.791 28.121 0 38.912l154.309 154.309 154.23-154.309c10.791-10.791 10.791-28.199 0-38.912-10.791-10.791-28.199-10.791-38.991 0l-115.239 115.239-115.239-115.239c-5.435-5.435-12.524-8.113-19.535-8.113z" />
<glyph unicode="&#xe924;" glyph-name="37" d="M512 314.407c-15.202 0-27.569 12.288-27.569 27.569v452.293c0 15.202 12.367 27.569 27.569 27.569s27.569-12.288 27.569-27.569v-452.372c0-15.202-12.367-27.49-27.569-27.49zM894.818 74.161h-765.637v399.911c0 15.202 12.367 27.569 27.569 27.569s27.569-12.288 27.569-27.569v-344.852h655.36v344.852c0 15.202 12.367 27.569 27.569 27.569s27.569-12.288 27.569-27.569v-399.911zM512 281.718l-154.23 154.309c-10.791 10.791-10.791 28.121 0 38.912s28.199 10.791 38.991 0l115.239-115.239 115.239 115.239c10.791 10.791 28.199 10.791 38.991 0 10.791-10.713 10.791-28.121 0-38.912l-154.23-154.309z" />
<glyph unicode="&#xe925;" glyph-name="38" d="M298.142 154.27c-15.202 0-27.569 12.288-27.569 27.569v508.534c0 15.202 12.367 27.569 27.569 27.569s27.569-12.288 27.569-27.569v-508.613c0-15.202-12.367-27.49-27.569-27.49zM449.615 535.198c-7.010 0-14.1 2.678-19.535 8.113l-131.938 131.938-132.017-131.938c-10.791-10.791-28.199-10.791-38.991 0s-10.791 28.199 0 38.912l171.008 171.008 171.008-171.008c10.791-10.713 10.791-28.121 0-38.912-5.435-5.356-12.446-8.113-19.535-8.113zM725.858 178.137c-15.202 0-27.569 12.288-27.569 27.569v508.534c0 15.202 12.367 27.569 27.569 27.569s27.569-12.288 27.569-27.569v-508.534c0-15.281-12.367-27.569-27.569-27.569zM725.858 142.769l-171.008 171.087c-10.791 10.791-10.791 28.199 0 38.912 10.791 10.791 28.199 10.791 38.991 0l132.017-132.017 132.017 132.017c10.791 10.791 28.199 10.791 38.991 0 10.791-10.713 10.791-28.121 0-38.912l-171.008-171.087z" />
<glyph unicode="&#xe926;" glyph-name="39" d="M754.294 634.289h-508.534c-15.202 0-27.569 12.288-27.569 27.569s12.367 27.569 27.569 27.569h508.534c15.202 0 27.569-12.288 27.569-27.569s-12.288-27.569-27.569-27.569zM626.767 482.816c-7.089 0-14.1 2.678-19.456 8.113-10.791 10.791-10.791 28.121 0 38.912l131.938 132.017-131.938 132.096c-10.791 10.791-10.791 28.199 0 38.912 10.791 10.791 28.121 10.791 38.912 0l171.008-171.008-171.008-170.929c-5.356-5.356-12.367-8.113-19.456-8.113zM778.24 206.651h-508.613c-15.202 0-27.569 12.288-27.569 27.569s12.367 27.569 27.569 27.569h508.613c15.202 0 27.569-12.288 27.569-27.569s-12.367-27.569-27.569-27.569zM397.233 55.099c-7.089 0-14.1 2.678-19.456 8.113l-171.008 170.929 171.008 171.008c10.634 10.791 28.121 10.791 38.912 0 10.791-10.713 10.791-28.121 0-38.912l-131.938-132.175 131.938-132.017c10.791-10.791 10.791-28.121 0-38.912-5.356-5.356-12.367-8.034-19.456-8.034z" />
<glyph unicode="&#xe927;" glyph-name="40" d="M733.657 268.958c-7.089 0-14.1 2.678-19.456 8.113-10.791 10.791-10.791 28.121 0 38.912l132.017 132.017-132.017 132.017c-10.791 10.713-10.791 28.121 0 38.912 10.634 10.791 28.121 10.791 38.912 0l171.087-170.929-171.087-170.929c-5.356-5.435-12.367-8.113-19.456-8.113zM885.209 420.51h-722.55c-15.202 0-27.569 12.288-27.569 27.569s12.288 27.569 27.569 27.569h722.55c15.202 0 27.569-12.288 27.569-27.569s-12.367-27.569-27.569-27.569zM290.265 268.958c-7.089 0-14.1 2.678-19.456 8.113l-171.008 170.929 171.008 170.929c10.791 10.791 28.121 10.791 38.912 0s10.791-28.121 0-38.912l-131.938-132.017 131.938-132.096c10.791-10.791 10.791-28.199 0-38.912-5.356-5.356-12.367-8.034-19.456-8.034z" />
<glyph unicode="&#xe928;" glyph-name="41" d="M512 35.801l-171.008 171.087c-10.791 10.791-10.791 28.199 0 38.912 10.791 10.791 28.199 10.791 38.991 0l132.017-132.017 132.017 132.017c10.791 10.791 28.199 10.791 38.991 0 10.791-10.713 10.791-28.121 0-38.912l-171.008-171.087zM512 47.301c-15.202 0-27.569 12.288-27.569 27.569v722.471c0 15.202 12.367 27.569 27.569 27.569s27.569-12.288 27.569-27.569v-722.55c0-15.202-12.367-27.49-27.569-27.49zM663.473 642.166c-7.010 0-14.1 2.757-19.456 8.113l-132.017 131.938-132.017-131.938c-10.791-10.791-28.199-10.791-38.991 0s-10.791 28.199 0 38.912l171.008 171.008 171.008-171.008c10.791-10.713 10.791-28.121 0-38.912-5.356-5.356-12.446-8.113-19.535-8.113z" />
<glyph unicode="&#xe929;" glyph-name="42" d="M740.903 420.431h-457.807c-15.202 0-27.569 12.288-27.569 27.569s12.367 27.569 27.569 27.569h457.807c15.202 0 27.569-12.288 27.569-27.569s-12.367-27.569-27.569-27.569z" />
<glyph unicode="&#xe92a;" glyph-name="43" d="M740.903 374.036h-457.807c-15.202 0-27.569 12.288-27.569 27.569s12.367 27.569 27.569 27.569h457.807c15.202 0 27.569-12.288 27.569-27.569s-12.367-27.569-27.569-27.569zM512 145.132c-15.202 0-27.569 12.288-27.569 27.569v457.807c0 15.202 12.367 27.569 27.569 27.569s27.569-12.288 27.569-27.569v-457.886c0-15.202-12.288-27.49-27.569-27.49z" />
<glyph unicode="&#xe92b;" glyph-name="44" d="M512 456.271c-15.202 0-27.569 12.288-27.569 27.569v289.083c0 15.202 12.367 27.569 27.569 27.569s27.569-12.288 27.569-27.569v-289.162c0-15.202-12.288-27.49-27.569-27.49zM512 95.508c-177.782 0-322.481 144.62-322.481 322.481 0 123.825 72.31 238.198 184.162 291.367 13.627 6.38 30.169 0.709 36.706-13.076s0.709-30.247-13.076-36.785c-92.79-44.111-152.655-138.87-152.655-241.506 0-147.377 119.887-267.422 267.343-267.422 147.377 0 267.343 119.966 267.343 267.422 0 104.606-61.519 200.153-156.751 243.476-13.863 6.302-20.007 22.607-13.706 36.391 6.302 13.942 22.607 20.086 36.549 13.706 114.846-52.224 189.046-167.463 189.046-293.652 0-177.782-144.62-322.402-322.481-322.402z" />
<glyph unicode="&#xe92c;" glyph-name="45" d="M587.303 420.51h-164.628c-15.202 0-27.569 12.288-27.569 27.569s12.367 27.569 27.569 27.569h164.549c15.202 0 27.569-12.288 27.569-27.569s-12.288-27.569-27.49-27.569zM512 125.598c-177.782 0-322.481 144.62-322.481 322.481 0 177.782 144.62 322.402 322.481 322.402s322.481-144.62 322.481-322.402c0-177.861-144.699-322.481-322.481-322.481zM512 715.343c-147.377 0-267.343-119.887-267.343-267.343s119.966-267.343 267.343-267.343 267.343 119.966 267.343 267.343-119.966 267.343-267.343 267.343z" />
<glyph unicode="&#xe92d;" glyph-name="46" d="M594.314 420.51h-164.628c-15.202 0-27.569 12.288-27.569 27.569s12.367 27.569 27.569 27.569h164.549c15.202 0 27.569-12.288 27.569-27.569s-12.288-27.569-27.49-27.569zM512 338.196c-15.202 0-27.569 12.288-27.569 27.569v164.47c0 15.202 12.367 27.569 27.569 27.569s27.569-12.288 27.569-27.569v-164.549c0-15.202-12.288-27.49-27.569-27.49zM512 125.598c-177.782 0-322.481 144.62-322.481 322.481 0 177.782 144.699 322.402 322.481 322.402s322.481-144.62 322.481-322.402c0-177.861-144.62-322.481-322.481-322.481zM512 715.343c-147.456 0-267.343-119.887-267.343-267.343s119.966-267.343 267.343-267.343c147.377 0 267.343 119.966 267.343 267.422s-119.966 267.264-267.343 267.264z" />
<glyph unicode="&#xe92e;" glyph-name="47" d="M464.345 328.35l-84.834 84.834c-10.791 10.791-10.791 28.121 0 38.912s28.199 10.791 38.991 0l45.765-45.765 141.233 141.785c10.791 10.713 28.199 10.87 38.991 0.079s10.791-28.199 0.079-38.991l-180.224-180.854zM512 125.598c-177.782 0-322.481 144.62-322.481 322.481 0 177.782 144.699 322.402 322.481 322.402s322.481-144.62 322.481-322.402c0-177.861-144.62-322.481-322.481-322.481zM512 715.343c-147.456 0-267.343-119.887-267.343-267.343s119.966-267.343 267.343-267.343c147.377 0 267.343 119.966 267.343 267.422s-119.966 267.264-267.343 267.264z" />
<glyph unicode="&#xe92f;" glyph-name="48" d="M592.66 339.771c-7.010 0-14.1 2.678-19.535 8.113l-161.241 161.319c-10.791 10.713-10.791 28.121 0 38.912s28.199 10.791 38.991 0l161.319-161.319c10.791-10.713 10.791-28.121 0-38.912-5.356-5.356-12.446-8.113-19.535-8.113zM431.34 339.771c-7.010 0-14.1 2.678-19.535 8.113-10.791 10.791-10.791 28.199 0 38.912l161.319 161.319c10.791 10.791 28.199 10.791 38.991 0s10.791-28.199 0-38.912l-161.241-161.319c-5.435-5.356-12.524-8.113-19.535-8.113zM512 125.598c-177.782 0-322.481 144.62-322.481 322.481 0 177.782 144.62 322.402 322.481 322.402s322.481-144.62 322.481-322.402c0-177.861-144.699-322.481-322.481-322.481zM512 715.343c-147.377 0-267.343-119.887-267.343-267.343s119.966-267.343 267.343-267.343 267.343 119.966 267.343 267.343-119.966 267.343-267.343 267.343z" />
<glyph unicode="&#xe930;" glyph-name="49" d="M739.486 254.385c-5.671 0-11.422 1.654-16.226 5.278l-454.971 332.249c-12.288 8.901-14.966 26.23-5.986 38.439s26.388 14.966 38.518 5.986l454.892-332.249c12.288-8.901 14.966-26.23 5.986-38.439-5.356-7.404-13.785-11.264-22.213-11.264zM512 125.598c-177.782 0-322.481 144.62-322.481 322.481 0 177.782 144.699 322.402 322.481 322.402 177.861 0 322.481-144.62 322.481-322.402 0-177.861-144.62-322.481-322.481-322.481zM512 715.343c-147.377 0-267.343-119.887-267.343-267.343s119.966-267.343 267.343-267.343 267.422 119.966 267.422 267.343-120.044 267.343-267.422 267.343z" />
<glyph unicode="&#xe931;" glyph-name="50" d="M396.288 384.906c-7.089 0-14.1 2.678-19.456 8.034-10.791 10.713-10.791 28.199-0.079 38.991l135.247 135.326 135.247-135.326c10.791-10.791 10.791-28.121 0-38.912s-28.121-10.791-38.912 0l-96.335 96.177-96.177-96.177c-5.435-5.435-12.446-8.113-19.535-8.113zM512 125.519c-177.782 0-322.402 144.62-322.402 322.481s144.62 322.481 322.402 322.481c177.861 0 322.481-144.62 322.481-322.481s-144.699-322.481-322.481-322.481zM512 715.422c-147.377 0-267.343-119.966-267.343-267.422s119.887-267.422 267.343-267.422 267.343 120.044 267.343 267.422-119.966 267.422-267.343 267.422z" />
<glyph unicode="&#xe932;" glyph-name="51" d="M476.475 304.719c-7.010 0-14.1 2.678-19.535 8.113-10.791 10.713-10.791 28.121 0 38.912l96.256 96.256-96.177 96.256c-10.791 10.713-10.791 28.121 0 38.912s28.199 10.791 38.991 0l135.168-135.168-135.168-135.168c-5.435-5.435-12.524-8.113-19.535-8.113zM512 125.598c-177.782 0-322.481 144.62-322.481 322.481 0 177.782 144.699 322.402 322.481 322.402s322.481-144.62 322.481-322.402c0-177.861-144.62-322.481-322.481-322.481zM512 715.343c-147.456 0-267.343-119.887-267.343-267.343s119.966-267.343 267.343-267.343c147.377 0 267.343 119.966 267.343 267.422s-119.966 267.264-267.343 267.264z" />
<glyph unicode="&#xe933;" glyph-name="52" d="M512 125.598c-177.782 0-322.481 144.62-322.481 322.481 0 177.782 144.699 322.402 322.481 322.402s322.481-144.62 322.481-322.402c0-177.861-144.62-322.481-322.481-322.481zM512 715.343c-147.456 0-267.343-119.887-267.343-267.343s119.966-267.343 267.343-267.343c147.377 0 267.343 119.966 267.343 267.422s-119.966 267.264-267.343 267.264zM512 323.466l-135.247 135.326c-10.791 10.791-10.791 28.121 0 38.912s28.199 10.791 38.991 0l96.256-96.177 96.256 96.256c10.791 10.791 28.199 10.791 38.991 0 10.791-10.713 10.791-28.121 0-38.912l-135.247-135.404z" />
<glyph unicode="&#xe934;" glyph-name="53" d="M547.525 304.719c-7.010 0-14.1 2.678-19.535 8.113l-135.168 135.168 135.247 135.168c10.791 10.791 28.199 10.791 38.991 0s10.791-28.199 0-38.912l-96.256-96.256 96.256-96.335c10.791-10.791 10.791-28.199 0-38.912-5.435-5.356-12.446-8.034-19.535-8.034zM512 125.598c-177.782 0-322.481 144.62-322.481 322.481 0 177.782 144.62 322.402 322.481 322.402s322.481-144.62 322.481-322.402c0-177.861-144.699-322.481-322.481-322.481zM512 715.343c-147.377 0-267.343-119.887-267.343-267.343s119.966-267.343 267.343-267.343 267.343 119.966 267.343 267.343-119.966 267.343-267.343 267.343z" />
<glyph unicode="&#xe935;" glyph-name="54" d="M512 125.598c-177.782 0-322.481 144.62-322.481 322.481 0 177.782 144.62 322.402 322.481 322.402s322.481-144.62 322.481-322.402c0-177.861-144.699-322.481-322.481-322.481zM512 715.343c-147.377 0-267.343-119.887-267.343-267.343s119.966-267.343 267.343-267.343 267.343 119.966 267.343 267.343-119.966 267.343-267.343 267.343zM621.41 436.894l-158.641-110.828c-8.98-6.302-21.346 0.158-21.346 11.106v221.657c0 10.949 12.367 17.408 21.346 11.106l158.641-110.828c7.719-5.356 7.719-16.778 0-22.213z" />
<glyph unicode="&#xe936;" glyph-name="55" d="M428.82 321.733c-15.202 0-27.569 12.288-27.569 27.569v196.923c0 15.202 12.367 27.569 27.569 27.569s27.569-12.288 27.569-27.569v-196.923c0-15.281-12.288-27.569-27.569-27.569zM512 125.598c-177.782 0-322.481 144.62-322.481 322.481 0 177.782 144.62 322.402 322.481 322.402s322.481-144.62 322.481-322.402c0-177.861-144.699-322.481-322.481-322.481zM512 715.343c-147.377 0-267.343-119.887-267.343-267.343s119.966-267.343 267.343-267.343 267.343 119.966 267.343 267.343-119.966 267.343-267.343 267.343zM666.073 436.894l-158.641-110.828c-8.98-6.302-21.346 0.158-21.346 11.106v221.657c0 10.949 12.367 17.408 21.346 11.106l158.641-110.828c7.719-5.356 7.719-16.778 0-22.213z" />
<glyph unicode="&#xe937;" glyph-name="56" d="M577.221 333.863c-15.202 0-27.569 12.288-27.569 27.569v173.135c0 15.202 12.367 27.569 27.569 27.569s27.569-12.288 27.569-27.569v-173.135c0-15.202-12.367-27.569-27.569-27.569zM446.779 333.863c-15.202 0-27.569 12.288-27.569 27.569v173.135c0 15.202 12.367 27.569 27.569 27.569s27.569-12.288 27.569-27.569v-173.135c0-15.202-12.367-27.569-27.569-27.569zM512 125.598c-177.782 0-322.481 144.62-322.481 322.481 0 177.782 144.699 322.402 322.481 322.402s322.481-144.62 322.481-322.402c0-177.861-144.62-322.481-322.481-322.481zM512 715.343c-147.456 0-267.343-119.887-267.343-267.343s119.966-267.343 267.343-267.343c147.377 0 267.343 119.966 267.343 267.422s-119.966 267.264-267.343 267.264z" />
<glyph unicode="&#xe938;" glyph-name="57" d="M512 125.598c-177.782 0-322.481 144.62-322.481 322.481 0 177.782 144.62 322.402 322.481 322.402s322.481-144.62 322.481-322.402c0-177.861-144.699-322.481-322.481-322.481zM512 715.343c-147.377 0-267.343-119.887-267.343-267.343s119.966-267.343 267.343-267.343 267.343 119.966 267.343 267.343-119.966 267.343-267.343 267.343zM559.025 436.894l-158.562-110.828c-8.98-6.302-21.346 0.158-21.346 11.106v221.657c0 10.949 12.367 17.408 21.346 11.106l158.641-110.828c7.641-5.356 7.641-16.778-0.079-22.213zM691.988 436.894l-158.641-110.828c-8.98-6.302-21.346 0.158-21.346 11.106v221.657c0 10.949 12.367 17.408 21.346 11.106l158.641-110.828c7.719-5.356 7.719-16.778 0-22.213z" />
<glyph unicode="&#xe939;" glyph-name="58" d="M512 125.598c-177.782 0-322.481 144.62-322.481 322.481 0 177.782 144.62 322.402 322.481 322.402s322.481-144.62 322.481-322.402c0-177.861-144.699-322.481-322.481-322.481zM512 715.343c-147.377 0-267.343-119.887-267.343-267.343s119.966-267.343 267.343-267.343c147.456 0 267.343 119.966 267.343 267.422s-119.966 267.264-267.343 267.264zM464.975 459.106l158.641 110.828c8.98 6.302 21.346-0.158 21.346-11.106v-221.657c0-10.949-12.367-17.408-21.346-11.106l-158.641 110.828c-7.719 5.435-7.719 16.857 0 22.213zM332.012 459.106l158.641 110.828c8.98 6.302 21.346-0.158 21.346-11.106v-221.657c0-10.949-12.367-17.408-21.346-11.106l-158.641 110.828c-7.719 5.435-7.719 16.857 0 22.213z" />
<glyph unicode="&#xe93a;" glyph-name="59" d="M771.308 424.29l-110.828 89.088c-11.815 9.531-13.706 26.86-4.175 38.754s26.703 13.863 38.754 4.175l67.663-54.43 55.060 68.844c9.452 11.894 26.939 13.863 38.754 4.332 11.894-9.531 13.785-26.939 4.332-38.754l-89.561-112.010zM478.759 125.44c-75.776 0-148.401 26.388-207.006 75.776-136.113 114.53-153.6 318.306-39.148 454.42 55.454 65.851 133.199 106.26 219.057 113.585 86.095 7.641 169.354-19.062 235.284-74.516 56.32-47.577 93.814-110.671 108.386-182.666 3.072-14.887-6.617-29.46-21.504-32.453-15.36-3.151-29.46 6.617-32.453 21.504-12.052 59.707-43.244 112.089-89.954 151.473-54.587 46.001-123.746 68.214-195.033 61.755-71.207-6.144-135.641-39.621-181.642-94.208-94.917-112.798-80.345-281.758 32.453-376.674s281.6-80.423 376.596 32.453c9.846 11.579 27.333 13.076 38.833 3.308 11.579-9.767 13.154-27.175 3.308-38.833-55.454-65.851-133.199-106.26-218.978-113.585-9.452-0.945-18.826-1.339-28.199-1.339z" />
<glyph unicode="&#xe93b;" glyph-name="60" d="M804.391 449.418l-110.75 89.009c-11.894 9.452-13.785 26.86-4.254 38.676 9.452 12.052 26.86 13.942 38.676 4.254l67.82-54.351 55.060 68.766c9.61 11.894 26.939 13.863 38.754 4.332 11.894-9.531 13.785-26.939 4.332-38.754l-89.639-111.931zM222.602 500.46c-1.654 0-3.387 0.158-5.041 0.473-15.045 2.757-24.891 17.172-22.055 32.138 10.24 54.193 34.501 105.314 70.183 147.614 55.454 65.851 133.199 106.26 218.978 113.585 86.095 7.641 169.354-19.062 235.284-74.516 56.399-47.419 93.814-110.513 108.465-182.666 3.072-14.887-6.617-29.46-21.504-32.453-15.202-3.23-29.538 6.695-32.453 21.504-12.13 59.786-43.244 112.167-90.033 151.473-112.798 94.838-281.6 80.345-376.596-32.453-29.538-35.131-49.703-77.43-58.132-122.25-2.442-13.233-14.1-22.449-27.097-22.449zM151.473 289.989c-6.065 0-12.13 1.89-17.25 5.986-11.894 9.531-13.785 26.939-4.332 38.754l89.718 111.852 110.75-89.009c11.894-9.452 13.785-26.86 4.254-38.676-9.452-11.973-26.939-13.863-38.676-4.254l-67.82 54.351-55.138-68.687c-5.435-6.774-13.47-10.319-21.504-10.319zM511.134 100.47c-75.855 0-148.48 26.466-207.163 75.855-55.611 46.71-94.050 111.537-108.386 182.666-2.993 14.887 6.617 29.46 21.583 32.453 15.36 3.23 29.538-6.695 32.453-21.504 12.052-59.786 43.166-112.167 89.954-151.473 112.719-94.838 281.758-80.423 376.674 32.374 29.538 35.131 49.625 77.43 58.132 122.329 2.836 14.887 17.014 24.734 32.217 21.898 14.887-2.836 24.734-17.25 21.898-32.217-10.24-54.193-34.501-105.157-70.105-147.535-55.532-66.009-133.356-106.338-219.136-113.664-9.374-0.866-18.826-1.182-28.121-1.182z" />
<glyph unicode="&#xe93c;" glyph-name="61" d="M125.952 126.7l-9.137 4.962c-33.477 21.583-8.113 63.173 34.028 131.938 12.524 20.48 30.562 49.861 37.1 64.906-41.039 46.080-62.622 99.328-62.622 154.624 0 157.775 178.885 286.169 398.651 286.169s398.651-128.394 398.651-286.169-178.885-286.169-398.651-286.169c-72.94 0-143.99 14.1-206.060 40.802-11.5-6.144-49.625-32.453-75.461-50.255-65.142-44.977-89.561-60.731-108.308-60.731l-8.192-0.079zM523.973 714.161c-189.44 0-343.513-103.66-343.513-231.109 0-44.426 19.22-87.828 55.611-125.479 22.764-23.394 2.363-56.635-38.203-122.959-3.466-5.514-7.404-11.973-11.5-18.747 8.665 5.829 17.25 11.737 24.734 16.935 65.536 45.292 90.191 61.125 109.095 61.125l13.312-2.836c56.556-25.521 122.486-39.070 190.385-39.070 189.44 0 343.513 103.66 343.513 231.109s-153.994 231.030-343.434 231.030z" />
<glyph unicode="&#xe93d;" glyph-name="62" d="M574.937 475.254c0-26.145-21.195-47.34-47.34-47.34s-47.34 21.195-47.34 47.34c0 26.145 21.195 47.34 47.34 47.34s47.34-21.195 47.34-47.34zM743.66 475.254c0-26.145-21.195-47.34-47.34-47.34s-47.34 21.195-47.34 47.34c0 26.145 21.195 47.34 47.34 47.34s47.34-21.195 47.34-47.34zM406.292 475.254c0-26.145-21.195-47.34-47.34-47.34s-47.34 21.195-47.34 47.34c0 26.145 21.195 47.34 47.34 47.34s47.34-21.195 47.34-47.34zM125.952 126.7l-9.137 4.962c-33.556 21.504-8.113 63.015 33.95 131.702 12.603 20.638 30.641 50.097 37.179 65.142-41.039 46.001-62.622 99.249-62.622 154.624 0 157.775 178.885 286.169 398.651 286.169s398.651-128.394 398.651-286.169-178.806-286.169-398.651-286.169c-73.098 0-144.148 14.1-206.060 40.802-11.579-6.144-49.703-32.453-75.54-50.334-65.063-44.898-89.482-60.652-108.308-60.652l-8.113-0.079zM523.973 714.161c-189.44 0-343.513-103.66-343.513-231.109 0-44.426 19.22-87.828 55.611-125.479 22.764-23.473 2.284-56.793-38.282-123.116-3.387-5.435-7.326-11.815-11.422-18.59 8.665 5.908 17.172 11.737 24.655 16.935 65.615 45.292 90.191 61.125 109.174 61.125l13.312-2.757c56.478-25.6 122.329-39.148 190.464-39.148 189.44 0 343.513 103.66 343.513 231.109s-154.073 231.030-343.513 231.030z" />
<glyph unicode="&#xe93e;" glyph-name="63" d="M735.153 401.29h-223.153c-15.202 0-27.569 12.288-27.569 27.569s12.367 27.569 27.569 27.569h223.153c15.202 0 27.569-12.288 27.569-27.569s-12.288-27.569-27.569-27.569zM512 404.441c-15.202 0-27.569 12.288-27.569 27.569v223.232c0 15.202 12.367 27.569 27.569 27.569s27.569-12.288 27.569-27.569v-223.232c0-15.202-12.367-27.569-27.569-27.569zM512 99.525c-192.118 0-348.475 156.278-348.475 348.475s156.357 348.475 348.475 348.475 348.475-156.278 348.475-348.475-156.357-348.475-348.475-348.475zM512 741.415c-161.792 0-293.337-131.623-293.337-293.415s131.545-293.415 293.337-293.415 293.337 131.623 293.337 293.415-131.545 293.415-293.337 293.415z" />
<glyph unicode="&#xe93f;" glyph-name="64" d="M735.153 353.871h-223.153c-15.202 0-27.569 12.288-27.569 27.569s12.367 27.569 27.569 27.569h223.153c15.202 0 27.569-12.288 27.569-27.569s-12.288-27.569-27.569-27.569zM578.009 788.834h-132.017c-15.202 0-27.569 12.288-27.569 27.569s12.367 27.569 27.569 27.569h132.096c15.202 0 27.569-12.288 27.569-27.569s-12.367-27.569-27.648-27.569zM512 357.022c-15.202 0-27.569 12.288-27.569 27.569v223.232c0 15.202 12.367 27.569 27.569 27.569s27.569-12.288 27.569-27.569v-223.232c0-15.281-12.367-27.569-27.569-27.569zM512 52.106c-192.118 0-348.475 156.278-348.475 348.475s156.357 348.475 348.475 348.475 348.475-156.278 348.475-348.475-156.357-348.475-348.475-348.475zM512 693.996c-161.792 0-293.337-131.623-293.337-293.415s131.545-293.415 293.337-293.415 293.337 131.623 293.337 293.415-131.545 293.415-293.337 293.415z" />
<glyph unicode="&#xe940;" glyph-name="65" d="M739.879 52.342h-455.759c-47.892 0-86.882 38.912-86.882 86.804v342.331c0 47.892 38.991 86.882 86.882 86.882h455.838c47.892 0 86.882-38.912 86.882-86.882v-342.41c-0.079-47.813-39.070-86.725-86.961-86.725zM284.121 513.3c-17.487 0-31.665-14.257-31.665-31.744v-342.41c0-17.487 14.257-31.665 31.665-31.665h455.838c17.487 0 31.665 14.257 31.665 31.665v342.331c0 17.566-14.257 31.744-31.665 31.744h-455.838zM643.545 512.67c-15.202 0-27.569 12.288-27.569 27.569v144.305c0 57.344-46.631 103.975-103.897 103.975-57.344 0-103.975-46.71-103.975-103.975v-144.384c0-15.202-12.367-27.569-27.569-27.569s-27.648 12.367-27.648 27.569v144.384c0 87.749 71.365 159.114 159.114 159.114 87.67 0 159.114-71.286 159.114-159.114v-144.384c0-15.202-12.367-27.49-27.569-27.49zM581.553 352.138c0 40.881-33.162 73.964-73.964 73.964-40.881 0-73.964-33.083-73.964-73.964 0-24.891 13.076-45.765 31.902-59.234v-56.241c0-23.237 18.826-42.142 42.063-42.142s42.142 18.826 42.142 42.142v56.241c18.747 13.391 31.823 34.343 31.823 59.234z" />
<glyph unicode="&#xe941;" glyph-name="66" d="M739.879 52.342h-455.759c-47.892 0-86.882 38.912-86.882 86.804v342.331c0 47.892 38.991 86.882 86.882 86.882h455.838c47.892 0 86.882-38.912 86.882-86.882v-342.41c-0.079-47.813-39.070-86.725-86.961-86.725zM284.121 513.3c-17.487 0-31.665-14.257-31.665-31.744v-342.41c0-17.487 14.257-31.665 31.665-31.665h455.838c17.487 0 31.665 14.257 31.665 31.665v342.331c0 17.566-14.257 31.744-31.665 31.744h-455.838zM380.455 512.67c-15.202 0-27.569 12.288-27.569 27.569v144.305c0 87.749 71.365 159.114 159.114 159.114 87.67 0 159.114-71.286 159.114-159.114 0-15.202-12.367-27.569-27.569-27.569s-27.569 12.288-27.569 27.569c0 57.344-46.631 103.975-103.897 103.975-57.344 0-103.975-46.71-103.975-103.975v-144.384c-0.079-15.202-12.367-27.49-27.648-27.49zM581.553 352.138c0 40.881-33.083 73.964-73.964 73.964s-73.964-33.083-73.964-73.964c0-24.891 13.076-45.765 31.902-59.234v-56.241c0-23.237 18.826-42.142 42.142-42.142s42.142 18.826 42.142 42.142v56.241c18.668 13.391 31.744 34.343 31.744 59.234z" />
<glyph unicode="&#xe942;" glyph-name="67" d="M736.571 107.008h-454.892c-44.898 0-81.447 36.47-81.447 81.369v326.892c0 24.103 10.634 46.789 29.145 62.385l230.4 192.906c29.223 24.497 75.303 24.497 104.606 0l230.242-192.827c18.59-15.675 29.223-38.361 29.223-62.464v-321.221c-0.079-47.97-39.227-87.040-87.276-87.040zM512 734.484c-6.144 0-12.13-2.127-16.857-6.144l-230.321-192.827c-5.986-4.962-9.452-12.367-9.452-20.165v-326.892c0-14.494 11.815-26.309 26.309-26.309h454.892c17.644 0 32.059 14.415 32.059 31.98v321.221c0 7.798-3.466 15.124-9.531 20.244l-230.242 192.748c-4.726 4.017-10.713 6.144-16.857 6.144zM642.678 107.008h-261.356v227.958c0 41.354 33.713 75.067 75.146 75.067h111.143c41.354 0 75.067-33.713 75.067-75.067v-227.958zM436.539 162.068h151.001v172.898c0 11.028-8.901 20.007-19.929 20.007h-111.143c-11.028 0-19.929-8.98-19.929-20.007v-172.898z" />
<glyph unicode="&#xe943;" glyph-name="68" d="M744.29 108.268h-461.903c-45.292 0-82.078 36.864-82.078 82.156v355.643c0 15.202 12.367 27.569 27.569 27.569s27.569-12.288 27.569-27.569v-355.643c0-14.887 12.052-27.097 26.939-27.097h461.903c13.391 0 24.34 10.949 24.34 24.418v358.321c0 15.202 12.367 27.569 27.569 27.569s27.569-12.288 27.569-27.569v-358.321c0-43.874-35.682-79.478-79.478-79.478zM642.678 108.268h-261.356v221.026c0 45.292 36.864 82.078 82.078 82.078h97.122c45.292 0 82.078-36.785 82.078-82.078v-221.026zM436.46 163.328h151.001v165.967c0 14.809-12.052 27.018-26.939 27.018h-97.044c-14.887 0-26.939-12.13-26.939-27.018v-165.967zM138.476 445.716c-7.956 0-15.833 3.387-21.268 10.004-9.689 11.737-8.113 29.145 3.623 38.833l326.026 269.785c37.73 31.193 92.396 31.193 130.206 0l326.026-269.785c11.737-9.689 13.391-27.097 3.623-38.754-9.689-11.658-27.097-13.312-38.833-3.702l-325.947 269.706c-17.329 14.336-42.457 14.336-59.865 0l-326.026-269.706c-5.199-4.254-11.422-6.38-17.566-6.38z" />
<glyph unicode="&#xe944;" glyph-name="69" d="M545.792 152.615c0-18.663-15.129-33.792-33.792-33.792s-33.792 15.129-33.792 33.792c0 18.663 15.129 33.792 33.792 33.792s33.792-15.129 33.792-33.792zM658.983 47.458h-293.967c-54.272 0-98.462 44.19-98.462 98.462v604.16c0 54.351 44.19 98.54 98.462 98.54h293.967c54.272 0 98.462-44.19 98.462-98.54v-604.16c0-54.351-44.111-98.462-98.462-98.462zM365.017 793.482c-23.946 0-43.402-19.535-43.402-43.481v-604.16c0-23.946 19.456-43.402 43.402-43.402h293.967c23.946 0 43.402 19.456 43.402 43.402v604.16c0 23.946-19.456 43.481-43.402 43.481h-293.967zM294.124 698.486h435.83v-55.060h-435.83v55.060zM580.057 732.83h-136.034c-8.665 0-15.754 7.089-15.754 15.754s7.089 15.754 15.754 15.754h136.034c8.665 0 15.754-7.089 15.754-15.754s-7.089-15.754-15.754-15.754zM294.124 260.766h435.83v-55.060h-435.83v55.060z" />
<glyph unicode="&#xe945;" glyph-name="70" d="M512 143.714l-9.452 3.387c-102.164 37.337-205.982 39.778-325.474 7.562l-13.233-1.733c-27.49 0-49.782 22.213-49.782 49.546v468.441c0 20.638 12.839 39.385 31.98 46.789 121.068 46.474 244.5 46.080 365.962-1.733 121.383 47.734 244.815 48.364 366.041 1.654 19.062-7.404 31.823-26.151 31.823-46.71v-468.441c0-13.548-5.278-26.151-14.966-35.525-9.374-8.98-21.662-14.021-34.658-14.021v0l-13.312 1.733c-119.257 32.138-223.311 29.696-325.474-7.562l-9.452-3.387zM334.297 232.015c60.731 0 120.359-10.004 177.703-29.696 107.678 37.1 219.609 39.463 342.882 7.326v461.273c-104.448 33.083-220.396 36.47-332.249-10.161l-10.634-4.411-10.634 4.411c-111.852 46.631-224.256 48.286-335.557 5.435l3.308-456.783c57.029 15.202 111.458 22.607 165.179 22.607zM484.431 681.866h55.060v-508.77h-55.060v508.77z" />
<glyph unicode="&#xe946;" glyph-name="71" d="M512 143.793l-9.452 3.387c-102.242 37.337-206.139 39.621-325.553 7.483l-13.154-1.812c-27.49 0-49.782 22.292-49.782 49.625v468.441c0 20.638 12.839 39.385 31.902 46.71 120.99 46.789 244.421 46.001 366.041-1.654 121.541 47.577 244.972 48.364 366.041 1.654 19.062-7.326 31.902-26.073 31.902-46.71v-468.441c0-13.627-5.356-26.23-15.124-35.604-9.374-8.98-21.662-14.021-34.658-14.021l-13.076 1.733c-119.729 32.138-223.311 29.775-325.632-7.483l-9.452-3.308zM334.375 232.015c60.652 0 120.359-10.004 177.625-29.696 107.599 37.1 219.609 39.306 342.804 7.326v461.273c-104.212 33.083-220.396 36.313-332.17-10.161l-10.634-4.332-10.555 4.332c-111.931 46.474-224.335 48.286-335.636 5.435l3.308-456.783c57.029 15.124 111.537 22.607 165.258 22.607zM484.431 681.787h55.138v-508.692h-55.138v508.692zM444.574 575.37c-2.127 0-4.332 0.394-6.459 1.103-74.201 25.758-149.268 26.782-222.917 2.993-10.319-3.308-21.425 2.363-24.734 12.761-3.308 10.319 2.363 21.346 12.682 24.734 82.078 26.466 165.494 25.206 247.887-3.308 10.24-3.545 15.675-14.809 12.13-25.049-2.836-8.113-10.476-13.233-18.59-13.233zM444.574 479.823c-2.127 0-4.332 0.394-6.459 1.103-74.122 25.836-149.11 26.939-222.917 3.072-10.319-3.151-21.425 2.363-24.734 12.761-3.387 10.319 2.363 21.504 12.682 24.812 82.235 26.23 165.73 25.206 247.887-3.387 10.24-3.623 15.675-14.809 12.13-25.049-2.836-8.192-10.476-13.312-18.59-13.312zM444.574 384.433c-2.127 0-4.332 0.394-6.459 1.103-74.201 25.836-149.268 26.782-222.917 2.993-10.319-3.308-21.425 2.284-24.734 12.682-3.308 10.319 2.363 21.346 12.682 24.734 82.078 26.466 165.494 25.206 247.887-3.308 10.24-3.545 15.675-14.73 12.13-25.049-2.836-8.113-10.476-13.154-18.59-13.154zM444.574 288.886c-2.127 0-4.332 0.394-6.459 1.103-74.122 25.994-149.11 26.939-222.917 2.993-10.319-3.308-21.425 2.284-24.734 12.761-3.308 10.319 2.363 21.346 12.682 24.734 82.156 26.466 165.573 25.206 247.887-3.308 10.24-3.623 15.675-14.887 12.13-25.049-2.836-8.192-10.476-13.233-18.59-13.233zM815.97 575.37c-2.127 0-4.332 0.394-6.459 1.103-74.201 25.758-149.189 26.782-222.917 2.993-10.24-3.308-21.425 2.363-24.734 12.761-3.387 10.319 2.284 21.425 12.682 24.812 82.078 26.388 165.494 25.206 247.887-3.308 10.24-3.545 15.675-14.809 12.13-25.049-2.836-8.192-10.398-13.312-18.59-13.312zM815.97 479.823c-2.127 0-4.332 0.394-6.459 1.103-73.964 25.836-149.031 26.782-222.917 3.072-10.398-3.151-21.504 2.363-24.734 12.761-3.387 10.319 2.284 21.504 12.682 24.812 82.235 26.309 165.652 25.285 247.887-3.387 10.24-3.623 15.675-14.809 12.13-25.049-2.836-8.192-10.398-13.312-18.59-13.312zM815.97 384.433c-2.127 0-4.332 0.394-6.459 1.103-74.201 25.758-149.189 26.782-222.917 2.993-10.24-3.23-21.425 2.284-24.734 12.761-3.387 10.24 2.284 21.346 12.682 24.734 82.078 26.466 165.494 25.206 247.887-3.308 10.24-3.623 15.675-14.809 12.13-25.049-2.836-8.192-10.398-13.233-18.59-13.233zM815.97 288.886c-2.127 0-4.332 0.394-6.459 1.103-74.201 25.994-149.11 26.939-222.917 2.993-10.24-3.308-21.425 2.284-24.734 12.761-3.387 10.24 2.284 21.346 12.682 24.734 82.235 26.466 165.573 25.127 247.887-3.308 10.24-3.623 15.675-14.809 12.13-25.049-2.836-8.192-10.398-13.233-18.59-13.233z" />
<glyph unicode="&#xe947;" glyph-name="72" d="M512 273.132c-96.414 0-174.868 78.375-174.868 174.868s78.454 174.868 174.868 174.868 174.868-78.375 174.868-174.868-78.454-174.868-174.868-174.868zM512 567.808c-66.009 0-119.729-53.799-119.729-119.808s53.721-119.808 119.729-119.808 119.729 53.799 119.729 119.808-53.721 119.808-119.729 119.808zM541.854 59.746h-59.707c-24.103 0-45.292 16.148-51.515 39.385l-22.843 84.756-73.728 42.063-97.201-24.655c-18.983 0-36.706 10.24-46.159 26.703l-29.932 51.751c-12.052 20.874-8.507 47.34 8.428 64.354l61.991 62.070-0.551 84.913-61.44 60.81c-17.014 17.014-20.48 43.481-8.428 64.276l29.932 51.751c9.452 16.463 27.175 26.782 46.159 26.782l13.706-1.812 84.756-22.607 73.255 42.85 21.898 83.653c6.223 23.237 27.412 39.463 51.515 39.463h59.786c24.182 0 45.371-16.226 51.515-39.542l22.764-84.598 73.807-41.984 97.122 24.655c19.062 0 36.785-10.319 46.238-26.86l29.854-51.673c12.052-20.874 8.507-47.34-8.507-64.276l-61.913-62.070 0.551-84.913 61.361-60.81c17.014-17.014 20.559-43.481 8.507-64.276l-29.932-51.751c-9.531-16.463-27.175-26.703-46.159-26.703l-13.627 1.733-84.756 22.607-73.255-42.929-21.977-83.653c-6.144-23.237-27.333-39.463-51.515-39.463zM334.927 280.852c9.374 0 18.668-2.521 26.782-7.326l74.437-43.008c12.288-7.010 21.189-18.511 24.812-32.295l22.764-84.677 56.714 1.339 22.449 83.417c3.781 13.706 12.603 25.206 24.97 32.295l74.594 43.008c7.956 4.726 17.172 7.247 26.624 7.247l13.785-1.812 84.756-22.607 27.884 50.885-61.676 59.943c-10.082 10.004-15.596 23.394-15.596 37.652v86.174c0 14.257 5.514 27.727 15.596 37.73l61.913 62.070-30.169 49.625-96.492-25.206c-9.374 0-18.511 2.442-26.545 7.089l-74.752 43.087c-12.052 6.853-21.11 18.59-24.812 32.217l-22.843 84.756-57.974-1.339-21.11-83.338c-3.702-13.706-12.761-25.442-24.891-32.374l-74.594-43.008c-8.192-4.726-17.329-7.168-26.624-7.168l-13.785 1.812-84.756 22.686-27.884-51.042 61.676-59.943c10.082-10.004 15.596-23.473 15.596-37.73v-86.174c0-14.257-5.514-27.727-15.596-37.73l-61.913-61.913 30.247-49.625 96.414 25.285z" />
<glyph unicode="&#xe948;" glyph-name="73" d="M194.324 82.196c-14.494 0-28.278 6.302-37.809 17.25-9.61 11.028-13.942 25.521-11.973 40.015l31.665 135.798c0.866 8.192 5.75 18.196 13.627 26.151l498.137 498.058c19.062 19.062 52.224 19.062 71.286 0l105.945-105.945c9.531-9.452 14.809-22.134 14.809-35.604s-5.278-26.151-14.809-35.682l-497.664-497.585c-8.192-8.192-18.983-13.312-30.484-14.572l-142.73-27.884zM720.266 760.556l-491.362-497.979-28.199-123.746 128 25.758 497.428 496.719-105.866 99.249zM627.135 699.738l138.242-138.242-33.363-33.363-138.242 138.242 33.363 33.363zM197.79 187.274l52.775-52.775-60.416-5.278zM220.711 293.193l138.242-138.242-33.363-33.363-138.242 138.242 33.363 33.363z" />
<glyph unicode="&#xe949;" glyph-name="74" d="M512 212.795c-129.733 0-235.284 105.551-235.284 235.205s105.551 235.205 235.284 235.205c129.654 0 235.205-105.551 235.205-235.205s-105.472-235.205-235.205-235.205zM512 628.145c-99.328 0-180.145-80.817-180.145-180.145s80.896-180.145 180.145-180.145 180.066 80.817 180.066 180.145-80.738 180.145-180.066 180.145zM513.969 71.404h-3.938c-15.202 0-27.569 12.288-27.569 27.569s12.367 27.569 27.569 27.569 29.538-12.288 29.538-27.569-10.319-27.569-25.6-27.569zM513.969 769.536h-3.938c-15.202 0-27.569 12.288-27.569 27.569s12.367 27.569 27.569 27.569 29.538-12.367 29.538-27.569-10.319-27.569-25.6-27.569zM757.445 172.229c-7.010 0-14.021 2.599-19.377 7.956-10.791 10.634-10.949 28.121-0.236 38.991 10.634 10.713 29.46 12.367 40.409 1.654 10.87-10.713 12.367-26.782 1.654-37.652l-2.836-2.757c-5.356-5.514-12.524-8.192-19.614-8.192zM263.798 665.876c-7.010 0-14.021 2.599-19.377 7.956-10.791 10.634-10.949 28.121-0.236 38.912 10.634 10.791 29.538 12.367 40.409 1.654s12.367-26.782 1.654-37.652l-2.836-2.757c-5.356-5.435-12.524-8.113-19.614-8.113zM861.026 418.462c-15.202 0-27.569 12.288-27.569 27.569s12.367 29.538 27.569 29.538 27.569-10.319 27.569-25.521v-4.017c0-15.281-12.288-27.569-27.569-27.569zM162.974 418.462c-15.202 0-27.569 12.288-27.569 27.569s12.288 29.538 27.569 29.538 27.569-10.319 27.569-25.521v-4.017c0-15.281-12.367-27.569-27.569-27.569zM760.281 665.876c-7.089 0-14.257 2.678-19.614 8.192-10.713 10.791-12.052 29.696-1.182 40.409 10.87 10.555 26.86 11.894 37.573 1.182l2.836-2.836c10.713-10.87 10.555-28.278-0.236-38.991-5.435-5.356-12.446-7.956-19.377-7.956zM266.634 172.229c-7.089 0-14.257 2.678-19.614 8.192-10.713 10.791-12.052 29.696-1.182 40.409 10.791 10.634 26.939 11.894 37.573 1.182l2.836-2.836c10.634-10.87 10.555-28.357-0.315-38.991-5.356-5.356-12.367-7.956-19.298-7.956z" />
<glyph unicode="&#xe94a;" glyph-name="75" d="M512 251.313c-108.465 0-196.766 88.222-196.766 196.687s88.3 196.687 196.766 196.687 196.766-88.222 196.766-196.687-88.3-196.687-196.766-196.687zM512 589.627c-78.060 0-141.548-63.567-141.548-141.627s63.488-141.627 141.548-141.627 141.548 63.567 141.548 141.627-63.488 141.627-141.548 141.627zM512 58.171c-15.202 0-27.569 12.288-27.569 27.569v83.023c0 15.202 12.367 27.569 27.569 27.569s27.569-12.288 27.569-27.569v-83.102c0-15.202-12.367-27.49-27.569-27.49zM512 699.746c-15.202 0-27.569 12.288-27.569 27.569v83.023c0 15.202 12.367 27.569 27.569 27.569s27.569-12.367 27.569-27.569v-83.023c0-15.202-12.367-27.569-27.569-27.569zM768.158 164.273c-7.010 0-14.1 2.678-19.535 8.113l-58.604 58.683c-10.791 10.791-10.791 28.121 0 38.912s28.199 10.791 38.991 0l58.683-58.683c10.791-10.791 10.791-28.121 0-38.912-5.356-5.356-12.446-8.113-19.535-8.113zM314.526 617.984c-7.010 0-14.1 2.678-19.535 8.113l-58.683 58.683c-10.791 10.791-10.791 28.121 0 38.912s28.199 10.791 38.991 0l58.683-58.683c10.791-10.791 10.791-28.121 0-38.912-5.356-5.435-12.446-8.113-19.456-8.113zM874.338 420.431h-83.023c-15.202 0-27.569 12.288-27.569 27.569s12.367 27.569 27.569 27.569h83.023c15.202 0 27.569-12.288 27.569-27.569s-12.367-27.569-27.569-27.569zM232.684 420.431h-83.023c-15.202 0-27.569 12.288-27.569 27.569s12.367 27.569 27.569 27.569h83.023c15.202 0 27.569-12.288 27.569-27.569s-12.367-27.569-27.569-27.569zM709.474 617.984c-7.010 0-14.1 2.678-19.535 8.113-10.791 10.791-10.791 28.121 0 38.912l58.762 58.683c10.791 10.791 28.199 10.791 38.991 0s10.791-28.121 0-38.912l-58.683-58.683c-5.356-5.435-12.446-8.113-19.535-8.113zM255.842 164.273c-7.010 0-14.1 2.678-19.535 8.113-10.791 10.791-10.791 28.121 0 38.912l58.683 58.683c10.791 10.791 28.199 10.791 38.991 0s10.791-28.121 0-38.912l-58.683-58.683c-5.356-5.356-12.446-8.113-19.456-8.113z" />
<glyph unicode="&#xe94b;" glyph-name="76" d="M554.929 132.372v0c-61.204 0-122.486 17.881-177.231 51.673-82.156 50.885-136.271 138.87-144.699 235.52-13.627 156.514 75.225 293.73 220.948 341.622l15.281 2.442c16.62 0 31.98-8.586 41.039-23.158 9.295-14.809 10.24-33.162 2.521-48.916-19.298-39.385-28.514-82.393-27.412-127.921 1.654-71.838 37.1-143.833 94.759-192.433 48.679-41.039 103.424-62.779 162.658-64.433 20.716-0.551 38.912-13.391 46.316-32.689 7.168-18.668 2.599-38.833-11.894-52.618-60.416-57.423-139.343-89.088-222.287-89.088zM457.964 704.394c-94.602-36.47-182.666-135.168-170.063-280.025 6.774-78.218 52.303-152.34 118.784-193.378 104.921-64.906 237.41-53.642 324.766 23.316-66.324 0.945-130.284 26.86-186.919 74.673-69.553 58.683-112.246 145.959-114.373 233.393-1.103 50.176 8.192 97.831 27.806 142.021z" />
<glyph unicode="&#xe94c;" glyph-name="77" d="M683.953 213.74h-368.167c-82.078 0-148.953 66.796-148.953 148.953 0 73.807 53.957 135.168 124.455 146.826 7.641 96.571 88.615 172.741 187.077 172.741 80.345 0 150.528-50.964 176.601-124.849 106.417 18.983 202.201-65.457 202.201-170.535 0-95.468-77.666-173.135-173.214-173.135zM318.779 456.113c-55.060 0-96.807-41.905-96.807-93.499 0-51.673 42.063-93.814 93.814-93.814h368.167c65.142 0 118.075 53.012 118.075 118.075 0 77.588-71.759 141.076-157.302 110.75l-30.484-10.713-5.829 31.744c-11.5 62.858-66.245 108.544-130.048 108.544-73.098 0-132.569-59.471-132.569-132.569l2.127-29.538-28.514-8.98c-0.236 0-0.394 0-0.63 0z" />
<glyph unicode="&#xe94d;" glyph-name="78" d="M292.076 226.501c-15.202 0-27.569 12.288-27.569 27.569v39.542c0 15.202 12.367 27.569 27.569 27.569s27.569-12.288 27.569-27.569v-39.542c0-15.202-12.367-27.569-27.569-27.569zM449.615 147.732c-15.202 0-27.569 12.288-27.569 27.569v39.542c0 15.202 12.367 27.569 27.569 27.569s27.569-12.288 27.569-27.569v-39.542c0-15.202-12.367-27.569-27.569-27.569zM607.153 226.501c-15.202 0-27.569 12.288-27.569 27.569v39.542c0 15.202 12.367 27.569 27.569 27.569s27.569-12.288 27.569-27.569v-39.542c0-15.202-12.367-27.569-27.569-27.569zM764.692 147.732c-15.202 0-27.569 12.288-27.569 27.569v39.542c0 15.202 12.367 27.569 27.569 27.569s27.569-12.288 27.569-27.569v-39.542c0-15.202-12.367-27.569-27.569-27.569zM292.076 68.962c-15.202 0-27.569 12.288-27.569 27.569v39.542c0 15.202 12.367 27.569 27.569 27.569s27.569-12.288 27.569-27.569v-39.542c0-15.202-12.367-27.569-27.569-27.569zM607.153 68.962c-15.202 0-27.569 12.288-27.569 27.569v39.542c0 15.202 12.367 27.569 27.569 27.569s27.569-12.288 27.569-27.569v-39.542c0-15.202-12.367-27.569-27.569-27.569zM683.953 358.439h-368.167c-82.078 0-148.953 66.796-148.953 148.874 0 73.807 53.957 135.247 124.455 146.905 7.641 96.571 88.615 172.741 187.077 172.741 80.345 0 150.528-50.964 176.601-124.849 106.417 19.141 202.201-65.457 202.201-170.535 0-95.39-77.666-173.135-173.214-173.135zM317.046 600.734c-53.327 0-95.074-41.905-95.074-93.499 0-51.673 42.063-93.735 93.814-93.735h368.167c65.142 0 118.075 53.012 118.075 118.075 0 77.588-71.838 141.076-157.302 110.75l-30.484-10.713-5.829 31.744c-11.5 62.858-66.245 108.544-130.048 108.544-73.098 0-132.569-59.471-132.569-132.569l2.284-31.429-30.405-7.168c-0.236 0-0.394 0-0.63 0z" />
<glyph unicode="&#xe94e;" glyph-name="79" d="M581.868 661.858c-15.202 0-27.569 12.288-27.569 27.569v69.474c0 15.202 12.288 27.569 27.569 27.569s27.569-12.288 27.569-27.569v-69.474c0-15.202-12.367-27.569-27.569-27.569zM416.374 593.329c-7.089 0-14.1 2.678-19.456 8.113l-49.152 49.152c-10.791 10.791-10.791 28.121 0 38.912s28.121 10.791 38.912 0l49.152-49.152c10.791-10.791 10.791-28.121 0-38.912-5.356-5.435-12.367-8.113-19.456-8.113zM885.287 427.993h-69.553c-15.202 0-27.569 12.288-27.569 27.569s12.288 27.569 27.569 27.569h69.553c15.202 0 27.569-12.288 27.569-27.569s-12.367-27.569-27.569-27.569zM747.284 593.329c-7.089 0-14.1 2.678-19.456 8.113-10.791 10.791-10.791 28.121 0 38.912l49.152 49.152c10.791 10.791 28.121 10.791 38.912 0s10.791-28.121 0-38.912l-49.152-49.152c-5.435-5.435-12.446-8.113-19.456-8.113zM628.342 109.607h-368.246c-82.078 0-148.953 66.796-148.953 148.953 0 73.807 53.957 135.168 124.455 146.826 7.641 96.571 88.615 172.741 187.077 172.741 80.423 0 150.528-50.964 176.679-124.849 106.023 19.614 202.122-65.457 202.122-170.535 0.079-95.468-77.588-173.135-173.135-173.135zM263.168 351.98c-54.981 0-96.807-41.905-96.807-93.499 0-51.673 42.063-93.814 93.735-93.814h368.167c65.142 0 118.154 53.012 118.154 118.075s-53.012 118.075-118.154 118.075c-12.524 0-25.364-2.363-39.227-7.326l-30.405-10.791-5.829 31.823c-11.579 62.858-66.245 108.544-130.127 108.544-73.098 0-132.49-59.471-132.49-132.569l2.127-29.538-28.593-8.98c-0.158 0-0.315 0-0.551 0zM724.834 358.754l-28.121 20.007c-30.878 21.74-66.875 29.223-107.599 14.73l-30.405-10.791-5.829 31.823c-8.901 47.97-43.481 86.961-90.348 101.849l-37.888 12.052 24.655 31.271c32.453 41.354 80.817 64.985 132.569 64.985 93.342 0 169.118-75.855 169.118-169.118 0-22.292-4.332-44.19-12.918-64.827l-13.233-31.98zM628.342 455.877c23.079 0 45.686-4.647 66.875-13.548 0.473 4.411 0.788 8.743 0.788 13.154 0 62.937-51.121 114.058-114.058 114.058-22.37 0-43.874-6.695-62.228-18.905 37.022-22.213 65.221-56.635 79.714-97.359 9.689 1.733 19.298 2.599 28.908 2.599z" />
<glyph unicode="&#xe94f;" glyph-name="80" d="M512 707.545c-15.202 0-27.569 12.288-27.569 27.569v50.176c0 15.202 12.288 27.569 27.569 27.569s27.569-12.288 27.569-27.569v-50.255c0-15.202-12.367-27.49-27.569-27.49zM583.522 83.141c-54.587 0-99.092 44.426-99.092 99.092v254.74c0 15.202 12.288 27.569 27.569 27.569s27.569-12.288 27.569-27.569v-254.74c0-24.261 19.771-44.032 44.032-44.032s44.032 19.771 44.032 44.032c0 15.202 12.288 27.569 27.569 27.569s27.569-12.288 27.569-27.569c-0.158-54.587-44.583-99.092-99.249-99.092zM756.5 424.999h-488.999c-17.644 0-34.501 7.562-46.080 20.874-11.028 12.524-16.226 28.987-14.178 45.214 19.141 153.049 150.134 268.524 304.758 268.524s285.617-115.476 304.758-268.603c1.969-16.148-3.151-32.61-14.257-45.135-11.579-13.312-28.436-20.874-46.001-20.874zM512 704.551c-126.818 0-234.338-94.759-250.014-220.318l5.514-4.175h488.921c2.048 0 3.86 1.182 4.805 2.206-14.887 127.527-122.407 222.287-249.226 222.287z" />
</font>
</defs>
</svg>
